G04 #@! TF.GenerationSoftware,KiCad,Pcbnew,8.0.9*
G04 #@! TF.CreationDate,2025-04-29T14:58:15+09:00*
G04 #@! TF.ProjectId,NEW_KANJI_ROM,4e45575f-4b41-44e4-9a49-5f524f4d2e6b,0.2.1*
G04 #@! TF.SameCoordinates,PX2835f20PY9c7b920*
G04 #@! TF.FileFunction,Legend,Top*
G04 #@! TF.FilePolarity,Positive*
%FSLAX46Y46*%
G04 Gerber Fmt 4.6, Leading zero omitted, Abs format (unit mm)*
G04 Created by KiCad (PCBNEW 8.0.9) date 2025-04-29 14:58:15*
%MOMM*%
%LPD*%
G01*
G04 APERTURE LIST*
%ADD10C,0.150000*%
%ADD11C,0.200000*%
%ADD12C,0.120000*%
G04 APERTURE END LIST*
D10*
X140106238Y12880181D02*
X140106238Y13880181D01*
X140106238Y13880181D02*
X140344333Y13880181D01*
X140344333Y13880181D02*
X140487190Y13832562D01*
X140487190Y13832562D02*
X140582428Y13737324D01*
X140582428Y13737324D02*
X140630047Y13642086D01*
X140630047Y13642086D02*
X140677666Y13451610D01*
X140677666Y13451610D02*
X140677666Y13308753D01*
X140677666Y13308753D02*
X140630047Y13118277D01*
X140630047Y13118277D02*
X140582428Y13023039D01*
X140582428Y13023039D02*
X140487190Y12927800D01*
X140487190Y12927800D02*
X140344333Y12880181D01*
X140344333Y12880181D02*
X140106238Y12880181D01*
X141487190Y12927800D02*
X141391952Y12880181D01*
X141391952Y12880181D02*
X141201476Y12880181D01*
X141201476Y12880181D02*
X141106238Y12927800D01*
X141106238Y12927800D02*
X141058619Y13023039D01*
X141058619Y13023039D02*
X141058619Y13403991D01*
X141058619Y13403991D02*
X141106238Y13499229D01*
X141106238Y13499229D02*
X141201476Y13546848D01*
X141201476Y13546848D02*
X141391952Y13546848D01*
X141391952Y13546848D02*
X141487190Y13499229D01*
X141487190Y13499229D02*
X141534809Y13403991D01*
X141534809Y13403991D02*
X141534809Y13308753D01*
X141534809Y13308753D02*
X141058619Y13213515D01*
X141915762Y12927800D02*
X142011000Y12880181D01*
X142011000Y12880181D02*
X142201476Y12880181D01*
X142201476Y12880181D02*
X142296714Y12927800D01*
X142296714Y12927800D02*
X142344333Y13023039D01*
X142344333Y13023039D02*
X142344333Y13070658D01*
X142344333Y13070658D02*
X142296714Y13165896D01*
X142296714Y13165896D02*
X142201476Y13213515D01*
X142201476Y13213515D02*
X142058619Y13213515D01*
X142058619Y13213515D02*
X141963381Y13261134D01*
X141963381Y13261134D02*
X141915762Y13356372D01*
X141915762Y13356372D02*
X141915762Y13403991D01*
X141915762Y13403991D02*
X141963381Y13499229D01*
X141963381Y13499229D02*
X142058619Y13546848D01*
X142058619Y13546848D02*
X142201476Y13546848D01*
X142201476Y13546848D02*
X142296714Y13499229D01*
X142772905Y12880181D02*
X142772905Y13546848D01*
X142772905Y13880181D02*
X142725286Y13832562D01*
X142725286Y13832562D02*
X142772905Y13784943D01*
X142772905Y13784943D02*
X142820524Y13832562D01*
X142820524Y13832562D02*
X142772905Y13880181D01*
X142772905Y13880181D02*
X142772905Y13784943D01*
X143677666Y13546848D02*
X143677666Y12737324D01*
X143677666Y12737324D02*
X143630047Y12642086D01*
X143630047Y12642086D02*
X143582428Y12594467D01*
X143582428Y12594467D02*
X143487190Y12546848D01*
X143487190Y12546848D02*
X143344333Y12546848D01*
X143344333Y12546848D02*
X143249095Y12594467D01*
X143677666Y12927800D02*
X143582428Y12880181D01*
X143582428Y12880181D02*
X143391952Y12880181D01*
X143391952Y12880181D02*
X143296714Y12927800D01*
X143296714Y12927800D02*
X143249095Y12975420D01*
X143249095Y12975420D02*
X143201476Y13070658D01*
X143201476Y13070658D02*
X143201476Y13356372D01*
X143201476Y13356372D02*
X143249095Y13451610D01*
X143249095Y13451610D02*
X143296714Y13499229D01*
X143296714Y13499229D02*
X143391952Y13546848D01*
X143391952Y13546848D02*
X143582428Y13546848D01*
X143582428Y13546848D02*
X143677666Y13499229D01*
X144153857Y13546848D02*
X144153857Y12880181D01*
X144153857Y13451610D02*
X144201476Y13499229D01*
X144201476Y13499229D02*
X144296714Y13546848D01*
X144296714Y13546848D02*
X144439571Y13546848D01*
X144439571Y13546848D02*
X144534809Y13499229D01*
X144534809Y13499229D02*
X144582428Y13403991D01*
X144582428Y13403991D02*
X144582428Y12880181D01*
X145439571Y12927800D02*
X145344333Y12880181D01*
X145344333Y12880181D02*
X145153857Y12880181D01*
X145153857Y12880181D02*
X145058619Y12927800D01*
X145058619Y12927800D02*
X145011000Y13023039D01*
X145011000Y13023039D02*
X145011000Y13403991D01*
X145011000Y13403991D02*
X145058619Y13499229D01*
X145058619Y13499229D02*
X145153857Y13546848D01*
X145153857Y13546848D02*
X145344333Y13546848D01*
X145344333Y13546848D02*
X145439571Y13499229D01*
X145439571Y13499229D02*
X145487190Y13403991D01*
X145487190Y13403991D02*
X145487190Y13308753D01*
X145487190Y13308753D02*
X145011000Y13213515D01*
X146344333Y12880181D02*
X146344333Y13880181D01*
X146344333Y12927800D02*
X146249095Y12880181D01*
X146249095Y12880181D02*
X146058619Y12880181D01*
X146058619Y12880181D02*
X145963381Y12927800D01*
X145963381Y12927800D02*
X145915762Y12975420D01*
X145915762Y12975420D02*
X145868143Y13070658D01*
X145868143Y13070658D02*
X145868143Y13356372D01*
X145868143Y13356372D02*
X145915762Y13451610D01*
X145915762Y13451610D02*
X145963381Y13499229D01*
X145963381Y13499229D02*
X146058619Y13546848D01*
X146058619Y13546848D02*
X146249095Y13546848D01*
X146249095Y13546848D02*
X146344333Y13499229D01*
X147582429Y12880181D02*
X147582429Y13880181D01*
X147582429Y13499229D02*
X147677667Y13546848D01*
X147677667Y13546848D02*
X147868143Y13546848D01*
X147868143Y13546848D02*
X147963381Y13499229D01*
X147963381Y13499229D02*
X148011000Y13451610D01*
X148011000Y13451610D02*
X148058619Y13356372D01*
X148058619Y13356372D02*
X148058619Y13070658D01*
X148058619Y13070658D02*
X148011000Y12975420D01*
X148011000Y12975420D02*
X147963381Y12927800D01*
X147963381Y12927800D02*
X147868143Y12880181D01*
X147868143Y12880181D02*
X147677667Y12880181D01*
X147677667Y12880181D02*
X147582429Y12927800D01*
X148391953Y13546848D02*
X148630048Y12880181D01*
X148868143Y13546848D02*
X148630048Y12880181D01*
X148630048Y12880181D02*
X148534810Y12642086D01*
X148534810Y12642086D02*
X148487191Y12594467D01*
X148487191Y12594467D02*
X148391953Y12546848D01*
X149963382Y12927800D02*
X150106239Y12880181D01*
X150106239Y12880181D02*
X150344334Y12880181D01*
X150344334Y12880181D02*
X150439572Y12927800D01*
X150439572Y12927800D02*
X150487191Y12975420D01*
X150487191Y12975420D02*
X150534810Y13070658D01*
X150534810Y13070658D02*
X150534810Y13165896D01*
X150534810Y13165896D02*
X150487191Y13261134D01*
X150487191Y13261134D02*
X150439572Y13308753D01*
X150439572Y13308753D02*
X150344334Y13356372D01*
X150344334Y13356372D02*
X150153858Y13403991D01*
X150153858Y13403991D02*
X150058620Y13451610D01*
X150058620Y13451610D02*
X150011001Y13499229D01*
X150011001Y13499229D02*
X149963382Y13594467D01*
X149963382Y13594467D02*
X149963382Y13689705D01*
X149963382Y13689705D02*
X150011001Y13784943D01*
X150011001Y13784943D02*
X150058620Y13832562D01*
X150058620Y13832562D02*
X150153858Y13880181D01*
X150153858Y13880181D02*
X150391953Y13880181D01*
X150391953Y13880181D02*
X150534810Y13832562D01*
X151391953Y12880181D02*
X151391953Y13403991D01*
X151391953Y13403991D02*
X151344334Y13499229D01*
X151344334Y13499229D02*
X151249096Y13546848D01*
X151249096Y13546848D02*
X151058620Y13546848D01*
X151058620Y13546848D02*
X150963382Y13499229D01*
X151391953Y12927800D02*
X151296715Y12880181D01*
X151296715Y12880181D02*
X151058620Y12880181D01*
X151058620Y12880181D02*
X150963382Y12927800D01*
X150963382Y12927800D02*
X150915763Y13023039D01*
X150915763Y13023039D02*
X150915763Y13118277D01*
X150915763Y13118277D02*
X150963382Y13213515D01*
X150963382Y13213515D02*
X151058620Y13261134D01*
X151058620Y13261134D02*
X151296715Y13261134D01*
X151296715Y13261134D02*
X151391953Y13308753D01*
X151820525Y12927800D02*
X151915763Y12880181D01*
X151915763Y12880181D02*
X152106239Y12880181D01*
X152106239Y12880181D02*
X152201477Y12927800D01*
X152201477Y12927800D02*
X152249096Y13023039D01*
X152249096Y13023039D02*
X152249096Y13070658D01*
X152249096Y13070658D02*
X152201477Y13165896D01*
X152201477Y13165896D02*
X152106239Y13213515D01*
X152106239Y13213515D02*
X151963382Y13213515D01*
X151963382Y13213515D02*
X151868144Y13261134D01*
X151868144Y13261134D02*
X151820525Y13356372D01*
X151820525Y13356372D02*
X151820525Y13403991D01*
X151820525Y13403991D02*
X151868144Y13499229D01*
X151868144Y13499229D02*
X151963382Y13546848D01*
X151963382Y13546848D02*
X152106239Y13546848D01*
X152106239Y13546848D02*
X152201477Y13499229D01*
X153106239Y12880181D02*
X153106239Y13403991D01*
X153106239Y13403991D02*
X153058620Y13499229D01*
X153058620Y13499229D02*
X152963382Y13546848D01*
X152963382Y13546848D02*
X152772906Y13546848D01*
X152772906Y13546848D02*
X152677668Y13499229D01*
X153106239Y12927800D02*
X153011001Y12880181D01*
X153011001Y12880181D02*
X152772906Y12880181D01*
X152772906Y12880181D02*
X152677668Y12927800D01*
X152677668Y12927800D02*
X152630049Y13023039D01*
X152630049Y13023039D02*
X152630049Y13118277D01*
X152630049Y13118277D02*
X152677668Y13213515D01*
X152677668Y13213515D02*
X152772906Y13261134D01*
X152772906Y13261134D02*
X153011001Y13261134D01*
X153011001Y13261134D02*
X153106239Y13308753D01*
X153582430Y13546848D02*
X153582430Y12689705D01*
X153582430Y12689705D02*
X153534811Y12594467D01*
X153534811Y12594467D02*
X153439573Y12546848D01*
X153439573Y12546848D02*
X153391954Y12546848D01*
X153582430Y13880181D02*
X153534811Y13832562D01*
X153534811Y13832562D02*
X153582430Y13784943D01*
X153582430Y13784943D02*
X153630049Y13832562D01*
X153630049Y13832562D02*
X153582430Y13880181D01*
X153582430Y13880181D02*
X153582430Y13784943D01*
X154058620Y12880181D02*
X154058620Y13546848D01*
X154058620Y13880181D02*
X154011001Y13832562D01*
X154011001Y13832562D02*
X154058620Y13784943D01*
X154058620Y13784943D02*
X154106239Y13832562D01*
X154106239Y13832562D02*
X154058620Y13880181D01*
X154058620Y13880181D02*
X154058620Y13784943D01*
X155249096Y13784943D02*
X155296715Y13832562D01*
X155296715Y13832562D02*
X155391953Y13880181D01*
X155391953Y13880181D02*
X155630048Y13880181D01*
X155630048Y13880181D02*
X155725286Y13832562D01*
X155725286Y13832562D02*
X155772905Y13784943D01*
X155772905Y13784943D02*
X155820524Y13689705D01*
X155820524Y13689705D02*
X155820524Y13594467D01*
X155820524Y13594467D02*
X155772905Y13451610D01*
X155772905Y13451610D02*
X155201477Y12880181D01*
X155201477Y12880181D02*
X155820524Y12880181D01*
X156439572Y13880181D02*
X156534810Y13880181D01*
X156534810Y13880181D02*
X156630048Y13832562D01*
X156630048Y13832562D02*
X156677667Y13784943D01*
X156677667Y13784943D02*
X156725286Y13689705D01*
X156725286Y13689705D02*
X156772905Y13499229D01*
X156772905Y13499229D02*
X156772905Y13261134D01*
X156772905Y13261134D02*
X156725286Y13070658D01*
X156725286Y13070658D02*
X156677667Y12975420D01*
X156677667Y12975420D02*
X156630048Y12927800D01*
X156630048Y12927800D02*
X156534810Y12880181D01*
X156534810Y12880181D02*
X156439572Y12880181D01*
X156439572Y12880181D02*
X156344334Y12927800D01*
X156344334Y12927800D02*
X156296715Y12975420D01*
X156296715Y12975420D02*
X156249096Y13070658D01*
X156249096Y13070658D02*
X156201477Y13261134D01*
X156201477Y13261134D02*
X156201477Y13499229D01*
X156201477Y13499229D02*
X156249096Y13689705D01*
X156249096Y13689705D02*
X156296715Y13784943D01*
X156296715Y13784943D02*
X156344334Y13832562D01*
X156344334Y13832562D02*
X156439572Y13880181D01*
X157153858Y13784943D02*
X157201477Y13832562D01*
X157201477Y13832562D02*
X157296715Y13880181D01*
X157296715Y13880181D02*
X157534810Y13880181D01*
X157534810Y13880181D02*
X157630048Y13832562D01*
X157630048Y13832562D02*
X157677667Y13784943D01*
X157677667Y13784943D02*
X157725286Y13689705D01*
X157725286Y13689705D02*
X157725286Y13594467D01*
X157725286Y13594467D02*
X157677667Y13451610D01*
X157677667Y13451610D02*
X157106239Y12880181D01*
X157106239Y12880181D02*
X157725286Y12880181D01*
X158677667Y12880181D02*
X158106239Y12880181D01*
X158391953Y12880181D02*
X158391953Y13880181D01*
X158391953Y13880181D02*
X158296715Y13737324D01*
X158296715Y13737324D02*
X158201477Y13642086D01*
X158201477Y13642086D02*
X158106239Y13594467D01*
X159153858Y12927800D02*
X159153858Y12880181D01*
X159153858Y12880181D02*
X159106239Y12784943D01*
X159106239Y12784943D02*
X159058620Y12737324D01*
X159534810Y13784943D02*
X159582429Y13832562D01*
X159582429Y13832562D02*
X159677667Y13880181D01*
X159677667Y13880181D02*
X159915762Y13880181D01*
X159915762Y13880181D02*
X160011000Y13832562D01*
X160011000Y13832562D02*
X160058619Y13784943D01*
X160058619Y13784943D02*
X160106238Y13689705D01*
X160106238Y13689705D02*
X160106238Y13594467D01*
X160106238Y13594467D02*
X160058619Y13451610D01*
X160058619Y13451610D02*
X159487191Y12880181D01*
X159487191Y12880181D02*
X160106238Y12880181D01*
X160725286Y13880181D02*
X160820524Y13880181D01*
X160820524Y13880181D02*
X160915762Y13832562D01*
X160915762Y13832562D02*
X160963381Y13784943D01*
X160963381Y13784943D02*
X161011000Y13689705D01*
X161011000Y13689705D02*
X161058619Y13499229D01*
X161058619Y13499229D02*
X161058619Y13261134D01*
X161058619Y13261134D02*
X161011000Y13070658D01*
X161011000Y13070658D02*
X160963381Y12975420D01*
X160963381Y12975420D02*
X160915762Y12927800D01*
X160915762Y12927800D02*
X160820524Y12880181D01*
X160820524Y12880181D02*
X160725286Y12880181D01*
X160725286Y12880181D02*
X160630048Y12927800D01*
X160630048Y12927800D02*
X160582429Y12975420D01*
X160582429Y12975420D02*
X160534810Y13070658D01*
X160534810Y13070658D02*
X160487191Y13261134D01*
X160487191Y13261134D02*
X160487191Y13499229D01*
X160487191Y13499229D02*
X160534810Y13689705D01*
X160534810Y13689705D02*
X160582429Y13784943D01*
X160582429Y13784943D02*
X160630048Y13832562D01*
X160630048Y13832562D02*
X160725286Y13880181D01*
X161439572Y13784943D02*
X161487191Y13832562D01*
X161487191Y13832562D02*
X161582429Y13880181D01*
X161582429Y13880181D02*
X161820524Y13880181D01*
X161820524Y13880181D02*
X161915762Y13832562D01*
X161915762Y13832562D02*
X161963381Y13784943D01*
X161963381Y13784943D02*
X162011000Y13689705D01*
X162011000Y13689705D02*
X162011000Y13594467D01*
X162011000Y13594467D02*
X161963381Y13451610D01*
X161963381Y13451610D02*
X161391953Y12880181D01*
X161391953Y12880181D02*
X162011000Y12880181D01*
X162915762Y13880181D02*
X162439572Y13880181D01*
X162439572Y13880181D02*
X162391953Y13403991D01*
X162391953Y13403991D02*
X162439572Y13451610D01*
X162439572Y13451610D02*
X162534810Y13499229D01*
X162534810Y13499229D02*
X162772905Y13499229D01*
X162772905Y13499229D02*
X162868143Y13451610D01*
X162868143Y13451610D02*
X162915762Y13403991D01*
X162915762Y13403991D02*
X162963381Y13308753D01*
X162963381Y13308753D02*
X162963381Y13070658D01*
X162963381Y13070658D02*
X162915762Y12975420D01*
X162915762Y12975420D02*
X162868143Y12927800D01*
X162868143Y12927800D02*
X162772905Y12880181D01*
X162772905Y12880181D02*
X162534810Y12880181D01*
X162534810Y12880181D02*
X162439572Y12927800D01*
X162439572Y12927800D02*
X162391953Y12975420D01*
D11*
X15234570Y64086472D02*
X15234570Y65586472D01*
X16091713Y64086472D02*
X15448856Y64943615D01*
X16091713Y65586472D02*
X15234570Y64729329D01*
X17377428Y64086472D02*
X17377428Y64872186D01*
X17377428Y64872186D02*
X17305999Y65015043D01*
X17305999Y65015043D02*
X17163142Y65086472D01*
X17163142Y65086472D02*
X16877428Y65086472D01*
X16877428Y65086472D02*
X16734570Y65015043D01*
X17377428Y64157900D02*
X17234570Y64086472D01*
X17234570Y64086472D02*
X16877428Y64086472D01*
X16877428Y64086472D02*
X16734570Y64157900D01*
X16734570Y64157900D02*
X16663142Y64300758D01*
X16663142Y64300758D02*
X16663142Y64443615D01*
X16663142Y64443615D02*
X16734570Y64586472D01*
X16734570Y64586472D02*
X16877428Y64657900D01*
X16877428Y64657900D02*
X17234570Y64657900D01*
X17234570Y64657900D02*
X17377428Y64729329D01*
X18091713Y65086472D02*
X18091713Y64086472D01*
X18091713Y64943615D02*
X18163142Y65015043D01*
X18163142Y65015043D02*
X18305999Y65086472D01*
X18305999Y65086472D02*
X18520285Y65086472D01*
X18520285Y65086472D02*
X18663142Y65015043D01*
X18663142Y65015043D02*
X18734571Y64872186D01*
X18734571Y64872186D02*
X18734571Y64086472D01*
X19448856Y65086472D02*
X19448856Y63800758D01*
X19448856Y63800758D02*
X19377428Y63657900D01*
X19377428Y63657900D02*
X19234571Y63586472D01*
X19234571Y63586472D02*
X19163142Y63586472D01*
X19448856Y65586472D02*
X19377428Y65515043D01*
X19377428Y65515043D02*
X19448856Y65443615D01*
X19448856Y65443615D02*
X19520285Y65515043D01*
X19520285Y65515043D02*
X19448856Y65586472D01*
X19448856Y65586472D02*
X19448856Y65443615D01*
X20163142Y64086472D02*
X20163142Y65086472D01*
X20163142Y65586472D02*
X20091714Y65515043D01*
X20091714Y65515043D02*
X20163142Y65443615D01*
X20163142Y65443615D02*
X20234571Y65515043D01*
X20234571Y65515043D02*
X20163142Y65586472D01*
X20163142Y65586472D02*
X20163142Y65443615D01*
X22877428Y64086472D02*
X22377428Y64800758D01*
X22020285Y64086472D02*
X22020285Y65586472D01*
X22020285Y65586472D02*
X22591714Y65586472D01*
X22591714Y65586472D02*
X22734571Y65515043D01*
X22734571Y65515043D02*
X22806000Y65443615D01*
X22806000Y65443615D02*
X22877428Y65300758D01*
X22877428Y65300758D02*
X22877428Y65086472D01*
X22877428Y65086472D02*
X22806000Y64943615D01*
X22806000Y64943615D02*
X22734571Y64872186D01*
X22734571Y64872186D02*
X22591714Y64800758D01*
X22591714Y64800758D02*
X22020285Y64800758D01*
X23806000Y65586472D02*
X24091714Y65586472D01*
X24091714Y65586472D02*
X24234571Y65515043D01*
X24234571Y65515043D02*
X24377428Y65372186D01*
X24377428Y65372186D02*
X24448857Y65086472D01*
X24448857Y65086472D02*
X24448857Y64586472D01*
X24448857Y64586472D02*
X24377428Y64300758D01*
X24377428Y64300758D02*
X24234571Y64157900D01*
X24234571Y64157900D02*
X24091714Y64086472D01*
X24091714Y64086472D02*
X23806000Y64086472D01*
X23806000Y64086472D02*
X23663143Y64157900D01*
X23663143Y64157900D02*
X23520285Y64300758D01*
X23520285Y64300758D02*
X23448857Y64586472D01*
X23448857Y64586472D02*
X23448857Y65086472D01*
X23448857Y65086472D02*
X23520285Y65372186D01*
X23520285Y65372186D02*
X23663143Y65515043D01*
X23663143Y65515043D02*
X23806000Y65586472D01*
X25091714Y64086472D02*
X25091714Y65586472D01*
X25091714Y65586472D02*
X25591714Y64515043D01*
X25591714Y64515043D02*
X26091714Y65586472D01*
X26091714Y65586472D02*
X26091714Y64086472D01*
X28806000Y64229329D02*
X28734572Y64157900D01*
X28734572Y64157900D02*
X28520286Y64086472D01*
X28520286Y64086472D02*
X28377429Y64086472D01*
X28377429Y64086472D02*
X28163143Y64157900D01*
X28163143Y64157900D02*
X28020286Y64300758D01*
X28020286Y64300758D02*
X27948857Y64443615D01*
X27948857Y64443615D02*
X27877429Y64729329D01*
X27877429Y64729329D02*
X27877429Y64943615D01*
X27877429Y64943615D02*
X27948857Y65229329D01*
X27948857Y65229329D02*
X28020286Y65372186D01*
X28020286Y65372186D02*
X28163143Y65515043D01*
X28163143Y65515043D02*
X28377429Y65586472D01*
X28377429Y65586472D02*
X28520286Y65586472D01*
X28520286Y65586472D02*
X28734572Y65515043D01*
X28734572Y65515043D02*
X28806000Y65443615D01*
X30091715Y64086472D02*
X30091715Y64872186D01*
X30091715Y64872186D02*
X30020286Y65015043D01*
X30020286Y65015043D02*
X29877429Y65086472D01*
X29877429Y65086472D02*
X29591715Y65086472D01*
X29591715Y65086472D02*
X29448857Y65015043D01*
X30091715Y64157900D02*
X29948857Y64086472D01*
X29948857Y64086472D02*
X29591715Y64086472D01*
X29591715Y64086472D02*
X29448857Y64157900D01*
X29448857Y64157900D02*
X29377429Y64300758D01*
X29377429Y64300758D02*
X29377429Y64443615D01*
X29377429Y64443615D02*
X29448857Y64586472D01*
X29448857Y64586472D02*
X29591715Y64657900D01*
X29591715Y64657900D02*
X29948857Y64657900D01*
X29948857Y64657900D02*
X30091715Y64729329D01*
X30806000Y64086472D02*
X30806000Y65086472D01*
X30806000Y64800758D02*
X30877429Y64943615D01*
X30877429Y64943615D02*
X30948858Y65015043D01*
X30948858Y65015043D02*
X31091715Y65086472D01*
X31091715Y65086472D02*
X31234572Y65086472D01*
X32377429Y64086472D02*
X32377429Y65586472D01*
X32377429Y64157900D02*
X32234571Y64086472D01*
X32234571Y64086472D02*
X31948857Y64086472D01*
X31948857Y64086472D02*
X31806000Y64157900D01*
X31806000Y64157900D02*
X31734571Y64229329D01*
X31734571Y64229329D02*
X31663143Y64372186D01*
X31663143Y64372186D02*
X31663143Y64800758D01*
X31663143Y64800758D02*
X31734571Y64943615D01*
X31734571Y64943615D02*
X31806000Y65015043D01*
X31806000Y65015043D02*
X31948857Y65086472D01*
X31948857Y65086472D02*
X32234571Y65086472D01*
X32234571Y65086472D02*
X32377429Y65015043D01*
X34020286Y65086472D02*
X34591714Y65086472D01*
X34234571Y64086472D02*
X34234571Y65372186D01*
X34234571Y65372186D02*
X34306000Y65515043D01*
X34306000Y65515043D02*
X34448857Y65586472D01*
X34448857Y65586472D02*
X34591714Y65586472D01*
X35306000Y64086472D02*
X35163143Y64157900D01*
X35163143Y64157900D02*
X35091714Y64229329D01*
X35091714Y64229329D02*
X35020286Y64372186D01*
X35020286Y64372186D02*
X35020286Y64800758D01*
X35020286Y64800758D02*
X35091714Y64943615D01*
X35091714Y64943615D02*
X35163143Y65015043D01*
X35163143Y65015043D02*
X35306000Y65086472D01*
X35306000Y65086472D02*
X35520286Y65086472D01*
X35520286Y65086472D02*
X35663143Y65015043D01*
X35663143Y65015043D02*
X35734572Y64943615D01*
X35734572Y64943615D02*
X35806000Y64800758D01*
X35806000Y64800758D02*
X35806000Y64372186D01*
X35806000Y64372186D02*
X35734572Y64229329D01*
X35734572Y64229329D02*
X35663143Y64157900D01*
X35663143Y64157900D02*
X35520286Y64086472D01*
X35520286Y64086472D02*
X35306000Y64086472D01*
X36448857Y64086472D02*
X36448857Y65086472D01*
X36448857Y64800758D02*
X36520286Y64943615D01*
X36520286Y64943615D02*
X36591715Y65015043D01*
X36591715Y65015043D02*
X36734572Y65086472D01*
X36734572Y65086472D02*
X36877429Y65086472D01*
X38520285Y64086472D02*
X38520285Y65586472D01*
X38520285Y64872186D02*
X39377428Y64872186D01*
X39377428Y64086472D02*
X39377428Y65586472D01*
X40091714Y64086472D02*
X40091714Y65586472D01*
X40591715Y65586472D02*
X41448858Y65586472D01*
X41020286Y64086472D02*
X41020286Y65586472D01*
X41877429Y64515043D02*
X42591715Y64515043D01*
X41734572Y64086472D02*
X42234572Y65586472D01*
X42234572Y65586472D02*
X42734572Y64086472D01*
X44091714Y64229329D02*
X44020286Y64157900D01*
X44020286Y64157900D02*
X43806000Y64086472D01*
X43806000Y64086472D02*
X43663143Y64086472D01*
X43663143Y64086472D02*
X43448857Y64157900D01*
X43448857Y64157900D02*
X43306000Y64300758D01*
X43306000Y64300758D02*
X43234571Y64443615D01*
X43234571Y64443615D02*
X43163143Y64729329D01*
X43163143Y64729329D02*
X43163143Y64943615D01*
X43163143Y64943615D02*
X43234571Y65229329D01*
X43234571Y65229329D02*
X43306000Y65372186D01*
X43306000Y65372186D02*
X43448857Y65515043D01*
X43448857Y65515043D02*
X43663143Y65586472D01*
X43663143Y65586472D02*
X43806000Y65586472D01*
X43806000Y65586472D02*
X44020286Y65515043D01*
X44020286Y65515043D02*
X44091714Y65443615D01*
X44734571Y64086472D02*
X44734571Y65586472D01*
X44734571Y64872186D02*
X45591714Y64872186D01*
X45591714Y64086472D02*
X45591714Y65586472D01*
X46306000Y64086472D02*
X46306000Y65586472D01*
X48163143Y64086472D02*
X48163143Y65586472D01*
X48163143Y65586472D02*
X48663143Y64515043D01*
X48663143Y64515043D02*
X49163143Y65586472D01*
X49163143Y65586472D02*
X49163143Y64086472D01*
X50377429Y64872186D02*
X50591715Y64800758D01*
X50591715Y64800758D02*
X50663144Y64729329D01*
X50663144Y64729329D02*
X50734572Y64586472D01*
X50734572Y64586472D02*
X50734572Y64372186D01*
X50734572Y64372186D02*
X50663144Y64229329D01*
X50663144Y64229329D02*
X50591715Y64157900D01*
X50591715Y64157900D02*
X50448858Y64086472D01*
X50448858Y64086472D02*
X49877429Y64086472D01*
X49877429Y64086472D02*
X49877429Y65586472D01*
X49877429Y65586472D02*
X50377429Y65586472D01*
X50377429Y65586472D02*
X50520287Y65515043D01*
X50520287Y65515043D02*
X50591715Y65443615D01*
X50591715Y65443615D02*
X50663144Y65300758D01*
X50663144Y65300758D02*
X50663144Y65157900D01*
X50663144Y65157900D02*
X50591715Y65015043D01*
X50591715Y65015043D02*
X50520287Y64943615D01*
X50520287Y64943615D02*
X50377429Y64872186D01*
X50377429Y64872186D02*
X49877429Y64872186D01*
X51377429Y64657900D02*
X52520287Y64657900D01*
X53163144Y64157900D02*
X53377430Y64086472D01*
X53377430Y64086472D02*
X53734572Y64086472D01*
X53734572Y64086472D02*
X53877430Y64157900D01*
X53877430Y64157900D02*
X53948858Y64229329D01*
X53948858Y64229329D02*
X54020287Y64372186D01*
X54020287Y64372186D02*
X54020287Y64515043D01*
X54020287Y64515043D02*
X53948858Y64657900D01*
X53948858Y64657900D02*
X53877430Y64729329D01*
X53877430Y64729329D02*
X53734572Y64800758D01*
X53734572Y64800758D02*
X53448858Y64872186D01*
X53448858Y64872186D02*
X53306001Y64943615D01*
X53306001Y64943615D02*
X53234572Y65015043D01*
X53234572Y65015043D02*
X53163144Y65157900D01*
X53163144Y65157900D02*
X53163144Y65300758D01*
X53163144Y65300758D02*
X53234572Y65443615D01*
X53234572Y65443615D02*
X53306001Y65515043D01*
X53306001Y65515043D02*
X53448858Y65586472D01*
X53448858Y65586472D02*
X53806001Y65586472D01*
X53806001Y65586472D02*
X54020287Y65515043D01*
X55448858Y64086472D02*
X54591715Y64086472D01*
X55020286Y64086472D02*
X55020286Y65586472D01*
X55020286Y65586472D02*
X54877429Y65372186D01*
X54877429Y65372186D02*
X54734572Y65229329D01*
X54734572Y65229329D02*
X54591715Y65157900D01*
D10*
X165754207Y12830181D02*
X165420874Y13306372D01*
X165182779Y12830181D02*
X165182779Y13830181D01*
X165182779Y13830181D02*
X165563731Y13830181D01*
X165563731Y13830181D02*
X165658969Y13782562D01*
X165658969Y13782562D02*
X165706588Y13734943D01*
X165706588Y13734943D02*
X165754207Y13639705D01*
X165754207Y13639705D02*
X165754207Y13496848D01*
X165754207Y13496848D02*
X165706588Y13401610D01*
X165706588Y13401610D02*
X165658969Y13353991D01*
X165658969Y13353991D02*
X165563731Y13306372D01*
X165563731Y13306372D02*
X165182779Y13306372D01*
X166563731Y12877800D02*
X166468493Y12830181D01*
X166468493Y12830181D02*
X166278017Y12830181D01*
X166278017Y12830181D02*
X166182779Y12877800D01*
X166182779Y12877800D02*
X166135160Y12973039D01*
X166135160Y12973039D02*
X166135160Y13353991D01*
X166135160Y13353991D02*
X166182779Y13449229D01*
X166182779Y13449229D02*
X166278017Y13496848D01*
X166278017Y13496848D02*
X166468493Y13496848D01*
X166468493Y13496848D02*
X166563731Y13449229D01*
X166563731Y13449229D02*
X166611350Y13353991D01*
X166611350Y13353991D02*
X166611350Y13258753D01*
X166611350Y13258753D02*
X166135160Y13163515D01*
X166944684Y13496848D02*
X167182779Y12830181D01*
X167182779Y12830181D02*
X167420874Y13496848D01*
X167801827Y12925420D02*
X167849446Y12877800D01*
X167849446Y12877800D02*
X167801827Y12830181D01*
X167801827Y12830181D02*
X167754208Y12877800D01*
X167754208Y12877800D02*
X167801827Y12925420D01*
X167801827Y12925420D02*
X167801827Y12830181D01*
X169230398Y13830181D02*
X169325636Y13830181D01*
X169325636Y13830181D02*
X169420874Y13782562D01*
X169420874Y13782562D02*
X169468493Y13734943D01*
X169468493Y13734943D02*
X169516112Y13639705D01*
X169516112Y13639705D02*
X169563731Y13449229D01*
X169563731Y13449229D02*
X169563731Y13211134D01*
X169563731Y13211134D02*
X169516112Y13020658D01*
X169516112Y13020658D02*
X169468493Y12925420D01*
X169468493Y12925420D02*
X169420874Y12877800D01*
X169420874Y12877800D02*
X169325636Y12830181D01*
X169325636Y12830181D02*
X169230398Y12830181D01*
X169230398Y12830181D02*
X169135160Y12877800D01*
X169135160Y12877800D02*
X169087541Y12925420D01*
X169087541Y12925420D02*
X169039922Y13020658D01*
X169039922Y13020658D02*
X168992303Y13211134D01*
X168992303Y13211134D02*
X168992303Y13449229D01*
X168992303Y13449229D02*
X169039922Y13639705D01*
X169039922Y13639705D02*
X169087541Y13734943D01*
X169087541Y13734943D02*
X169135160Y13782562D01*
X169135160Y13782562D02*
X169230398Y13830181D01*
X169992303Y12925420D02*
X170039922Y12877800D01*
X170039922Y12877800D02*
X169992303Y12830181D01*
X169992303Y12830181D02*
X169944684Y12877800D01*
X169944684Y12877800D02*
X169992303Y12925420D01*
X169992303Y12925420D02*
X169992303Y12830181D01*
X170420874Y13734943D02*
X170468493Y13782562D01*
X170468493Y13782562D02*
X170563731Y13830181D01*
X170563731Y13830181D02*
X170801826Y13830181D01*
X170801826Y13830181D02*
X170897064Y13782562D01*
X170897064Y13782562D02*
X170944683Y13734943D01*
X170944683Y13734943D02*
X170992302Y13639705D01*
X170992302Y13639705D02*
X170992302Y13544467D01*
X170992302Y13544467D02*
X170944683Y13401610D01*
X170944683Y13401610D02*
X170373255Y12830181D01*
X170373255Y12830181D02*
X170992302Y12830181D01*
X171420874Y12925420D02*
X171468493Y12877800D01*
X171468493Y12877800D02*
X171420874Y12830181D01*
X171420874Y12830181D02*
X171373255Y12877800D01*
X171373255Y12877800D02*
X171420874Y12925420D01*
X171420874Y12925420D02*
X171420874Y12830181D01*
X172420873Y12830181D02*
X171849445Y12830181D01*
X172135159Y12830181D02*
X172135159Y13830181D01*
X172135159Y13830181D02*
X172039921Y13687324D01*
X172039921Y13687324D02*
X171944683Y13592086D01*
X171944683Y13592086D02*
X171849445Y13544467D01*
X7199333Y42820420D02*
X7151714Y42772800D01*
X7151714Y42772800D02*
X7008857Y42725181D01*
X7008857Y42725181D02*
X6913619Y42725181D01*
X6913619Y42725181D02*
X6770762Y42772800D01*
X6770762Y42772800D02*
X6675524Y42868039D01*
X6675524Y42868039D02*
X6627905Y42963277D01*
X6627905Y42963277D02*
X6580286Y43153753D01*
X6580286Y43153753D02*
X6580286Y43296610D01*
X6580286Y43296610D02*
X6627905Y43487086D01*
X6627905Y43487086D02*
X6675524Y43582324D01*
X6675524Y43582324D02*
X6770762Y43677562D01*
X6770762Y43677562D02*
X6913619Y43725181D01*
X6913619Y43725181D02*
X7008857Y43725181D01*
X7008857Y43725181D02*
X7151714Y43677562D01*
X7151714Y43677562D02*
X7199333Y43629943D01*
X7532667Y43725181D02*
X8151714Y43725181D01*
X8151714Y43725181D02*
X7818381Y43344229D01*
X7818381Y43344229D02*
X7961238Y43344229D01*
X7961238Y43344229D02*
X8056476Y43296610D01*
X8056476Y43296610D02*
X8104095Y43248991D01*
X8104095Y43248991D02*
X8151714Y43153753D01*
X8151714Y43153753D02*
X8151714Y42915658D01*
X8151714Y42915658D02*
X8104095Y42820420D01*
X8104095Y42820420D02*
X8056476Y42772800D01*
X8056476Y42772800D02*
X7961238Y42725181D01*
X7961238Y42725181D02*
X7675524Y42725181D01*
X7675524Y42725181D02*
X7580286Y42772800D01*
X7580286Y42772800D02*
X7532667Y42820420D01*
X143089333Y64315181D02*
X142756000Y64791372D01*
X142517905Y64315181D02*
X142517905Y65315181D01*
X142517905Y65315181D02*
X142898857Y65315181D01*
X142898857Y65315181D02*
X142994095Y65267562D01*
X142994095Y65267562D02*
X143041714Y65219943D01*
X143041714Y65219943D02*
X143089333Y65124705D01*
X143089333Y65124705D02*
X143089333Y64981848D01*
X143089333Y64981848D02*
X143041714Y64886610D01*
X143041714Y64886610D02*
X142994095Y64838991D01*
X142994095Y64838991D02*
X142898857Y64791372D01*
X142898857Y64791372D02*
X142517905Y64791372D01*
X143470286Y65219943D02*
X143517905Y65267562D01*
X143517905Y65267562D02*
X143613143Y65315181D01*
X143613143Y65315181D02*
X143851238Y65315181D01*
X143851238Y65315181D02*
X143946476Y65267562D01*
X143946476Y65267562D02*
X143994095Y65219943D01*
X143994095Y65219943D02*
X144041714Y65124705D01*
X144041714Y65124705D02*
X144041714Y65029467D01*
X144041714Y65029467D02*
X143994095Y64886610D01*
X143994095Y64886610D02*
X143422667Y64315181D01*
X143422667Y64315181D02*
X144041714Y64315181D01*
X147534333Y30660181D02*
X147201000Y31136372D01*
X146962905Y30660181D02*
X146962905Y31660181D01*
X146962905Y31660181D02*
X147343857Y31660181D01*
X147343857Y31660181D02*
X147439095Y31612562D01*
X147439095Y31612562D02*
X147486714Y31564943D01*
X147486714Y31564943D02*
X147534333Y31469705D01*
X147534333Y31469705D02*
X147534333Y31326848D01*
X147534333Y31326848D02*
X147486714Y31231610D01*
X147486714Y31231610D02*
X147439095Y31183991D01*
X147439095Y31183991D02*
X147343857Y31136372D01*
X147343857Y31136372D02*
X146962905Y31136372D01*
X148010524Y30660181D02*
X148201000Y30660181D01*
X148201000Y30660181D02*
X148296238Y30707800D01*
X148296238Y30707800D02*
X148343857Y30755420D01*
X148343857Y30755420D02*
X148439095Y30898277D01*
X148439095Y30898277D02*
X148486714Y31088753D01*
X148486714Y31088753D02*
X148486714Y31469705D01*
X148486714Y31469705D02*
X148439095Y31564943D01*
X148439095Y31564943D02*
X148391476Y31612562D01*
X148391476Y31612562D02*
X148296238Y31660181D01*
X148296238Y31660181D02*
X148105762Y31660181D01*
X148105762Y31660181D02*
X148010524Y31612562D01*
X148010524Y31612562D02*
X147962905Y31564943D01*
X147962905Y31564943D02*
X147915286Y31469705D01*
X147915286Y31469705D02*
X147915286Y31231610D01*
X147915286Y31231610D02*
X147962905Y31136372D01*
X147962905Y31136372D02*
X148010524Y31088753D01*
X148010524Y31088753D02*
X148105762Y31041134D01*
X148105762Y31041134D02*
X148296238Y31041134D01*
X148296238Y31041134D02*
X148391476Y31088753D01*
X148391476Y31088753D02*
X148439095Y31136372D01*
X148439095Y31136372D02*
X148486714Y31231610D01*
X171188142Y26215181D02*
X170854809Y26691372D01*
X170616714Y26215181D02*
X170616714Y27215181D01*
X170616714Y27215181D02*
X170997666Y27215181D01*
X170997666Y27215181D02*
X171092904Y27167562D01*
X171092904Y27167562D02*
X171140523Y27119943D01*
X171140523Y27119943D02*
X171188142Y27024705D01*
X171188142Y27024705D02*
X171188142Y26881848D01*
X171188142Y26881848D02*
X171140523Y26786610D01*
X171140523Y26786610D02*
X171092904Y26738991D01*
X171092904Y26738991D02*
X170997666Y26691372D01*
X170997666Y26691372D02*
X170616714Y26691372D01*
X171569095Y27119943D02*
X171616714Y27167562D01*
X171616714Y27167562D02*
X171711952Y27215181D01*
X171711952Y27215181D02*
X171950047Y27215181D01*
X171950047Y27215181D02*
X172045285Y27167562D01*
X172045285Y27167562D02*
X172092904Y27119943D01*
X172092904Y27119943D02*
X172140523Y27024705D01*
X172140523Y27024705D02*
X172140523Y26929467D01*
X172140523Y26929467D02*
X172092904Y26786610D01*
X172092904Y26786610D02*
X171521476Y26215181D01*
X171521476Y26215181D02*
X172140523Y26215181D01*
X173092904Y26215181D02*
X172521476Y26215181D01*
X172807190Y26215181D02*
X172807190Y27215181D01*
X172807190Y27215181D02*
X172711952Y27072324D01*
X172711952Y27072324D02*
X172616714Y26977086D01*
X172616714Y26977086D02*
X172521476Y26929467D01*
X161544095Y58330181D02*
X161544095Y57520658D01*
X161544095Y57520658D02*
X161591714Y57425420D01*
X161591714Y57425420D02*
X161639333Y57377800D01*
X161639333Y57377800D02*
X161734571Y57330181D01*
X161734571Y57330181D02*
X161925047Y57330181D01*
X161925047Y57330181D02*
X162020285Y57377800D01*
X162020285Y57377800D02*
X162067904Y57425420D01*
X162067904Y57425420D02*
X162115523Y57520658D01*
X162115523Y57520658D02*
X162115523Y58330181D01*
X162734571Y57901610D02*
X162639333Y57949229D01*
X162639333Y57949229D02*
X162591714Y57996848D01*
X162591714Y57996848D02*
X162544095Y58092086D01*
X162544095Y58092086D02*
X162544095Y58139705D01*
X162544095Y58139705D02*
X162591714Y58234943D01*
X162591714Y58234943D02*
X162639333Y58282562D01*
X162639333Y58282562D02*
X162734571Y58330181D01*
X162734571Y58330181D02*
X162925047Y58330181D01*
X162925047Y58330181D02*
X163020285Y58282562D01*
X163020285Y58282562D02*
X163067904Y58234943D01*
X163067904Y58234943D02*
X163115523Y58139705D01*
X163115523Y58139705D02*
X163115523Y58092086D01*
X163115523Y58092086D02*
X163067904Y57996848D01*
X163067904Y57996848D02*
X163020285Y57949229D01*
X163020285Y57949229D02*
X162925047Y57901610D01*
X162925047Y57901610D02*
X162734571Y57901610D01*
X162734571Y57901610D02*
X162639333Y57853991D01*
X162639333Y57853991D02*
X162591714Y57806372D01*
X162591714Y57806372D02*
X162544095Y57711134D01*
X162544095Y57711134D02*
X162544095Y57520658D01*
X162544095Y57520658D02*
X162591714Y57425420D01*
X162591714Y57425420D02*
X162639333Y57377800D01*
X162639333Y57377800D02*
X162734571Y57330181D01*
X162734571Y57330181D02*
X162925047Y57330181D01*
X162925047Y57330181D02*
X163020285Y57377800D01*
X163020285Y57377800D02*
X163067904Y57425420D01*
X163067904Y57425420D02*
X163115523Y57520658D01*
X163115523Y57520658D02*
X163115523Y57711134D01*
X163115523Y57711134D02*
X163067904Y57806372D01*
X163067904Y57806372D02*
X163020285Y57853991D01*
X163020285Y57853991D02*
X162925047Y57901610D01*
X165870286Y51980181D02*
X166536952Y51980181D01*
X166536952Y51980181D02*
X166108381Y50980181D01*
X167346476Y51646848D02*
X167346476Y50980181D01*
X167108381Y52027800D02*
X166870286Y51313515D01*
X166870286Y51313515D02*
X167489333Y51313515D01*
X167870286Y50980181D02*
X167870286Y51980181D01*
X167870286Y51503991D02*
X168441714Y51503991D01*
X168441714Y50980181D02*
X168441714Y51980181D01*
X169489333Y51075420D02*
X169441714Y51027800D01*
X169441714Y51027800D02*
X169298857Y50980181D01*
X169298857Y50980181D02*
X169203619Y50980181D01*
X169203619Y50980181D02*
X169060762Y51027800D01*
X169060762Y51027800D02*
X168965524Y51123039D01*
X168965524Y51123039D02*
X168917905Y51218277D01*
X168917905Y51218277D02*
X168870286Y51408753D01*
X168870286Y51408753D02*
X168870286Y51551610D01*
X168870286Y51551610D02*
X168917905Y51742086D01*
X168917905Y51742086D02*
X168965524Y51837324D01*
X168965524Y51837324D02*
X169060762Y51932562D01*
X169060762Y51932562D02*
X169203619Y51980181D01*
X169203619Y51980181D02*
X169298857Y51980181D01*
X169298857Y51980181D02*
X169441714Y51932562D01*
X169441714Y51932562D02*
X169489333Y51884943D01*
X170108381Y51980181D02*
X170203619Y51980181D01*
X170203619Y51980181D02*
X170298857Y51932562D01*
X170298857Y51932562D02*
X170346476Y51884943D01*
X170346476Y51884943D02*
X170394095Y51789705D01*
X170394095Y51789705D02*
X170441714Y51599229D01*
X170441714Y51599229D02*
X170441714Y51361134D01*
X170441714Y51361134D02*
X170394095Y51170658D01*
X170394095Y51170658D02*
X170346476Y51075420D01*
X170346476Y51075420D02*
X170298857Y51027800D01*
X170298857Y51027800D02*
X170203619Y50980181D01*
X170203619Y50980181D02*
X170108381Y50980181D01*
X170108381Y50980181D02*
X170013143Y51027800D01*
X170013143Y51027800D02*
X169965524Y51075420D01*
X169965524Y51075420D02*
X169917905Y51170658D01*
X169917905Y51170658D02*
X169870286Y51361134D01*
X169870286Y51361134D02*
X169870286Y51599229D01*
X169870286Y51599229D02*
X169917905Y51789705D01*
X169917905Y51789705D02*
X169965524Y51884943D01*
X169965524Y51884943D02*
X170013143Y51932562D01*
X170013143Y51932562D02*
X170108381Y51980181D01*
X170822667Y51884943D02*
X170870286Y51932562D01*
X170870286Y51932562D02*
X170965524Y51980181D01*
X170965524Y51980181D02*
X171203619Y51980181D01*
X171203619Y51980181D02*
X171298857Y51932562D01*
X171298857Y51932562D02*
X171346476Y51884943D01*
X171346476Y51884943D02*
X171394095Y51789705D01*
X171394095Y51789705D02*
X171394095Y51694467D01*
X171394095Y51694467D02*
X171346476Y51551610D01*
X171346476Y51551610D02*
X170775048Y50980181D01*
X170775048Y50980181D02*
X171394095Y50980181D01*
X70064333Y41550420D02*
X70016714Y41502800D01*
X70016714Y41502800D02*
X69873857Y41455181D01*
X69873857Y41455181D02*
X69778619Y41455181D01*
X69778619Y41455181D02*
X69635762Y41502800D01*
X69635762Y41502800D02*
X69540524Y41598039D01*
X69540524Y41598039D02*
X69492905Y41693277D01*
X69492905Y41693277D02*
X69445286Y41883753D01*
X69445286Y41883753D02*
X69445286Y42026610D01*
X69445286Y42026610D02*
X69492905Y42217086D01*
X69492905Y42217086D02*
X69540524Y42312324D01*
X69540524Y42312324D02*
X69635762Y42407562D01*
X69635762Y42407562D02*
X69778619Y42455181D01*
X69778619Y42455181D02*
X69873857Y42455181D01*
X69873857Y42455181D02*
X70016714Y42407562D01*
X70016714Y42407562D02*
X70064333Y42359943D01*
X70969095Y42455181D02*
X70492905Y42455181D01*
X70492905Y42455181D02*
X70445286Y41978991D01*
X70445286Y41978991D02*
X70492905Y42026610D01*
X70492905Y42026610D02*
X70588143Y42074229D01*
X70588143Y42074229D02*
X70826238Y42074229D01*
X70826238Y42074229D02*
X70921476Y42026610D01*
X70921476Y42026610D02*
X70969095Y41978991D01*
X70969095Y41978991D02*
X71016714Y41883753D01*
X71016714Y41883753D02*
X71016714Y41645658D01*
X71016714Y41645658D02*
X70969095Y41550420D01*
X70969095Y41550420D02*
X70921476Y41502800D01*
X70921476Y41502800D02*
X70826238Y41455181D01*
X70826238Y41455181D02*
X70588143Y41455181D01*
X70588143Y41455181D02*
X70492905Y41502800D01*
X70492905Y41502800D02*
X70445286Y41550420D01*
X70104095Y65315181D02*
X70104095Y64505658D01*
X70104095Y64505658D02*
X70151714Y64410420D01*
X70151714Y64410420D02*
X70199333Y64362800D01*
X70199333Y64362800D02*
X70294571Y64315181D01*
X70294571Y64315181D02*
X70485047Y64315181D01*
X70485047Y64315181D02*
X70580285Y64362800D01*
X70580285Y64362800D02*
X70627904Y64410420D01*
X70627904Y64410420D02*
X70675523Y64505658D01*
X70675523Y64505658D02*
X70675523Y65315181D01*
X71675523Y64315181D02*
X71104095Y64315181D01*
X71389809Y64315181D02*
X71389809Y65315181D01*
X71389809Y65315181D02*
X71294571Y65172324D01*
X71294571Y65172324D02*
X71199333Y65077086D01*
X71199333Y65077086D02*
X71104095Y65029467D01*
X84217428Y54202800D02*
X84360285Y54155181D01*
X84360285Y54155181D02*
X84598380Y54155181D01*
X84598380Y54155181D02*
X84693618Y54202800D01*
X84693618Y54202800D02*
X84741237Y54250420D01*
X84741237Y54250420D02*
X84788856Y54345658D01*
X84788856Y54345658D02*
X84788856Y54440896D01*
X84788856Y54440896D02*
X84741237Y54536134D01*
X84741237Y54536134D02*
X84693618Y54583753D01*
X84693618Y54583753D02*
X84598380Y54631372D01*
X84598380Y54631372D02*
X84407904Y54678991D01*
X84407904Y54678991D02*
X84312666Y54726610D01*
X84312666Y54726610D02*
X84265047Y54774229D01*
X84265047Y54774229D02*
X84217428Y54869467D01*
X84217428Y54869467D02*
X84217428Y54964705D01*
X84217428Y54964705D02*
X84265047Y55059943D01*
X84265047Y55059943D02*
X84312666Y55107562D01*
X84312666Y55107562D02*
X84407904Y55155181D01*
X84407904Y55155181D02*
X84645999Y55155181D01*
X84645999Y55155181D02*
X84788856Y55107562D01*
X85169809Y54202800D02*
X85312666Y54155181D01*
X85312666Y54155181D02*
X85550761Y54155181D01*
X85550761Y54155181D02*
X85645999Y54202800D01*
X85645999Y54202800D02*
X85693618Y54250420D01*
X85693618Y54250420D02*
X85741237Y54345658D01*
X85741237Y54345658D02*
X85741237Y54440896D01*
X85741237Y54440896D02*
X85693618Y54536134D01*
X85693618Y54536134D02*
X85645999Y54583753D01*
X85645999Y54583753D02*
X85550761Y54631372D01*
X85550761Y54631372D02*
X85360285Y54678991D01*
X85360285Y54678991D02*
X85265047Y54726610D01*
X85265047Y54726610D02*
X85217428Y54774229D01*
X85217428Y54774229D02*
X85169809Y54869467D01*
X85169809Y54869467D02*
X85169809Y54964705D01*
X85169809Y54964705D02*
X85217428Y55059943D01*
X85217428Y55059943D02*
X85265047Y55107562D01*
X85265047Y55107562D02*
X85360285Y55155181D01*
X85360285Y55155181D02*
X85598380Y55155181D01*
X85598380Y55155181D02*
X85741237Y55107562D01*
X86026952Y55155181D02*
X86598380Y55155181D01*
X86312666Y54155181D02*
X86312666Y55155181D01*
X86836476Y55155181D02*
X87455523Y55155181D01*
X87455523Y55155181D02*
X87122190Y54774229D01*
X87122190Y54774229D02*
X87265047Y54774229D01*
X87265047Y54774229D02*
X87360285Y54726610D01*
X87360285Y54726610D02*
X87407904Y54678991D01*
X87407904Y54678991D02*
X87455523Y54583753D01*
X87455523Y54583753D02*
X87455523Y54345658D01*
X87455523Y54345658D02*
X87407904Y54250420D01*
X87407904Y54250420D02*
X87360285Y54202800D01*
X87360285Y54202800D02*
X87265047Y54155181D01*
X87265047Y54155181D02*
X86979333Y54155181D01*
X86979333Y54155181D02*
X86884095Y54202800D01*
X86884095Y54202800D02*
X86836476Y54250420D01*
X87931714Y54155181D02*
X88122190Y54155181D01*
X88122190Y54155181D02*
X88217428Y54202800D01*
X88217428Y54202800D02*
X88265047Y54250420D01*
X88265047Y54250420D02*
X88360285Y54393277D01*
X88360285Y54393277D02*
X88407904Y54583753D01*
X88407904Y54583753D02*
X88407904Y54964705D01*
X88407904Y54964705D02*
X88360285Y55059943D01*
X88360285Y55059943D02*
X88312666Y55107562D01*
X88312666Y55107562D02*
X88217428Y55155181D01*
X88217428Y55155181D02*
X88026952Y55155181D01*
X88026952Y55155181D02*
X87931714Y55107562D01*
X87931714Y55107562D02*
X87884095Y55059943D01*
X87884095Y55059943D02*
X87836476Y54964705D01*
X87836476Y54964705D02*
X87836476Y54726610D01*
X87836476Y54726610D02*
X87884095Y54631372D01*
X87884095Y54631372D02*
X87931714Y54583753D01*
X87931714Y54583753D02*
X88026952Y54536134D01*
X88026952Y54536134D02*
X88217428Y54536134D01*
X88217428Y54536134D02*
X88312666Y54583753D01*
X88312666Y54583753D02*
X88360285Y54631372D01*
X88360285Y54631372D02*
X88407904Y54726610D01*
X88788857Y54202800D02*
X88931714Y54155181D01*
X88931714Y54155181D02*
X89169809Y54155181D01*
X89169809Y54155181D02*
X89265047Y54202800D01*
X89265047Y54202800D02*
X89312666Y54250420D01*
X89312666Y54250420D02*
X89360285Y54345658D01*
X89360285Y54345658D02*
X89360285Y54440896D01*
X89360285Y54440896D02*
X89312666Y54536134D01*
X89312666Y54536134D02*
X89265047Y54583753D01*
X89265047Y54583753D02*
X89169809Y54631372D01*
X89169809Y54631372D02*
X88979333Y54678991D01*
X88979333Y54678991D02*
X88884095Y54726610D01*
X88884095Y54726610D02*
X88836476Y54774229D01*
X88836476Y54774229D02*
X88788857Y54869467D01*
X88788857Y54869467D02*
X88788857Y54964705D01*
X88788857Y54964705D02*
X88836476Y55059943D01*
X88836476Y55059943D02*
X88884095Y55107562D01*
X88884095Y55107562D02*
X88979333Y55155181D01*
X88979333Y55155181D02*
X89217428Y55155181D01*
X89217428Y55155181D02*
X89360285Y55107562D01*
X90122190Y54678991D02*
X89788857Y54678991D01*
X89788857Y54155181D02*
X89788857Y55155181D01*
X89788857Y55155181D02*
X90265047Y55155181D01*
X90836476Y55155181D02*
X90931714Y55155181D01*
X90931714Y55155181D02*
X91026952Y55107562D01*
X91026952Y55107562D02*
X91074571Y55059943D01*
X91074571Y55059943D02*
X91122190Y54964705D01*
X91122190Y54964705D02*
X91169809Y54774229D01*
X91169809Y54774229D02*
X91169809Y54536134D01*
X91169809Y54536134D02*
X91122190Y54345658D01*
X91122190Y54345658D02*
X91074571Y54250420D01*
X91074571Y54250420D02*
X91026952Y54202800D01*
X91026952Y54202800D02*
X90931714Y54155181D01*
X90931714Y54155181D02*
X90836476Y54155181D01*
X90836476Y54155181D02*
X90741238Y54202800D01*
X90741238Y54202800D02*
X90693619Y54250420D01*
X90693619Y54250420D02*
X90646000Y54345658D01*
X90646000Y54345658D02*
X90598381Y54536134D01*
X90598381Y54536134D02*
X90598381Y54774229D01*
X90598381Y54774229D02*
X90646000Y54964705D01*
X90646000Y54964705D02*
X90693619Y55059943D01*
X90693619Y55059943D02*
X90741238Y55107562D01*
X90741238Y55107562D02*
X90836476Y55155181D01*
X92026952Y54821848D02*
X92026952Y54155181D01*
X91788857Y55202800D02*
X91550762Y54488515D01*
X91550762Y54488515D02*
X92169809Y54488515D01*
X92741238Y55155181D02*
X92836476Y55155181D01*
X92836476Y55155181D02*
X92931714Y55107562D01*
X92931714Y55107562D02*
X92979333Y55059943D01*
X92979333Y55059943D02*
X93026952Y54964705D01*
X93026952Y54964705D02*
X93074571Y54774229D01*
X93074571Y54774229D02*
X93074571Y54536134D01*
X93074571Y54536134D02*
X93026952Y54345658D01*
X93026952Y54345658D02*
X92979333Y54250420D01*
X92979333Y54250420D02*
X92931714Y54202800D01*
X92931714Y54202800D02*
X92836476Y54155181D01*
X92836476Y54155181D02*
X92741238Y54155181D01*
X92741238Y54155181D02*
X92646000Y54202800D01*
X92646000Y54202800D02*
X92598381Y54250420D01*
X92598381Y54250420D02*
X92550762Y54345658D01*
X92550762Y54345658D02*
X92503143Y54536134D01*
X92503143Y54536134D02*
X92503143Y54774229D01*
X92503143Y54774229D02*
X92550762Y54964705D01*
X92550762Y54964705D02*
X92598381Y55059943D01*
X92598381Y55059943D02*
X92646000Y55107562D01*
X92646000Y55107562D02*
X92741238Y55155181D01*
X59269333Y64965181D02*
X58936000Y65441372D01*
X58697905Y64965181D02*
X58697905Y65965181D01*
X58697905Y65965181D02*
X59078857Y65965181D01*
X59078857Y65965181D02*
X59174095Y65917562D01*
X59174095Y65917562D02*
X59221714Y65869943D01*
X59221714Y65869943D02*
X59269333Y65774705D01*
X59269333Y65774705D02*
X59269333Y65631848D01*
X59269333Y65631848D02*
X59221714Y65536610D01*
X59221714Y65536610D02*
X59174095Y65488991D01*
X59174095Y65488991D02*
X59078857Y65441372D01*
X59078857Y65441372D02*
X58697905Y65441372D01*
X60221714Y64965181D02*
X59650286Y64965181D01*
X59936000Y64965181D02*
X59936000Y65965181D01*
X59936000Y65965181D02*
X59840762Y65822324D01*
X59840762Y65822324D02*
X59745524Y65727086D01*
X59745524Y65727086D02*
X59650286Y65679467D01*
X43553142Y27580420D02*
X43505523Y27532800D01*
X43505523Y27532800D02*
X43362666Y27485181D01*
X43362666Y27485181D02*
X43267428Y27485181D01*
X43267428Y27485181D02*
X43124571Y27532800D01*
X43124571Y27532800D02*
X43029333Y27628039D01*
X43029333Y27628039D02*
X42981714Y27723277D01*
X42981714Y27723277D02*
X42934095Y27913753D01*
X42934095Y27913753D02*
X42934095Y28056610D01*
X42934095Y28056610D02*
X42981714Y28247086D01*
X42981714Y28247086D02*
X43029333Y28342324D01*
X43029333Y28342324D02*
X43124571Y28437562D01*
X43124571Y28437562D02*
X43267428Y28485181D01*
X43267428Y28485181D02*
X43362666Y28485181D01*
X43362666Y28485181D02*
X43505523Y28437562D01*
X43505523Y28437562D02*
X43553142Y28389943D01*
X44505523Y27485181D02*
X43934095Y27485181D01*
X44219809Y27485181D02*
X44219809Y28485181D01*
X44219809Y28485181D02*
X44124571Y28342324D01*
X44124571Y28342324D02*
X44029333Y28247086D01*
X44029333Y28247086D02*
X43934095Y28199467D01*
X45124571Y28485181D02*
X45219809Y28485181D01*
X45219809Y28485181D02*
X45315047Y28437562D01*
X45315047Y28437562D02*
X45362666Y28389943D01*
X45362666Y28389943D02*
X45410285Y28294705D01*
X45410285Y28294705D02*
X45457904Y28104229D01*
X45457904Y28104229D02*
X45457904Y27866134D01*
X45457904Y27866134D02*
X45410285Y27675658D01*
X45410285Y27675658D02*
X45362666Y27580420D01*
X45362666Y27580420D02*
X45315047Y27532800D01*
X45315047Y27532800D02*
X45219809Y27485181D01*
X45219809Y27485181D02*
X45124571Y27485181D01*
X45124571Y27485181D02*
X45029333Y27532800D01*
X45029333Y27532800D02*
X44981714Y27580420D01*
X44981714Y27580420D02*
X44934095Y27675658D01*
X44934095Y27675658D02*
X44886476Y27866134D01*
X44886476Y27866134D02*
X44886476Y28104229D01*
X44886476Y28104229D02*
X44934095Y28294705D01*
X44934095Y28294705D02*
X44981714Y28389943D01*
X44981714Y28389943D02*
X45029333Y28437562D01*
X45029333Y28437562D02*
X45124571Y28485181D01*
X173093142Y64315181D02*
X172759809Y64791372D01*
X172521714Y64315181D02*
X172521714Y65315181D01*
X172521714Y65315181D02*
X172902666Y65315181D01*
X172902666Y65315181D02*
X172997904Y65267562D01*
X172997904Y65267562D02*
X173045523Y65219943D01*
X173045523Y65219943D02*
X173093142Y65124705D01*
X173093142Y65124705D02*
X173093142Y64981848D01*
X173093142Y64981848D02*
X173045523Y64886610D01*
X173045523Y64886610D02*
X172997904Y64838991D01*
X172997904Y64838991D02*
X172902666Y64791372D01*
X172902666Y64791372D02*
X172521714Y64791372D01*
X173474095Y65219943D02*
X173521714Y65267562D01*
X173521714Y65267562D02*
X173616952Y65315181D01*
X173616952Y65315181D02*
X173855047Y65315181D01*
X173855047Y65315181D02*
X173950285Y65267562D01*
X173950285Y65267562D02*
X173997904Y65219943D01*
X173997904Y65219943D02*
X174045523Y65124705D01*
X174045523Y65124705D02*
X174045523Y65029467D01*
X174045523Y65029467D02*
X173997904Y64886610D01*
X173997904Y64886610D02*
X173426476Y64315181D01*
X173426476Y64315181D02*
X174045523Y64315181D01*
X174378857Y65315181D02*
X174997904Y65315181D01*
X174997904Y65315181D02*
X174664571Y64934229D01*
X174664571Y64934229D02*
X174807428Y64934229D01*
X174807428Y64934229D02*
X174902666Y64886610D01*
X174902666Y64886610D02*
X174950285Y64838991D01*
X174950285Y64838991D02*
X174997904Y64743753D01*
X174997904Y64743753D02*
X174997904Y64505658D01*
X174997904Y64505658D02*
X174950285Y64410420D01*
X174950285Y64410420D02*
X174902666Y64362800D01*
X174902666Y64362800D02*
X174807428Y64315181D01*
X174807428Y64315181D02*
X174521714Y64315181D01*
X174521714Y64315181D02*
X174426476Y64362800D01*
X174426476Y64362800D02*
X174378857Y64410420D01*
X103124095Y43914801D02*
X103124095Y43105278D01*
X103124095Y43105278D02*
X103171714Y43010040D01*
X103171714Y43010040D02*
X103219333Y42962420D01*
X103219333Y42962420D02*
X103314571Y42914801D01*
X103314571Y42914801D02*
X103505047Y42914801D01*
X103505047Y42914801D02*
X103600285Y42962420D01*
X103600285Y42962420D02*
X103647904Y43010040D01*
X103647904Y43010040D02*
X103695523Y43105278D01*
X103695523Y43105278D02*
X103695523Y43914801D01*
X104219333Y42914801D02*
X104409809Y42914801D01*
X104409809Y42914801D02*
X104505047Y42962420D01*
X104505047Y42962420D02*
X104552666Y43010040D01*
X104552666Y43010040D02*
X104647904Y43152897D01*
X104647904Y43152897D02*
X104695523Y43343373D01*
X104695523Y43343373D02*
X104695523Y43724325D01*
X104695523Y43724325D02*
X104647904Y43819563D01*
X104647904Y43819563D02*
X104600285Y43867182D01*
X104600285Y43867182D02*
X104505047Y43914801D01*
X104505047Y43914801D02*
X104314571Y43914801D01*
X104314571Y43914801D02*
X104219333Y43867182D01*
X104219333Y43867182D02*
X104171714Y43819563D01*
X104171714Y43819563D02*
X104124095Y43724325D01*
X104124095Y43724325D02*
X104124095Y43486230D01*
X104124095Y43486230D02*
X104171714Y43390992D01*
X104171714Y43390992D02*
X104219333Y43343373D01*
X104219333Y43343373D02*
X104314571Y43295754D01*
X104314571Y43295754D02*
X104505047Y43295754D01*
X104505047Y43295754D02*
X104600285Y43343373D01*
X104600285Y43343373D02*
X104647904Y43390992D01*
X104647904Y43390992D02*
X104695523Y43486230D01*
X109268936Y37931502D02*
X109935602Y37931502D01*
X109935602Y37931502D02*
X109507031Y36931502D01*
X110745126Y37598169D02*
X110745126Y36931502D01*
X110507031Y37979121D02*
X110268936Y37264836D01*
X110268936Y37264836D02*
X110887983Y37264836D01*
X111268936Y36931502D02*
X111268936Y37931502D01*
X111268936Y37455312D02*
X111840364Y37455312D01*
X111840364Y36931502D02*
X111840364Y37931502D01*
X112887983Y37026741D02*
X112840364Y36979121D01*
X112840364Y36979121D02*
X112697507Y36931502D01*
X112697507Y36931502D02*
X112602269Y36931502D01*
X112602269Y36931502D02*
X112459412Y36979121D01*
X112459412Y36979121D02*
X112364174Y37074360D01*
X112364174Y37074360D02*
X112316555Y37169598D01*
X112316555Y37169598D02*
X112268936Y37360074D01*
X112268936Y37360074D02*
X112268936Y37502931D01*
X112268936Y37502931D02*
X112316555Y37693407D01*
X112316555Y37693407D02*
X112364174Y37788645D01*
X112364174Y37788645D02*
X112459412Y37883883D01*
X112459412Y37883883D02*
X112602269Y37931502D01*
X112602269Y37931502D02*
X112697507Y37931502D01*
X112697507Y37931502D02*
X112840364Y37883883D01*
X112840364Y37883883D02*
X112887983Y37836264D01*
X113268936Y37836264D02*
X113316555Y37883883D01*
X113316555Y37883883D02*
X113411793Y37931502D01*
X113411793Y37931502D02*
X113649888Y37931502D01*
X113649888Y37931502D02*
X113745126Y37883883D01*
X113745126Y37883883D02*
X113792745Y37836264D01*
X113792745Y37836264D02*
X113840364Y37741026D01*
X113840364Y37741026D02*
X113840364Y37645788D01*
X113840364Y37645788D02*
X113792745Y37502931D01*
X113792745Y37502931D02*
X113221317Y36931502D01*
X113221317Y36931502D02*
X113840364Y36931502D01*
X114697507Y37598169D02*
X114697507Y36931502D01*
X114459412Y37979121D02*
X114221317Y37264836D01*
X114221317Y37264836D02*
X114840364Y37264836D01*
X115649888Y37598169D02*
X115649888Y36931502D01*
X115411793Y37979121D02*
X115173698Y37264836D01*
X115173698Y37264836D02*
X115792745Y37264836D01*
X42933374Y63130877D02*
X42933374Y62321354D01*
X42933374Y62321354D02*
X42980993Y62226116D01*
X42980993Y62226116D02*
X43028612Y62178496D01*
X43028612Y62178496D02*
X43123850Y62130877D01*
X43123850Y62130877D02*
X43314326Y62130877D01*
X43314326Y62130877D02*
X43409564Y62178496D01*
X43409564Y62178496D02*
X43457183Y62226116D01*
X43457183Y62226116D02*
X43504802Y62321354D01*
X43504802Y62321354D02*
X43504802Y63130877D01*
X44504802Y62130877D02*
X43933374Y62130877D01*
X44219088Y62130877D02*
X44219088Y63130877D01*
X44219088Y63130877D02*
X44123850Y62988020D01*
X44123850Y62988020D02*
X44028612Y62892782D01*
X44028612Y62892782D02*
X43933374Y62845163D01*
X44838136Y63130877D02*
X45504802Y63130877D01*
X45504802Y63130877D02*
X45076231Y62130877D01*
X48554095Y57060181D02*
X49220761Y57060181D01*
X49220761Y57060181D02*
X48792190Y56060181D01*
X50030285Y56726848D02*
X50030285Y56060181D01*
X49792190Y57107800D02*
X49554095Y56393515D01*
X49554095Y56393515D02*
X50173142Y56393515D01*
X50554095Y56060181D02*
X50554095Y57060181D01*
X50554095Y56583991D02*
X51125523Y56583991D01*
X51125523Y56060181D02*
X51125523Y57060181D01*
X52173142Y56155420D02*
X52125523Y56107800D01*
X52125523Y56107800D02*
X51982666Y56060181D01*
X51982666Y56060181D02*
X51887428Y56060181D01*
X51887428Y56060181D02*
X51744571Y56107800D01*
X51744571Y56107800D02*
X51649333Y56203039D01*
X51649333Y56203039D02*
X51601714Y56298277D01*
X51601714Y56298277D02*
X51554095Y56488753D01*
X51554095Y56488753D02*
X51554095Y56631610D01*
X51554095Y56631610D02*
X51601714Y56822086D01*
X51601714Y56822086D02*
X51649333Y56917324D01*
X51649333Y56917324D02*
X51744571Y57012562D01*
X51744571Y57012562D02*
X51887428Y57060181D01*
X51887428Y57060181D02*
X51982666Y57060181D01*
X51982666Y57060181D02*
X52125523Y57012562D01*
X52125523Y57012562D02*
X52173142Y56964943D01*
X52506476Y57060181D02*
X53125523Y57060181D01*
X53125523Y57060181D02*
X52792190Y56679229D01*
X52792190Y56679229D02*
X52935047Y56679229D01*
X52935047Y56679229D02*
X53030285Y56631610D01*
X53030285Y56631610D02*
X53077904Y56583991D01*
X53077904Y56583991D02*
X53125523Y56488753D01*
X53125523Y56488753D02*
X53125523Y56250658D01*
X53125523Y56250658D02*
X53077904Y56155420D01*
X53077904Y56155420D02*
X53030285Y56107800D01*
X53030285Y56107800D02*
X52935047Y56060181D01*
X52935047Y56060181D02*
X52649333Y56060181D01*
X52649333Y56060181D02*
X52554095Y56107800D01*
X52554095Y56107800D02*
X52506476Y56155420D01*
X53982666Y57060181D02*
X53792190Y57060181D01*
X53792190Y57060181D02*
X53696952Y57012562D01*
X53696952Y57012562D02*
X53649333Y56964943D01*
X53649333Y56964943D02*
X53554095Y56822086D01*
X53554095Y56822086D02*
X53506476Y56631610D01*
X53506476Y56631610D02*
X53506476Y56250658D01*
X53506476Y56250658D02*
X53554095Y56155420D01*
X53554095Y56155420D02*
X53601714Y56107800D01*
X53601714Y56107800D02*
X53696952Y56060181D01*
X53696952Y56060181D02*
X53887428Y56060181D01*
X53887428Y56060181D02*
X53982666Y56107800D01*
X53982666Y56107800D02*
X54030285Y56155420D01*
X54030285Y56155420D02*
X54077904Y56250658D01*
X54077904Y56250658D02*
X54077904Y56488753D01*
X54077904Y56488753D02*
X54030285Y56583991D01*
X54030285Y56583991D02*
X53982666Y56631610D01*
X53982666Y56631610D02*
X53887428Y56679229D01*
X53887428Y56679229D02*
X53696952Y56679229D01*
X53696952Y56679229D02*
X53601714Y56631610D01*
X53601714Y56631610D02*
X53554095Y56583991D01*
X53554095Y56583991D02*
X53506476Y56488753D01*
X54649333Y56631610D02*
X54554095Y56679229D01*
X54554095Y56679229D02*
X54506476Y56726848D01*
X54506476Y56726848D02*
X54458857Y56822086D01*
X54458857Y56822086D02*
X54458857Y56869705D01*
X54458857Y56869705D02*
X54506476Y56964943D01*
X54506476Y56964943D02*
X54554095Y57012562D01*
X54554095Y57012562D02*
X54649333Y57060181D01*
X54649333Y57060181D02*
X54839809Y57060181D01*
X54839809Y57060181D02*
X54935047Y57012562D01*
X54935047Y57012562D02*
X54982666Y56964943D01*
X54982666Y56964943D02*
X55030285Y56869705D01*
X55030285Y56869705D02*
X55030285Y56822086D01*
X55030285Y56822086D02*
X54982666Y56726848D01*
X54982666Y56726848D02*
X54935047Y56679229D01*
X54935047Y56679229D02*
X54839809Y56631610D01*
X54839809Y56631610D02*
X54649333Y56631610D01*
X54649333Y56631610D02*
X54554095Y56583991D01*
X54554095Y56583991D02*
X54506476Y56536372D01*
X54506476Y56536372D02*
X54458857Y56441134D01*
X54458857Y56441134D02*
X54458857Y56250658D01*
X54458857Y56250658D02*
X54506476Y56155420D01*
X54506476Y56155420D02*
X54554095Y56107800D01*
X54554095Y56107800D02*
X54649333Y56060181D01*
X54649333Y56060181D02*
X54839809Y56060181D01*
X54839809Y56060181D02*
X54935047Y56107800D01*
X54935047Y56107800D02*
X54982666Y56155420D01*
X54982666Y56155420D02*
X55030285Y56250658D01*
X55030285Y56250658D02*
X55030285Y56441134D01*
X55030285Y56441134D02*
X54982666Y56536372D01*
X54982666Y56536372D02*
X54935047Y56583991D01*
X54935047Y56583991D02*
X54839809Y56631610D01*
X134802666Y58330181D02*
X134802666Y57615896D01*
X134802666Y57615896D02*
X134755047Y57473039D01*
X134755047Y57473039D02*
X134659809Y57377800D01*
X134659809Y57377800D02*
X134516952Y57330181D01*
X134516952Y57330181D02*
X134421714Y57330181D01*
X135278857Y57330181D02*
X135278857Y58330181D01*
X135278857Y58330181D02*
X135659809Y58330181D01*
X135659809Y58330181D02*
X135755047Y58282562D01*
X135755047Y58282562D02*
X135802666Y58234943D01*
X135802666Y58234943D02*
X135850285Y58139705D01*
X135850285Y58139705D02*
X135850285Y57996848D01*
X135850285Y57996848D02*
X135802666Y57901610D01*
X135802666Y57901610D02*
X135755047Y57853991D01*
X135755047Y57853991D02*
X135659809Y57806372D01*
X135659809Y57806372D02*
X135278857Y57806372D01*
X136802666Y57330181D02*
X136231238Y57330181D01*
X136516952Y57330181D02*
X136516952Y58330181D01*
X136516952Y58330181D02*
X136421714Y58187324D01*
X136421714Y58187324D02*
X136326476Y58092086D01*
X136326476Y58092086D02*
X136231238Y58044467D01*
X141001714Y59870181D02*
X140430286Y59870181D01*
X140716000Y59870181D02*
X140716000Y60870181D01*
X140716000Y60870181D02*
X140620762Y60727324D01*
X140620762Y60727324D02*
X140525524Y60632086D01*
X140525524Y60632086D02*
X140430286Y60584467D01*
X130222667Y60870181D02*
X130841714Y60870181D01*
X130841714Y60870181D02*
X130508381Y60489229D01*
X130508381Y60489229D02*
X130651238Y60489229D01*
X130651238Y60489229D02*
X130746476Y60441610D01*
X130746476Y60441610D02*
X130794095Y60393991D01*
X130794095Y60393991D02*
X130841714Y60298753D01*
X130841714Y60298753D02*
X130841714Y60060658D01*
X130841714Y60060658D02*
X130794095Y59965420D01*
X130794095Y59965420D02*
X130746476Y59917800D01*
X130746476Y59917800D02*
X130651238Y59870181D01*
X130651238Y59870181D02*
X130365524Y59870181D01*
X130365524Y59870181D02*
X130270286Y59917800D01*
X130270286Y59917800D02*
X130222667Y59965420D01*
X6703142Y34520420D02*
X6655523Y34472800D01*
X6655523Y34472800D02*
X6512666Y34425181D01*
X6512666Y34425181D02*
X6417428Y34425181D01*
X6417428Y34425181D02*
X6274571Y34472800D01*
X6274571Y34472800D02*
X6179333Y34568039D01*
X6179333Y34568039D02*
X6131714Y34663277D01*
X6131714Y34663277D02*
X6084095Y34853753D01*
X6084095Y34853753D02*
X6084095Y34996610D01*
X6084095Y34996610D02*
X6131714Y35187086D01*
X6131714Y35187086D02*
X6179333Y35282324D01*
X6179333Y35282324D02*
X6274571Y35377562D01*
X6274571Y35377562D02*
X6417428Y35425181D01*
X6417428Y35425181D02*
X6512666Y35425181D01*
X6512666Y35425181D02*
X6655523Y35377562D01*
X6655523Y35377562D02*
X6703142Y35329943D01*
X7655523Y34425181D02*
X7084095Y34425181D01*
X7369809Y34425181D02*
X7369809Y35425181D01*
X7369809Y35425181D02*
X7274571Y35282324D01*
X7274571Y35282324D02*
X7179333Y35187086D01*
X7179333Y35187086D02*
X7084095Y35139467D01*
X8131714Y34425181D02*
X8322190Y34425181D01*
X8322190Y34425181D02*
X8417428Y34472800D01*
X8417428Y34472800D02*
X8465047Y34520420D01*
X8465047Y34520420D02*
X8560285Y34663277D01*
X8560285Y34663277D02*
X8607904Y34853753D01*
X8607904Y34853753D02*
X8607904Y35234705D01*
X8607904Y35234705D02*
X8560285Y35329943D01*
X8560285Y35329943D02*
X8512666Y35377562D01*
X8512666Y35377562D02*
X8417428Y35425181D01*
X8417428Y35425181D02*
X8226952Y35425181D01*
X8226952Y35425181D02*
X8131714Y35377562D01*
X8131714Y35377562D02*
X8084095Y35329943D01*
X8084095Y35329943D02*
X8036476Y35234705D01*
X8036476Y35234705D02*
X8036476Y34996610D01*
X8036476Y34996610D02*
X8084095Y34901372D01*
X8084095Y34901372D02*
X8131714Y34853753D01*
X8131714Y34853753D02*
X8226952Y34806134D01*
X8226952Y34806134D02*
X8417428Y34806134D01*
X8417428Y34806134D02*
X8512666Y34853753D01*
X8512666Y34853753D02*
X8560285Y34901372D01*
X8560285Y34901372D02*
X8607904Y34996610D01*
X169283142Y43360181D02*
X168949809Y43836372D01*
X168711714Y43360181D02*
X168711714Y44360181D01*
X168711714Y44360181D02*
X169092666Y44360181D01*
X169092666Y44360181D02*
X169187904Y44312562D01*
X169187904Y44312562D02*
X169235523Y44264943D01*
X169235523Y44264943D02*
X169283142Y44169705D01*
X169283142Y44169705D02*
X169283142Y44026848D01*
X169283142Y44026848D02*
X169235523Y43931610D01*
X169235523Y43931610D02*
X169187904Y43883991D01*
X169187904Y43883991D02*
X169092666Y43836372D01*
X169092666Y43836372D02*
X168711714Y43836372D01*
X169664095Y44264943D02*
X169711714Y44312562D01*
X169711714Y44312562D02*
X169806952Y44360181D01*
X169806952Y44360181D02*
X170045047Y44360181D01*
X170045047Y44360181D02*
X170140285Y44312562D01*
X170140285Y44312562D02*
X170187904Y44264943D01*
X170187904Y44264943D02*
X170235523Y44169705D01*
X170235523Y44169705D02*
X170235523Y44074467D01*
X170235523Y44074467D02*
X170187904Y43931610D01*
X170187904Y43931610D02*
X169616476Y43360181D01*
X169616476Y43360181D02*
X170235523Y43360181D01*
X170616476Y44264943D02*
X170664095Y44312562D01*
X170664095Y44312562D02*
X170759333Y44360181D01*
X170759333Y44360181D02*
X170997428Y44360181D01*
X170997428Y44360181D02*
X171092666Y44312562D01*
X171092666Y44312562D02*
X171140285Y44264943D01*
X171140285Y44264943D02*
X171187904Y44169705D01*
X171187904Y44169705D02*
X171187904Y44074467D01*
X171187904Y44074467D02*
X171140285Y43931610D01*
X171140285Y43931610D02*
X170568857Y43360181D01*
X170568857Y43360181D02*
X171187904Y43360181D01*
X151384095Y27850181D02*
X151384095Y27040658D01*
X151384095Y27040658D02*
X151431714Y26945420D01*
X151431714Y26945420D02*
X151479333Y26897800D01*
X151479333Y26897800D02*
X151574571Y26850181D01*
X151574571Y26850181D02*
X151765047Y26850181D01*
X151765047Y26850181D02*
X151860285Y26897800D01*
X151860285Y26897800D02*
X151907904Y26945420D01*
X151907904Y26945420D02*
X151955523Y27040658D01*
X151955523Y27040658D02*
X151955523Y27850181D01*
X152860285Y27850181D02*
X152669809Y27850181D01*
X152669809Y27850181D02*
X152574571Y27802562D01*
X152574571Y27802562D02*
X152526952Y27754943D01*
X152526952Y27754943D02*
X152431714Y27612086D01*
X152431714Y27612086D02*
X152384095Y27421610D01*
X152384095Y27421610D02*
X152384095Y27040658D01*
X152384095Y27040658D02*
X152431714Y26945420D01*
X152431714Y26945420D02*
X152479333Y26897800D01*
X152479333Y26897800D02*
X152574571Y26850181D01*
X152574571Y26850181D02*
X152765047Y26850181D01*
X152765047Y26850181D02*
X152860285Y26897800D01*
X152860285Y26897800D02*
X152907904Y26945420D01*
X152907904Y26945420D02*
X152955523Y27040658D01*
X152955523Y27040658D02*
X152955523Y27278753D01*
X152955523Y27278753D02*
X152907904Y27373991D01*
X152907904Y27373991D02*
X152860285Y27421610D01*
X152860285Y27421610D02*
X152765047Y27469229D01*
X152765047Y27469229D02*
X152574571Y27469229D01*
X152574571Y27469229D02*
X152479333Y27421610D01*
X152479333Y27421610D02*
X152431714Y27373991D01*
X152431714Y27373991D02*
X152384095Y27278753D01*
X156985286Y21490181D02*
X157651952Y21490181D01*
X157651952Y21490181D02*
X157223381Y20490181D01*
X158461476Y21156848D02*
X158461476Y20490181D01*
X158223381Y21537800D02*
X157985286Y20823515D01*
X157985286Y20823515D02*
X158604333Y20823515D01*
X158985286Y20490181D02*
X158985286Y21490181D01*
X158985286Y21013991D02*
X159556714Y21013991D01*
X159556714Y20490181D02*
X159556714Y21490181D01*
X160604333Y20585420D02*
X160556714Y20537800D01*
X160556714Y20537800D02*
X160413857Y20490181D01*
X160413857Y20490181D02*
X160318619Y20490181D01*
X160318619Y20490181D02*
X160175762Y20537800D01*
X160175762Y20537800D02*
X160080524Y20633039D01*
X160080524Y20633039D02*
X160032905Y20728277D01*
X160032905Y20728277D02*
X159985286Y20918753D01*
X159985286Y20918753D02*
X159985286Y21061610D01*
X159985286Y21061610D02*
X160032905Y21252086D01*
X160032905Y21252086D02*
X160080524Y21347324D01*
X160080524Y21347324D02*
X160175762Y21442562D01*
X160175762Y21442562D02*
X160318619Y21490181D01*
X160318619Y21490181D02*
X160413857Y21490181D01*
X160413857Y21490181D02*
X160556714Y21442562D01*
X160556714Y21442562D02*
X160604333Y21394943D01*
X161223381Y21490181D02*
X161318619Y21490181D01*
X161318619Y21490181D02*
X161413857Y21442562D01*
X161413857Y21442562D02*
X161461476Y21394943D01*
X161461476Y21394943D02*
X161509095Y21299705D01*
X161509095Y21299705D02*
X161556714Y21109229D01*
X161556714Y21109229D02*
X161556714Y20871134D01*
X161556714Y20871134D02*
X161509095Y20680658D01*
X161509095Y20680658D02*
X161461476Y20585420D01*
X161461476Y20585420D02*
X161413857Y20537800D01*
X161413857Y20537800D02*
X161318619Y20490181D01*
X161318619Y20490181D02*
X161223381Y20490181D01*
X161223381Y20490181D02*
X161128143Y20537800D01*
X161128143Y20537800D02*
X161080524Y20585420D01*
X161080524Y20585420D02*
X161032905Y20680658D01*
X161032905Y20680658D02*
X160985286Y20871134D01*
X160985286Y20871134D02*
X160985286Y21109229D01*
X160985286Y21109229D02*
X161032905Y21299705D01*
X161032905Y21299705D02*
X161080524Y21394943D01*
X161080524Y21394943D02*
X161128143Y21442562D01*
X161128143Y21442562D02*
X161223381Y21490181D01*
X162175762Y21490181D02*
X162271000Y21490181D01*
X162271000Y21490181D02*
X162366238Y21442562D01*
X162366238Y21442562D02*
X162413857Y21394943D01*
X162413857Y21394943D02*
X162461476Y21299705D01*
X162461476Y21299705D02*
X162509095Y21109229D01*
X162509095Y21109229D02*
X162509095Y20871134D01*
X162509095Y20871134D02*
X162461476Y20680658D01*
X162461476Y20680658D02*
X162413857Y20585420D01*
X162413857Y20585420D02*
X162366238Y20537800D01*
X162366238Y20537800D02*
X162271000Y20490181D01*
X162271000Y20490181D02*
X162175762Y20490181D01*
X162175762Y20490181D02*
X162080524Y20537800D01*
X162080524Y20537800D02*
X162032905Y20585420D01*
X162032905Y20585420D02*
X161985286Y20680658D01*
X161985286Y20680658D02*
X161937667Y20871134D01*
X161937667Y20871134D02*
X161937667Y21109229D01*
X161937667Y21109229D02*
X161985286Y21299705D01*
X161985286Y21299705D02*
X162032905Y21394943D01*
X162032905Y21394943D02*
X162080524Y21442562D01*
X162080524Y21442562D02*
X162175762Y21490181D01*
X131183142Y39645420D02*
X131135523Y39597800D01*
X131135523Y39597800D02*
X130992666Y39550181D01*
X130992666Y39550181D02*
X130897428Y39550181D01*
X130897428Y39550181D02*
X130754571Y39597800D01*
X130754571Y39597800D02*
X130659333Y39693039D01*
X130659333Y39693039D02*
X130611714Y39788277D01*
X130611714Y39788277D02*
X130564095Y39978753D01*
X130564095Y39978753D02*
X130564095Y40121610D01*
X130564095Y40121610D02*
X130611714Y40312086D01*
X130611714Y40312086D02*
X130659333Y40407324D01*
X130659333Y40407324D02*
X130754571Y40502562D01*
X130754571Y40502562D02*
X130897428Y40550181D01*
X130897428Y40550181D02*
X130992666Y40550181D01*
X130992666Y40550181D02*
X131135523Y40502562D01*
X131135523Y40502562D02*
X131183142Y40454943D01*
X132135523Y39550181D02*
X131564095Y39550181D01*
X131849809Y39550181D02*
X131849809Y40550181D01*
X131849809Y40550181D02*
X131754571Y40407324D01*
X131754571Y40407324D02*
X131659333Y40312086D01*
X131659333Y40312086D02*
X131564095Y40264467D01*
X132468857Y40550181D02*
X133087904Y40550181D01*
X133087904Y40550181D02*
X132754571Y40169229D01*
X132754571Y40169229D02*
X132897428Y40169229D01*
X132897428Y40169229D02*
X132992666Y40121610D01*
X132992666Y40121610D02*
X133040285Y40073991D01*
X133040285Y40073991D02*
X133087904Y39978753D01*
X133087904Y39978753D02*
X133087904Y39740658D01*
X133087904Y39740658D02*
X133040285Y39645420D01*
X133040285Y39645420D02*
X132992666Y39597800D01*
X132992666Y39597800D02*
X132897428Y39550181D01*
X132897428Y39550181D02*
X132611714Y39550181D01*
X132611714Y39550181D02*
X132516476Y39597800D01*
X132516476Y39597800D02*
X132468857Y39645420D01*
X105187905Y28485181D02*
X105187905Y27675658D01*
X105187905Y27675658D02*
X105235524Y27580420D01*
X105235524Y27580420D02*
X105283143Y27532800D01*
X105283143Y27532800D02*
X105378381Y27485181D01*
X105378381Y27485181D02*
X105568857Y27485181D01*
X105568857Y27485181D02*
X105664095Y27532800D01*
X105664095Y27532800D02*
X105711714Y27580420D01*
X105711714Y27580420D02*
X105759333Y27675658D01*
X105759333Y27675658D02*
X105759333Y28485181D01*
X106759333Y27485181D02*
X106187905Y27485181D01*
X106473619Y27485181D02*
X106473619Y28485181D01*
X106473619Y28485181D02*
X106378381Y28342324D01*
X106378381Y28342324D02*
X106283143Y28247086D01*
X106283143Y28247086D02*
X106187905Y28199467D01*
X107140286Y28389943D02*
X107187905Y28437562D01*
X107187905Y28437562D02*
X107283143Y28485181D01*
X107283143Y28485181D02*
X107521238Y28485181D01*
X107521238Y28485181D02*
X107616476Y28437562D01*
X107616476Y28437562D02*
X107664095Y28389943D01*
X107664095Y28389943D02*
X107711714Y28294705D01*
X107711714Y28294705D02*
X107711714Y28199467D01*
X107711714Y28199467D02*
X107664095Y28056610D01*
X107664095Y28056610D02*
X107092667Y27485181D01*
X107092667Y27485181D02*
X107711714Y27485181D01*
X109514095Y22135181D02*
X110180761Y22135181D01*
X110180761Y22135181D02*
X109752190Y21135181D01*
X110990285Y21801848D02*
X110990285Y21135181D01*
X110752190Y22182800D02*
X110514095Y21468515D01*
X110514095Y21468515D02*
X111133142Y21468515D01*
X111514095Y21135181D02*
X111514095Y22135181D01*
X111514095Y21658991D02*
X112085523Y21658991D01*
X112085523Y21135181D02*
X112085523Y22135181D01*
X113133142Y21230420D02*
X113085523Y21182800D01*
X113085523Y21182800D02*
X112942666Y21135181D01*
X112942666Y21135181D02*
X112847428Y21135181D01*
X112847428Y21135181D02*
X112704571Y21182800D01*
X112704571Y21182800D02*
X112609333Y21278039D01*
X112609333Y21278039D02*
X112561714Y21373277D01*
X112561714Y21373277D02*
X112514095Y21563753D01*
X112514095Y21563753D02*
X112514095Y21706610D01*
X112514095Y21706610D02*
X112561714Y21897086D01*
X112561714Y21897086D02*
X112609333Y21992324D01*
X112609333Y21992324D02*
X112704571Y22087562D01*
X112704571Y22087562D02*
X112847428Y22135181D01*
X112847428Y22135181D02*
X112942666Y22135181D01*
X112942666Y22135181D02*
X113085523Y22087562D01*
X113085523Y22087562D02*
X113133142Y22039943D01*
X114085523Y21135181D02*
X113514095Y21135181D01*
X113799809Y21135181D02*
X113799809Y22135181D01*
X113799809Y22135181D02*
X113704571Y21992324D01*
X113704571Y21992324D02*
X113609333Y21897086D01*
X113609333Y21897086D02*
X113514095Y21849467D01*
X114466476Y22039943D02*
X114514095Y22087562D01*
X114514095Y22087562D02*
X114609333Y22135181D01*
X114609333Y22135181D02*
X114847428Y22135181D01*
X114847428Y22135181D02*
X114942666Y22087562D01*
X114942666Y22087562D02*
X114990285Y22039943D01*
X114990285Y22039943D02*
X115037904Y21944705D01*
X115037904Y21944705D02*
X115037904Y21849467D01*
X115037904Y21849467D02*
X114990285Y21706610D01*
X114990285Y21706610D02*
X114418857Y21135181D01*
X114418857Y21135181D02*
X115037904Y21135181D01*
X115942666Y22135181D02*
X115466476Y22135181D01*
X115466476Y22135181D02*
X115418857Y21658991D01*
X115418857Y21658991D02*
X115466476Y21706610D01*
X115466476Y21706610D02*
X115561714Y21754229D01*
X115561714Y21754229D02*
X115799809Y21754229D01*
X115799809Y21754229D02*
X115895047Y21706610D01*
X115895047Y21706610D02*
X115942666Y21658991D01*
X115942666Y21658991D02*
X115990285Y21563753D01*
X115990285Y21563753D02*
X115990285Y21325658D01*
X115990285Y21325658D02*
X115942666Y21230420D01*
X115942666Y21230420D02*
X115895047Y21182800D01*
X115895047Y21182800D02*
X115799809Y21135181D01*
X115799809Y21135181D02*
X115561714Y21135181D01*
X115561714Y21135181D02*
X115466476Y21182800D01*
X115466476Y21182800D02*
X115418857Y21230420D01*
X41687905Y46900181D02*
X41687905Y46090658D01*
X41687905Y46090658D02*
X41735524Y45995420D01*
X41735524Y45995420D02*
X41783143Y45947800D01*
X41783143Y45947800D02*
X41878381Y45900181D01*
X41878381Y45900181D02*
X42068857Y45900181D01*
X42068857Y45900181D02*
X42164095Y45947800D01*
X42164095Y45947800D02*
X42211714Y45995420D01*
X42211714Y45995420D02*
X42259333Y46090658D01*
X42259333Y46090658D02*
X42259333Y46900181D01*
X43259333Y45900181D02*
X42687905Y45900181D01*
X42973619Y45900181D02*
X42973619Y46900181D01*
X42973619Y46900181D02*
X42878381Y46757324D01*
X42878381Y46757324D02*
X42783143Y46662086D01*
X42783143Y46662086D02*
X42687905Y46614467D01*
X44211714Y45900181D02*
X43640286Y45900181D01*
X43926000Y45900181D02*
X43926000Y46900181D01*
X43926000Y46900181D02*
X43830762Y46757324D01*
X43830762Y46757324D02*
X43735524Y46662086D01*
X43735524Y46662086D02*
X43640286Y46614467D01*
X49824095Y40550181D02*
X50490761Y40550181D01*
X50490761Y40550181D02*
X50062190Y39550181D01*
X51300285Y40216848D02*
X51300285Y39550181D01*
X51062190Y40597800D02*
X50824095Y39883515D01*
X50824095Y39883515D02*
X51443142Y39883515D01*
X51824095Y39550181D02*
X51824095Y40550181D01*
X51824095Y40073991D02*
X52395523Y40073991D01*
X52395523Y39550181D02*
X52395523Y40550181D01*
X53443142Y39645420D02*
X53395523Y39597800D01*
X53395523Y39597800D02*
X53252666Y39550181D01*
X53252666Y39550181D02*
X53157428Y39550181D01*
X53157428Y39550181D02*
X53014571Y39597800D01*
X53014571Y39597800D02*
X52919333Y39693039D01*
X52919333Y39693039D02*
X52871714Y39788277D01*
X52871714Y39788277D02*
X52824095Y39978753D01*
X52824095Y39978753D02*
X52824095Y40121610D01*
X52824095Y40121610D02*
X52871714Y40312086D01*
X52871714Y40312086D02*
X52919333Y40407324D01*
X52919333Y40407324D02*
X53014571Y40502562D01*
X53014571Y40502562D02*
X53157428Y40550181D01*
X53157428Y40550181D02*
X53252666Y40550181D01*
X53252666Y40550181D02*
X53395523Y40502562D01*
X53395523Y40502562D02*
X53443142Y40454943D01*
X54347904Y40550181D02*
X53871714Y40550181D01*
X53871714Y40550181D02*
X53824095Y40073991D01*
X53824095Y40073991D02*
X53871714Y40121610D01*
X53871714Y40121610D02*
X53966952Y40169229D01*
X53966952Y40169229D02*
X54205047Y40169229D01*
X54205047Y40169229D02*
X54300285Y40121610D01*
X54300285Y40121610D02*
X54347904Y40073991D01*
X54347904Y40073991D02*
X54395523Y39978753D01*
X54395523Y39978753D02*
X54395523Y39740658D01*
X54395523Y39740658D02*
X54347904Y39645420D01*
X54347904Y39645420D02*
X54300285Y39597800D01*
X54300285Y39597800D02*
X54205047Y39550181D01*
X54205047Y39550181D02*
X53966952Y39550181D01*
X53966952Y39550181D02*
X53871714Y39597800D01*
X53871714Y39597800D02*
X53824095Y39645420D01*
X55252666Y40216848D02*
X55252666Y39550181D01*
X55014571Y40597800D02*
X54776476Y39883515D01*
X54776476Y39883515D02*
X55395523Y39883515D01*
X56300285Y39550181D02*
X55728857Y39550181D01*
X56014571Y39550181D02*
X56014571Y40550181D01*
X56014571Y40550181D02*
X55919333Y40407324D01*
X55919333Y40407324D02*
X55824095Y40312086D01*
X55824095Y40312086D02*
X55728857Y40264467D01*
X127373142Y64950181D02*
X127039809Y65426372D01*
X126801714Y64950181D02*
X126801714Y65950181D01*
X126801714Y65950181D02*
X127182666Y65950181D01*
X127182666Y65950181D02*
X127277904Y65902562D01*
X127277904Y65902562D02*
X127325523Y65854943D01*
X127325523Y65854943D02*
X127373142Y65759705D01*
X127373142Y65759705D02*
X127373142Y65616848D01*
X127373142Y65616848D02*
X127325523Y65521610D01*
X127325523Y65521610D02*
X127277904Y65473991D01*
X127277904Y65473991D02*
X127182666Y65426372D01*
X127182666Y65426372D02*
X126801714Y65426372D01*
X127754095Y65854943D02*
X127801714Y65902562D01*
X127801714Y65902562D02*
X127896952Y65950181D01*
X127896952Y65950181D02*
X128135047Y65950181D01*
X128135047Y65950181D02*
X128230285Y65902562D01*
X128230285Y65902562D02*
X128277904Y65854943D01*
X128277904Y65854943D02*
X128325523Y65759705D01*
X128325523Y65759705D02*
X128325523Y65664467D01*
X128325523Y65664467D02*
X128277904Y65521610D01*
X128277904Y65521610D02*
X127706476Y64950181D01*
X127706476Y64950181D02*
X128325523Y64950181D01*
X129182666Y65950181D02*
X128992190Y65950181D01*
X128992190Y65950181D02*
X128896952Y65902562D01*
X128896952Y65902562D02*
X128849333Y65854943D01*
X128849333Y65854943D02*
X128754095Y65712086D01*
X128754095Y65712086D02*
X128706476Y65521610D01*
X128706476Y65521610D02*
X128706476Y65140658D01*
X128706476Y65140658D02*
X128754095Y65045420D01*
X128754095Y65045420D02*
X128801714Y64997800D01*
X128801714Y64997800D02*
X128896952Y64950181D01*
X128896952Y64950181D02*
X129087428Y64950181D01*
X129087428Y64950181D02*
X129182666Y64997800D01*
X129182666Y64997800D02*
X129230285Y65045420D01*
X129230285Y65045420D02*
X129277904Y65140658D01*
X129277904Y65140658D02*
X129277904Y65378753D01*
X129277904Y65378753D02*
X129230285Y65473991D01*
X129230285Y65473991D02*
X129182666Y65521610D01*
X129182666Y65521610D02*
X129087428Y65569229D01*
X129087428Y65569229D02*
X128896952Y65569229D01*
X128896952Y65569229D02*
X128801714Y65521610D01*
X128801714Y65521610D02*
X128754095Y65473991D01*
X128754095Y65473991D02*
X128706476Y65378753D01*
X116419333Y64950181D02*
X116086000Y65426372D01*
X115847905Y64950181D02*
X115847905Y65950181D01*
X115847905Y65950181D02*
X116228857Y65950181D01*
X116228857Y65950181D02*
X116324095Y65902562D01*
X116324095Y65902562D02*
X116371714Y65854943D01*
X116371714Y65854943D02*
X116419333Y65759705D01*
X116419333Y65759705D02*
X116419333Y65616848D01*
X116419333Y65616848D02*
X116371714Y65521610D01*
X116371714Y65521610D02*
X116324095Y65473991D01*
X116324095Y65473991D02*
X116228857Y65426372D01*
X116228857Y65426372D02*
X115847905Y65426372D01*
X116752667Y65950181D02*
X117371714Y65950181D01*
X117371714Y65950181D02*
X117038381Y65569229D01*
X117038381Y65569229D02*
X117181238Y65569229D01*
X117181238Y65569229D02*
X117276476Y65521610D01*
X117276476Y65521610D02*
X117324095Y65473991D01*
X117324095Y65473991D02*
X117371714Y65378753D01*
X117371714Y65378753D02*
X117371714Y65140658D01*
X117371714Y65140658D02*
X117324095Y65045420D01*
X117324095Y65045420D02*
X117276476Y64997800D01*
X117276476Y64997800D02*
X117181238Y64950181D01*
X117181238Y64950181D02*
X116895524Y64950181D01*
X116895524Y64950181D02*
X116800286Y64997800D01*
X116800286Y64997800D02*
X116752667Y65045420D01*
X48037905Y31660181D02*
X48037905Y30850658D01*
X48037905Y30850658D02*
X48085524Y30755420D01*
X48085524Y30755420D02*
X48133143Y30707800D01*
X48133143Y30707800D02*
X48228381Y30660181D01*
X48228381Y30660181D02*
X48418857Y30660181D01*
X48418857Y30660181D02*
X48514095Y30707800D01*
X48514095Y30707800D02*
X48561714Y30755420D01*
X48561714Y30755420D02*
X48609333Y30850658D01*
X48609333Y30850658D02*
X48609333Y31660181D01*
X49609333Y30660181D02*
X49037905Y30660181D01*
X49323619Y30660181D02*
X49323619Y31660181D01*
X49323619Y31660181D02*
X49228381Y31517324D01*
X49228381Y31517324D02*
X49133143Y31422086D01*
X49133143Y31422086D02*
X49037905Y31374467D01*
X50228381Y31660181D02*
X50323619Y31660181D01*
X50323619Y31660181D02*
X50418857Y31612562D01*
X50418857Y31612562D02*
X50466476Y31564943D01*
X50466476Y31564943D02*
X50514095Y31469705D01*
X50514095Y31469705D02*
X50561714Y31279229D01*
X50561714Y31279229D02*
X50561714Y31041134D01*
X50561714Y31041134D02*
X50514095Y30850658D01*
X50514095Y30850658D02*
X50466476Y30755420D01*
X50466476Y30755420D02*
X50418857Y30707800D01*
X50418857Y30707800D02*
X50323619Y30660181D01*
X50323619Y30660181D02*
X50228381Y30660181D01*
X50228381Y30660181D02*
X50133143Y30707800D01*
X50133143Y30707800D02*
X50085524Y30755420D01*
X50085524Y30755420D02*
X50037905Y30850658D01*
X50037905Y30850658D02*
X49990286Y31041134D01*
X49990286Y31041134D02*
X49990286Y31279229D01*
X49990286Y31279229D02*
X50037905Y31469705D01*
X50037905Y31469705D02*
X50085524Y31564943D01*
X50085524Y31564943D02*
X50133143Y31612562D01*
X50133143Y31612562D02*
X50228381Y31660181D01*
X56174095Y25310181D02*
X56840761Y25310181D01*
X56840761Y25310181D02*
X56412190Y24310181D01*
X57650285Y24976848D02*
X57650285Y24310181D01*
X57412190Y25357800D02*
X57174095Y24643515D01*
X57174095Y24643515D02*
X57793142Y24643515D01*
X58174095Y24310181D02*
X58174095Y25310181D01*
X58174095Y24833991D02*
X58745523Y24833991D01*
X58745523Y24310181D02*
X58745523Y25310181D01*
X59793142Y24405420D02*
X59745523Y24357800D01*
X59745523Y24357800D02*
X59602666Y24310181D01*
X59602666Y24310181D02*
X59507428Y24310181D01*
X59507428Y24310181D02*
X59364571Y24357800D01*
X59364571Y24357800D02*
X59269333Y24453039D01*
X59269333Y24453039D02*
X59221714Y24548277D01*
X59221714Y24548277D02*
X59174095Y24738753D01*
X59174095Y24738753D02*
X59174095Y24881610D01*
X59174095Y24881610D02*
X59221714Y25072086D01*
X59221714Y25072086D02*
X59269333Y25167324D01*
X59269333Y25167324D02*
X59364571Y25262562D01*
X59364571Y25262562D02*
X59507428Y25310181D01*
X59507428Y25310181D02*
X59602666Y25310181D01*
X59602666Y25310181D02*
X59745523Y25262562D01*
X59745523Y25262562D02*
X59793142Y25214943D01*
X60697904Y25310181D02*
X60221714Y25310181D01*
X60221714Y25310181D02*
X60174095Y24833991D01*
X60174095Y24833991D02*
X60221714Y24881610D01*
X60221714Y24881610D02*
X60316952Y24929229D01*
X60316952Y24929229D02*
X60555047Y24929229D01*
X60555047Y24929229D02*
X60650285Y24881610D01*
X60650285Y24881610D02*
X60697904Y24833991D01*
X60697904Y24833991D02*
X60745523Y24738753D01*
X60745523Y24738753D02*
X60745523Y24500658D01*
X60745523Y24500658D02*
X60697904Y24405420D01*
X60697904Y24405420D02*
X60650285Y24357800D01*
X60650285Y24357800D02*
X60555047Y24310181D01*
X60555047Y24310181D02*
X60316952Y24310181D01*
X60316952Y24310181D02*
X60221714Y24357800D01*
X60221714Y24357800D02*
X60174095Y24405420D01*
X61602666Y24976848D02*
X61602666Y24310181D01*
X61364571Y25357800D02*
X61126476Y24643515D01*
X61126476Y24643515D02*
X61745523Y24643515D01*
X62650285Y24310181D02*
X62078857Y24310181D01*
X62364571Y24310181D02*
X62364571Y25310181D01*
X62364571Y25310181D02*
X62269333Y25167324D01*
X62269333Y25167324D02*
X62174095Y25072086D01*
X62174095Y25072086D02*
X62078857Y25024467D01*
D12*
X176125285Y38536145D02*
X176125285Y37964717D01*
X176125285Y37964717D02*
X176096714Y37850431D01*
X176096714Y37850431D02*
X176039571Y37774240D01*
X176039571Y37774240D02*
X175953857Y37736145D01*
X175953857Y37736145D02*
X175896714Y37736145D01*
X176411000Y37736145D02*
X176411000Y38536145D01*
X176411000Y38536145D02*
X176639571Y38536145D01*
X176639571Y38536145D02*
X176696714Y38498050D01*
X176696714Y38498050D02*
X176725285Y38459955D01*
X176725285Y38459955D02*
X176753857Y38383764D01*
X176753857Y38383764D02*
X176753857Y38269479D01*
X176753857Y38269479D02*
X176725285Y38193288D01*
X176725285Y38193288D02*
X176696714Y38155193D01*
X176696714Y38155193D02*
X176639571Y38117098D01*
X176639571Y38117098D02*
X176411000Y38117098D01*
X176982428Y38459955D02*
X177011000Y38498050D01*
X177011000Y38498050D02*
X177068143Y38536145D01*
X177068143Y38536145D02*
X177211000Y38536145D01*
X177211000Y38536145D02*
X177268143Y38498050D01*
X177268143Y38498050D02*
X177296714Y38459955D01*
X177296714Y38459955D02*
X177325285Y38383764D01*
X177325285Y38383764D02*
X177325285Y38307574D01*
X177325285Y38307574D02*
X177296714Y38193288D01*
X177296714Y38193288D02*
X176953857Y37736145D01*
X176953857Y37736145D02*
X177325285Y37736145D01*
X177525286Y38536145D02*
X177925286Y38536145D01*
X177925286Y38536145D02*
X177668143Y37736145D01*
D10*
X154043142Y39685420D02*
X153995523Y39637800D01*
X153995523Y39637800D02*
X153852666Y39590181D01*
X153852666Y39590181D02*
X153757428Y39590181D01*
X153757428Y39590181D02*
X153614571Y39637800D01*
X153614571Y39637800D02*
X153519333Y39733039D01*
X153519333Y39733039D02*
X153471714Y39828277D01*
X153471714Y39828277D02*
X153424095Y40018753D01*
X153424095Y40018753D02*
X153424095Y40161610D01*
X153424095Y40161610D02*
X153471714Y40352086D01*
X153471714Y40352086D02*
X153519333Y40447324D01*
X153519333Y40447324D02*
X153614571Y40542562D01*
X153614571Y40542562D02*
X153757428Y40590181D01*
X153757428Y40590181D02*
X153852666Y40590181D01*
X153852666Y40590181D02*
X153995523Y40542562D01*
X153995523Y40542562D02*
X154043142Y40494943D01*
X154995523Y39590181D02*
X154424095Y39590181D01*
X154709809Y39590181D02*
X154709809Y40590181D01*
X154709809Y40590181D02*
X154614571Y40447324D01*
X154614571Y40447324D02*
X154519333Y40352086D01*
X154519333Y40352086D02*
X154424095Y40304467D01*
X155852666Y40256848D02*
X155852666Y39590181D01*
X155614571Y40637800D02*
X155376476Y39923515D01*
X155376476Y39923515D02*
X155995523Y39923515D01*
X150233142Y64315181D02*
X149899809Y64791372D01*
X149661714Y64315181D02*
X149661714Y65315181D01*
X149661714Y65315181D02*
X150042666Y65315181D01*
X150042666Y65315181D02*
X150137904Y65267562D01*
X150137904Y65267562D02*
X150185523Y65219943D01*
X150185523Y65219943D02*
X150233142Y65124705D01*
X150233142Y65124705D02*
X150233142Y64981848D01*
X150233142Y64981848D02*
X150185523Y64886610D01*
X150185523Y64886610D02*
X150137904Y64838991D01*
X150137904Y64838991D02*
X150042666Y64791372D01*
X150042666Y64791372D02*
X149661714Y64791372D01*
X150614095Y65219943D02*
X150661714Y65267562D01*
X150661714Y65267562D02*
X150756952Y65315181D01*
X150756952Y65315181D02*
X150995047Y65315181D01*
X150995047Y65315181D02*
X151090285Y65267562D01*
X151090285Y65267562D02*
X151137904Y65219943D01*
X151137904Y65219943D02*
X151185523Y65124705D01*
X151185523Y65124705D02*
X151185523Y65029467D01*
X151185523Y65029467D02*
X151137904Y64886610D01*
X151137904Y64886610D02*
X150566476Y64315181D01*
X150566476Y64315181D02*
X151185523Y64315181D01*
X152090285Y65315181D02*
X151614095Y65315181D01*
X151614095Y65315181D02*
X151566476Y64838991D01*
X151566476Y64838991D02*
X151614095Y64886610D01*
X151614095Y64886610D02*
X151709333Y64934229D01*
X151709333Y64934229D02*
X151947428Y64934229D01*
X151947428Y64934229D02*
X152042666Y64886610D01*
X152042666Y64886610D02*
X152090285Y64838991D01*
X152090285Y64838991D02*
X152137904Y64743753D01*
X152137904Y64743753D02*
X152137904Y64505658D01*
X152137904Y64505658D02*
X152090285Y64410420D01*
X152090285Y64410420D02*
X152042666Y64362800D01*
X152042666Y64362800D02*
X151947428Y64315181D01*
X151947428Y64315181D02*
X151709333Y64315181D01*
X151709333Y64315181D02*
X151614095Y64362800D01*
X151614095Y64362800D02*
X151566476Y64410420D01*
X13549333Y27580420D02*
X13501714Y27532800D01*
X13501714Y27532800D02*
X13358857Y27485181D01*
X13358857Y27485181D02*
X13263619Y27485181D01*
X13263619Y27485181D02*
X13120762Y27532800D01*
X13120762Y27532800D02*
X13025524Y27628039D01*
X13025524Y27628039D02*
X12977905Y27723277D01*
X12977905Y27723277D02*
X12930286Y27913753D01*
X12930286Y27913753D02*
X12930286Y28056610D01*
X12930286Y28056610D02*
X12977905Y28247086D01*
X12977905Y28247086D02*
X13025524Y28342324D01*
X13025524Y28342324D02*
X13120762Y28437562D01*
X13120762Y28437562D02*
X13263619Y28485181D01*
X13263619Y28485181D02*
X13358857Y28485181D01*
X13358857Y28485181D02*
X13501714Y28437562D01*
X13501714Y28437562D02*
X13549333Y28389943D01*
X13930286Y28389943D02*
X13977905Y28437562D01*
X13977905Y28437562D02*
X14073143Y28485181D01*
X14073143Y28485181D02*
X14311238Y28485181D01*
X14311238Y28485181D02*
X14406476Y28437562D01*
X14406476Y28437562D02*
X14454095Y28389943D01*
X14454095Y28389943D02*
X14501714Y28294705D01*
X14501714Y28294705D02*
X14501714Y28199467D01*
X14501714Y28199467D02*
X14454095Y28056610D01*
X14454095Y28056610D02*
X13882667Y27485181D01*
X13882667Y27485181D02*
X14501714Y27485181D01*
X127238658Y27421899D02*
X127238658Y26612376D01*
X127238658Y26612376D02*
X127286277Y26517138D01*
X127286277Y26517138D02*
X127333896Y26469518D01*
X127333896Y26469518D02*
X127429134Y26421899D01*
X127429134Y26421899D02*
X127619610Y26421899D01*
X127619610Y26421899D02*
X127714848Y26469518D01*
X127714848Y26469518D02*
X127762467Y26517138D01*
X127762467Y26517138D02*
X127810086Y26612376D01*
X127810086Y26612376D02*
X127810086Y27421899D01*
X128191039Y27421899D02*
X128857705Y27421899D01*
X128857705Y27421899D02*
X128429134Y26421899D01*
X132850286Y22770181D02*
X133516952Y22770181D01*
X133516952Y22770181D02*
X133088381Y21770181D01*
X134326476Y22436848D02*
X134326476Y21770181D01*
X134088381Y22817800D02*
X133850286Y22103515D01*
X133850286Y22103515D02*
X134469333Y22103515D01*
X134850286Y21770181D02*
X134850286Y22770181D01*
X134850286Y22293991D02*
X135421714Y22293991D01*
X135421714Y21770181D02*
X135421714Y22770181D01*
X136469333Y21865420D02*
X136421714Y21817800D01*
X136421714Y21817800D02*
X136278857Y21770181D01*
X136278857Y21770181D02*
X136183619Y21770181D01*
X136183619Y21770181D02*
X136040762Y21817800D01*
X136040762Y21817800D02*
X135945524Y21913039D01*
X135945524Y21913039D02*
X135897905Y22008277D01*
X135897905Y22008277D02*
X135850286Y22198753D01*
X135850286Y22198753D02*
X135850286Y22341610D01*
X135850286Y22341610D02*
X135897905Y22532086D01*
X135897905Y22532086D02*
X135945524Y22627324D01*
X135945524Y22627324D02*
X136040762Y22722562D01*
X136040762Y22722562D02*
X136183619Y22770181D01*
X136183619Y22770181D02*
X136278857Y22770181D01*
X136278857Y22770181D02*
X136421714Y22722562D01*
X136421714Y22722562D02*
X136469333Y22674943D01*
X136802667Y22770181D02*
X137421714Y22770181D01*
X137421714Y22770181D02*
X137088381Y22389229D01*
X137088381Y22389229D02*
X137231238Y22389229D01*
X137231238Y22389229D02*
X137326476Y22341610D01*
X137326476Y22341610D02*
X137374095Y22293991D01*
X137374095Y22293991D02*
X137421714Y22198753D01*
X137421714Y22198753D02*
X137421714Y21960658D01*
X137421714Y21960658D02*
X137374095Y21865420D01*
X137374095Y21865420D02*
X137326476Y21817800D01*
X137326476Y21817800D02*
X137231238Y21770181D01*
X137231238Y21770181D02*
X136945524Y21770181D01*
X136945524Y21770181D02*
X136850286Y21817800D01*
X136850286Y21817800D02*
X136802667Y21865420D01*
X137802667Y22674943D02*
X137850286Y22722562D01*
X137850286Y22722562D02*
X137945524Y22770181D01*
X137945524Y22770181D02*
X138183619Y22770181D01*
X138183619Y22770181D02*
X138278857Y22722562D01*
X138278857Y22722562D02*
X138326476Y22674943D01*
X138326476Y22674943D02*
X138374095Y22579705D01*
X138374095Y22579705D02*
X138374095Y22484467D01*
X138374095Y22484467D02*
X138326476Y22341610D01*
X138326476Y22341610D02*
X137755048Y21770181D01*
X137755048Y21770181D02*
X138374095Y21770181D01*
X124039333Y64950181D02*
X123706000Y65426372D01*
X123467905Y64950181D02*
X123467905Y65950181D01*
X123467905Y65950181D02*
X123848857Y65950181D01*
X123848857Y65950181D02*
X123944095Y65902562D01*
X123944095Y65902562D02*
X123991714Y65854943D01*
X123991714Y65854943D02*
X124039333Y65759705D01*
X124039333Y65759705D02*
X124039333Y65616848D01*
X124039333Y65616848D02*
X123991714Y65521610D01*
X123991714Y65521610D02*
X123944095Y65473991D01*
X123944095Y65473991D02*
X123848857Y65426372D01*
X123848857Y65426372D02*
X123467905Y65426372D01*
X124944095Y65950181D02*
X124467905Y65950181D01*
X124467905Y65950181D02*
X124420286Y65473991D01*
X124420286Y65473991D02*
X124467905Y65521610D01*
X124467905Y65521610D02*
X124563143Y65569229D01*
X124563143Y65569229D02*
X124801238Y65569229D01*
X124801238Y65569229D02*
X124896476Y65521610D01*
X124896476Y65521610D02*
X124944095Y65473991D01*
X124944095Y65473991D02*
X124991714Y65378753D01*
X124991714Y65378753D02*
X124991714Y65140658D01*
X124991714Y65140658D02*
X124944095Y65045420D01*
X124944095Y65045420D02*
X124896476Y64997800D01*
X124896476Y64997800D02*
X124801238Y64950181D01*
X124801238Y64950181D02*
X124563143Y64950181D01*
X124563143Y64950181D02*
X124467905Y64997800D01*
X124467905Y64997800D02*
X124420286Y65045420D01*
X135667905Y43992246D02*
X135667905Y43182723D01*
X135667905Y43182723D02*
X135715524Y43087485D01*
X135715524Y43087485D02*
X135763143Y43039865D01*
X135763143Y43039865D02*
X135858381Y42992246D01*
X135858381Y42992246D02*
X136048857Y42992246D01*
X136048857Y42992246D02*
X136144095Y43039865D01*
X136144095Y43039865D02*
X136191714Y43087485D01*
X136191714Y43087485D02*
X136239333Y43182723D01*
X136239333Y43182723D02*
X136239333Y43992246D01*
X137239333Y42992246D02*
X136667905Y42992246D01*
X136953619Y42992246D02*
X136953619Y43992246D01*
X136953619Y43992246D02*
X136858381Y43849389D01*
X136858381Y43849389D02*
X136763143Y43754151D01*
X136763143Y43754151D02*
X136667905Y43706532D01*
X137572667Y43992246D02*
X138191714Y43992246D01*
X138191714Y43992246D02*
X137858381Y43611294D01*
X137858381Y43611294D02*
X138001238Y43611294D01*
X138001238Y43611294D02*
X138096476Y43563675D01*
X138096476Y43563675D02*
X138144095Y43516056D01*
X138144095Y43516056D02*
X138191714Y43420818D01*
X138191714Y43420818D02*
X138191714Y43182723D01*
X138191714Y43182723D02*
X138144095Y43087485D01*
X138144095Y43087485D02*
X138096476Y43039865D01*
X138096476Y43039865D02*
X138001238Y42992246D01*
X138001238Y42992246D02*
X137715524Y42992246D01*
X137715524Y42992246D02*
X137620286Y43039865D01*
X137620286Y43039865D02*
X137572667Y43087485D01*
X140470286Y38010181D02*
X141136952Y38010181D01*
X141136952Y38010181D02*
X140708381Y37010181D01*
X141946476Y37676848D02*
X141946476Y37010181D01*
X141708381Y38057800D02*
X141470286Y37343515D01*
X141470286Y37343515D02*
X142089333Y37343515D01*
X142470286Y37010181D02*
X142470286Y38010181D01*
X142470286Y37533991D02*
X143041714Y37533991D01*
X143041714Y37010181D02*
X143041714Y38010181D01*
X144089333Y37105420D02*
X144041714Y37057800D01*
X144041714Y37057800D02*
X143898857Y37010181D01*
X143898857Y37010181D02*
X143803619Y37010181D01*
X143803619Y37010181D02*
X143660762Y37057800D01*
X143660762Y37057800D02*
X143565524Y37153039D01*
X143565524Y37153039D02*
X143517905Y37248277D01*
X143517905Y37248277D02*
X143470286Y37438753D01*
X143470286Y37438753D02*
X143470286Y37581610D01*
X143470286Y37581610D02*
X143517905Y37772086D01*
X143517905Y37772086D02*
X143565524Y37867324D01*
X143565524Y37867324D02*
X143660762Y37962562D01*
X143660762Y37962562D02*
X143803619Y38010181D01*
X143803619Y38010181D02*
X143898857Y38010181D01*
X143898857Y38010181D02*
X144041714Y37962562D01*
X144041714Y37962562D02*
X144089333Y37914943D01*
X144470286Y37914943D02*
X144517905Y37962562D01*
X144517905Y37962562D02*
X144613143Y38010181D01*
X144613143Y38010181D02*
X144851238Y38010181D01*
X144851238Y38010181D02*
X144946476Y37962562D01*
X144946476Y37962562D02*
X144994095Y37914943D01*
X144994095Y37914943D02*
X145041714Y37819705D01*
X145041714Y37819705D02*
X145041714Y37724467D01*
X145041714Y37724467D02*
X144994095Y37581610D01*
X144994095Y37581610D02*
X144422667Y37010181D01*
X144422667Y37010181D02*
X145041714Y37010181D01*
X145660762Y38010181D02*
X145756000Y38010181D01*
X145756000Y38010181D02*
X145851238Y37962562D01*
X145851238Y37962562D02*
X145898857Y37914943D01*
X145898857Y37914943D02*
X145946476Y37819705D01*
X145946476Y37819705D02*
X145994095Y37629229D01*
X145994095Y37629229D02*
X145994095Y37391134D01*
X145994095Y37391134D02*
X145946476Y37200658D01*
X145946476Y37200658D02*
X145898857Y37105420D01*
X145898857Y37105420D02*
X145851238Y37057800D01*
X145851238Y37057800D02*
X145756000Y37010181D01*
X145756000Y37010181D02*
X145660762Y37010181D01*
X145660762Y37010181D02*
X145565524Y37057800D01*
X145565524Y37057800D02*
X145517905Y37105420D01*
X145517905Y37105420D02*
X145470286Y37200658D01*
X145470286Y37200658D02*
X145422667Y37391134D01*
X145422667Y37391134D02*
X145422667Y37629229D01*
X145422667Y37629229D02*
X145470286Y37819705D01*
X145470286Y37819705D02*
X145517905Y37914943D01*
X145517905Y37914943D02*
X145565524Y37962562D01*
X145565524Y37962562D02*
X145660762Y38010181D01*
X109207541Y13195181D02*
X109874207Y13195181D01*
X109874207Y13195181D02*
X109445636Y12195181D01*
X110207541Y13099943D02*
X110255160Y13147562D01*
X110255160Y13147562D02*
X110350398Y13195181D01*
X110350398Y13195181D02*
X110588493Y13195181D01*
X110588493Y13195181D02*
X110683731Y13147562D01*
X110683731Y13147562D02*
X110731350Y13099943D01*
X110731350Y13099943D02*
X110778969Y13004705D01*
X110778969Y13004705D02*
X110778969Y12909467D01*
X110778969Y12909467D02*
X110731350Y12766610D01*
X110731350Y12766610D02*
X110159922Y12195181D01*
X110159922Y12195181D02*
X110778969Y12195181D01*
X16545160Y13099943D02*
X16592779Y13147562D01*
X16592779Y13147562D02*
X16688017Y13195181D01*
X16688017Y13195181D02*
X16926112Y13195181D01*
X16926112Y13195181D02*
X17021350Y13147562D01*
X17021350Y13147562D02*
X17068969Y13099943D01*
X17068969Y13099943D02*
X17116588Y13004705D01*
X17116588Y13004705D02*
X17116588Y12909467D01*
X17116588Y12909467D02*
X17068969Y12766610D01*
X17068969Y12766610D02*
X16497541Y12195181D01*
X16497541Y12195181D02*
X17116588Y12195181D01*
X64984333Y60346420D02*
X64936714Y60298800D01*
X64936714Y60298800D02*
X64793857Y60251181D01*
X64793857Y60251181D02*
X64698619Y60251181D01*
X64698619Y60251181D02*
X64555762Y60298800D01*
X64555762Y60298800D02*
X64460524Y60394039D01*
X64460524Y60394039D02*
X64412905Y60489277D01*
X64412905Y60489277D02*
X64365286Y60679753D01*
X64365286Y60679753D02*
X64365286Y60822610D01*
X64365286Y60822610D02*
X64412905Y61013086D01*
X64412905Y61013086D02*
X64460524Y61108324D01*
X64460524Y61108324D02*
X64555762Y61203562D01*
X64555762Y61203562D02*
X64698619Y61251181D01*
X64698619Y61251181D02*
X64793857Y61251181D01*
X64793857Y61251181D02*
X64936714Y61203562D01*
X64936714Y61203562D02*
X64984333Y61155943D01*
X65936714Y60251181D02*
X65365286Y60251181D01*
X65651000Y60251181D02*
X65651000Y61251181D01*
X65651000Y61251181D02*
X65555762Y61108324D01*
X65555762Y61108324D02*
X65460524Y61013086D01*
X65460524Y61013086D02*
X65365286Y60965467D01*
X115347905Y59250317D02*
X115347905Y58440794D01*
X115347905Y58440794D02*
X115395524Y58345556D01*
X115395524Y58345556D02*
X115443143Y58297936D01*
X115443143Y58297936D02*
X115538381Y58250317D01*
X115538381Y58250317D02*
X115728857Y58250317D01*
X115728857Y58250317D02*
X115824095Y58297936D01*
X115824095Y58297936D02*
X115871714Y58345556D01*
X115871714Y58345556D02*
X115919333Y58440794D01*
X115919333Y58440794D02*
X115919333Y59250317D01*
X116919333Y58250317D02*
X116347905Y58250317D01*
X116633619Y58250317D02*
X116633619Y59250317D01*
X116633619Y59250317D02*
X116538381Y59107460D01*
X116538381Y59107460D02*
X116443143Y59012222D01*
X116443143Y59012222D02*
X116347905Y58964603D01*
X117490762Y58821746D02*
X117395524Y58869365D01*
X117395524Y58869365D02*
X117347905Y58916984D01*
X117347905Y58916984D02*
X117300286Y59012222D01*
X117300286Y59012222D02*
X117300286Y59059841D01*
X117300286Y59059841D02*
X117347905Y59155079D01*
X117347905Y59155079D02*
X117395524Y59202698D01*
X117395524Y59202698D02*
X117490762Y59250317D01*
X117490762Y59250317D02*
X117681238Y59250317D01*
X117681238Y59250317D02*
X117776476Y59202698D01*
X117776476Y59202698D02*
X117824095Y59155079D01*
X117824095Y59155079D02*
X117871714Y59059841D01*
X117871714Y59059841D02*
X117871714Y59012222D01*
X117871714Y59012222D02*
X117824095Y58916984D01*
X117824095Y58916984D02*
X117776476Y58869365D01*
X117776476Y58869365D02*
X117681238Y58821746D01*
X117681238Y58821746D02*
X117490762Y58821746D01*
X117490762Y58821746D02*
X117395524Y58774127D01*
X117395524Y58774127D02*
X117347905Y58726508D01*
X117347905Y58726508D02*
X117300286Y58631270D01*
X117300286Y58631270D02*
X117300286Y58440794D01*
X117300286Y58440794D02*
X117347905Y58345556D01*
X117347905Y58345556D02*
X117395524Y58297936D01*
X117395524Y58297936D02*
X117490762Y58250317D01*
X117490762Y58250317D02*
X117681238Y58250317D01*
X117681238Y58250317D02*
X117776476Y58297936D01*
X117776476Y58297936D02*
X117824095Y58345556D01*
X117824095Y58345556D02*
X117871714Y58440794D01*
X117871714Y58440794D02*
X117871714Y58631270D01*
X117871714Y58631270D02*
X117824095Y58726508D01*
X117824095Y58726508D02*
X117776476Y58774127D01*
X117776476Y58774127D02*
X117681238Y58821746D01*
X120150286Y53250181D02*
X120816952Y53250181D01*
X120816952Y53250181D02*
X120388381Y52250181D01*
X121626476Y52916848D02*
X121626476Y52250181D01*
X121388381Y53297800D02*
X121150286Y52583515D01*
X121150286Y52583515D02*
X121769333Y52583515D01*
X122150286Y52250181D02*
X122150286Y53250181D01*
X122150286Y52773991D02*
X122721714Y52773991D01*
X122721714Y52250181D02*
X122721714Y53250181D01*
X123769333Y52345420D02*
X123721714Y52297800D01*
X123721714Y52297800D02*
X123578857Y52250181D01*
X123578857Y52250181D02*
X123483619Y52250181D01*
X123483619Y52250181D02*
X123340762Y52297800D01*
X123340762Y52297800D02*
X123245524Y52393039D01*
X123245524Y52393039D02*
X123197905Y52488277D01*
X123197905Y52488277D02*
X123150286Y52678753D01*
X123150286Y52678753D02*
X123150286Y52821610D01*
X123150286Y52821610D02*
X123197905Y53012086D01*
X123197905Y53012086D02*
X123245524Y53107324D01*
X123245524Y53107324D02*
X123340762Y53202562D01*
X123340762Y53202562D02*
X123483619Y53250181D01*
X123483619Y53250181D02*
X123578857Y53250181D01*
X123578857Y53250181D02*
X123721714Y53202562D01*
X123721714Y53202562D02*
X123769333Y53154943D01*
X124388381Y53250181D02*
X124483619Y53250181D01*
X124483619Y53250181D02*
X124578857Y53202562D01*
X124578857Y53202562D02*
X124626476Y53154943D01*
X124626476Y53154943D02*
X124674095Y53059705D01*
X124674095Y53059705D02*
X124721714Y52869229D01*
X124721714Y52869229D02*
X124721714Y52631134D01*
X124721714Y52631134D02*
X124674095Y52440658D01*
X124674095Y52440658D02*
X124626476Y52345420D01*
X124626476Y52345420D02*
X124578857Y52297800D01*
X124578857Y52297800D02*
X124483619Y52250181D01*
X124483619Y52250181D02*
X124388381Y52250181D01*
X124388381Y52250181D02*
X124293143Y52297800D01*
X124293143Y52297800D02*
X124245524Y52345420D01*
X124245524Y52345420D02*
X124197905Y52440658D01*
X124197905Y52440658D02*
X124150286Y52631134D01*
X124150286Y52631134D02*
X124150286Y52869229D01*
X124150286Y52869229D02*
X124197905Y53059705D01*
X124197905Y53059705D02*
X124245524Y53154943D01*
X124245524Y53154943D02*
X124293143Y53202562D01*
X124293143Y53202562D02*
X124388381Y53250181D01*
X125578857Y52916848D02*
X125578857Y52250181D01*
X125340762Y53297800D02*
X125102667Y52583515D01*
X125102667Y52583515D02*
X125721714Y52583515D01*
X75779333Y26945420D02*
X75731714Y26897800D01*
X75731714Y26897800D02*
X75588857Y26850181D01*
X75588857Y26850181D02*
X75493619Y26850181D01*
X75493619Y26850181D02*
X75350762Y26897800D01*
X75350762Y26897800D02*
X75255524Y26993039D01*
X75255524Y26993039D02*
X75207905Y27088277D01*
X75207905Y27088277D02*
X75160286Y27278753D01*
X75160286Y27278753D02*
X75160286Y27421610D01*
X75160286Y27421610D02*
X75207905Y27612086D01*
X75207905Y27612086D02*
X75255524Y27707324D01*
X75255524Y27707324D02*
X75350762Y27802562D01*
X75350762Y27802562D02*
X75493619Y27850181D01*
X75493619Y27850181D02*
X75588857Y27850181D01*
X75588857Y27850181D02*
X75731714Y27802562D01*
X75731714Y27802562D02*
X75779333Y27754943D01*
X76636476Y27516848D02*
X76636476Y26850181D01*
X76398381Y27897800D02*
X76160286Y27183515D01*
X76160286Y27183515D02*
X76779333Y27183515D01*
X113879333Y30660181D02*
X113546000Y31136372D01*
X113307905Y30660181D02*
X113307905Y31660181D01*
X113307905Y31660181D02*
X113688857Y31660181D01*
X113688857Y31660181D02*
X113784095Y31612562D01*
X113784095Y31612562D02*
X113831714Y31564943D01*
X113831714Y31564943D02*
X113879333Y31469705D01*
X113879333Y31469705D02*
X113879333Y31326848D01*
X113879333Y31326848D02*
X113831714Y31231610D01*
X113831714Y31231610D02*
X113784095Y31183991D01*
X113784095Y31183991D02*
X113688857Y31136372D01*
X113688857Y31136372D02*
X113307905Y31136372D01*
X114450762Y31231610D02*
X114355524Y31279229D01*
X114355524Y31279229D02*
X114307905Y31326848D01*
X114307905Y31326848D02*
X114260286Y31422086D01*
X114260286Y31422086D02*
X114260286Y31469705D01*
X114260286Y31469705D02*
X114307905Y31564943D01*
X114307905Y31564943D02*
X114355524Y31612562D01*
X114355524Y31612562D02*
X114450762Y31660181D01*
X114450762Y31660181D02*
X114641238Y31660181D01*
X114641238Y31660181D02*
X114736476Y31612562D01*
X114736476Y31612562D02*
X114784095Y31564943D01*
X114784095Y31564943D02*
X114831714Y31469705D01*
X114831714Y31469705D02*
X114831714Y31422086D01*
X114831714Y31422086D02*
X114784095Y31326848D01*
X114784095Y31326848D02*
X114736476Y31279229D01*
X114736476Y31279229D02*
X114641238Y31231610D01*
X114641238Y31231610D02*
X114450762Y31231610D01*
X114450762Y31231610D02*
X114355524Y31183991D01*
X114355524Y31183991D02*
X114307905Y31136372D01*
X114307905Y31136372D02*
X114260286Y31041134D01*
X114260286Y31041134D02*
X114260286Y30850658D01*
X114260286Y30850658D02*
X114307905Y30755420D01*
X114307905Y30755420D02*
X114355524Y30707800D01*
X114355524Y30707800D02*
X114450762Y30660181D01*
X114450762Y30660181D02*
X114641238Y30660181D01*
X114641238Y30660181D02*
X114736476Y30707800D01*
X114736476Y30707800D02*
X114784095Y30755420D01*
X114784095Y30755420D02*
X114831714Y30850658D01*
X114831714Y30850658D02*
X114831714Y31041134D01*
X114831714Y31041134D02*
X114784095Y31136372D01*
X114784095Y31136372D02*
X114736476Y31183991D01*
X114736476Y31183991D02*
X114641238Y31231610D01*
X158527905Y43090181D02*
X158527905Y42280658D01*
X158527905Y42280658D02*
X158575524Y42185420D01*
X158575524Y42185420D02*
X158623143Y42137800D01*
X158623143Y42137800D02*
X158718381Y42090181D01*
X158718381Y42090181D02*
X158908857Y42090181D01*
X158908857Y42090181D02*
X159004095Y42137800D01*
X159004095Y42137800D02*
X159051714Y42185420D01*
X159051714Y42185420D02*
X159099333Y42280658D01*
X159099333Y42280658D02*
X159099333Y43090181D01*
X160099333Y42090181D02*
X159527905Y42090181D01*
X159813619Y42090181D02*
X159813619Y43090181D01*
X159813619Y43090181D02*
X159718381Y42947324D01*
X159718381Y42947324D02*
X159623143Y42852086D01*
X159623143Y42852086D02*
X159527905Y42804467D01*
X160956476Y42756848D02*
X160956476Y42090181D01*
X160718381Y43137800D02*
X160480286Y42423515D01*
X160480286Y42423515D02*
X161099333Y42423515D01*
X163089897Y37539271D02*
X163756563Y37539271D01*
X163756563Y37539271D02*
X163327992Y36539271D01*
X164566087Y37205938D02*
X164566087Y36539271D01*
X164327992Y37586890D02*
X164089897Y36872605D01*
X164089897Y36872605D02*
X164708944Y36872605D01*
X165089897Y36539271D02*
X165089897Y37539271D01*
X165089897Y37063081D02*
X165661325Y37063081D01*
X165661325Y36539271D02*
X165661325Y37539271D01*
X166708944Y36634510D02*
X166661325Y36586890D01*
X166661325Y36586890D02*
X166518468Y36539271D01*
X166518468Y36539271D02*
X166423230Y36539271D01*
X166423230Y36539271D02*
X166280373Y36586890D01*
X166280373Y36586890D02*
X166185135Y36682129D01*
X166185135Y36682129D02*
X166137516Y36777367D01*
X166137516Y36777367D02*
X166089897Y36967843D01*
X166089897Y36967843D02*
X166089897Y37110700D01*
X166089897Y37110700D02*
X166137516Y37301176D01*
X166137516Y37301176D02*
X166185135Y37396414D01*
X166185135Y37396414D02*
X166280373Y37491652D01*
X166280373Y37491652D02*
X166423230Y37539271D01*
X166423230Y37539271D02*
X166518468Y37539271D01*
X166518468Y37539271D02*
X166661325Y37491652D01*
X166661325Y37491652D02*
X166708944Y37444033D01*
X167089897Y37444033D02*
X167137516Y37491652D01*
X167137516Y37491652D02*
X167232754Y37539271D01*
X167232754Y37539271D02*
X167470849Y37539271D01*
X167470849Y37539271D02*
X167566087Y37491652D01*
X167566087Y37491652D02*
X167613706Y37444033D01*
X167613706Y37444033D02*
X167661325Y37348795D01*
X167661325Y37348795D02*
X167661325Y37253557D01*
X167661325Y37253557D02*
X167613706Y37110700D01*
X167613706Y37110700D02*
X167042278Y36539271D01*
X167042278Y36539271D02*
X167661325Y36539271D01*
X168613706Y36539271D02*
X168042278Y36539271D01*
X168327992Y36539271D02*
X168327992Y37539271D01*
X168327992Y37539271D02*
X168232754Y37396414D01*
X168232754Y37396414D02*
X168137516Y37301176D01*
X168137516Y37301176D02*
X168042278Y37253557D01*
X120229333Y30660181D02*
X119896000Y31136372D01*
X119657905Y30660181D02*
X119657905Y31660181D01*
X119657905Y31660181D02*
X120038857Y31660181D01*
X120038857Y31660181D02*
X120134095Y31612562D01*
X120134095Y31612562D02*
X120181714Y31564943D01*
X120181714Y31564943D02*
X120229333Y31469705D01*
X120229333Y31469705D02*
X120229333Y31326848D01*
X120229333Y31326848D02*
X120181714Y31231610D01*
X120181714Y31231610D02*
X120134095Y31183991D01*
X120134095Y31183991D02*
X120038857Y31136372D01*
X120038857Y31136372D02*
X119657905Y31136372D01*
X120562667Y31660181D02*
X121229333Y31660181D01*
X121229333Y31660181D02*
X120800762Y30660181D01*
D12*
X138287030Y64568522D02*
X138287030Y63997094D01*
X138287030Y63997094D02*
X138258459Y63882808D01*
X138258459Y63882808D02*
X138201316Y63806617D01*
X138201316Y63806617D02*
X138115602Y63768522D01*
X138115602Y63768522D02*
X138058459Y63768522D01*
X138572745Y63768522D02*
X138572745Y64568522D01*
X138572745Y64568522D02*
X138801316Y64568522D01*
X138801316Y64568522D02*
X138858459Y64530427D01*
X138858459Y64530427D02*
X138887030Y64492332D01*
X138887030Y64492332D02*
X138915602Y64416141D01*
X138915602Y64416141D02*
X138915602Y64301856D01*
X138915602Y64301856D02*
X138887030Y64225665D01*
X138887030Y64225665D02*
X138858459Y64187570D01*
X138858459Y64187570D02*
X138801316Y64149475D01*
X138801316Y64149475D02*
X138572745Y64149475D01*
X139144173Y64492332D02*
X139172745Y64530427D01*
X139172745Y64530427D02*
X139229888Y64568522D01*
X139229888Y64568522D02*
X139372745Y64568522D01*
X139372745Y64568522D02*
X139429888Y64530427D01*
X139429888Y64530427D02*
X139458459Y64492332D01*
X139458459Y64492332D02*
X139487030Y64416141D01*
X139487030Y64416141D02*
X139487030Y64339951D01*
X139487030Y64339951D02*
X139458459Y64225665D01*
X139458459Y64225665D02*
X139115602Y63768522D01*
X139115602Y63768522D02*
X139487030Y63768522D01*
X140001317Y64568522D02*
X139887031Y64568522D01*
X139887031Y64568522D02*
X139829888Y64530427D01*
X139829888Y64530427D02*
X139801317Y64492332D01*
X139801317Y64492332D02*
X139744174Y64378046D01*
X139744174Y64378046D02*
X139715602Y64225665D01*
X139715602Y64225665D02*
X139715602Y63920903D01*
X139715602Y63920903D02*
X139744174Y63844713D01*
X139744174Y63844713D02*
X139772745Y63806617D01*
X139772745Y63806617D02*
X139829888Y63768522D01*
X139829888Y63768522D02*
X139944174Y63768522D01*
X139944174Y63768522D02*
X140001317Y63806617D01*
X140001317Y63806617D02*
X140029888Y63844713D01*
X140029888Y63844713D02*
X140058459Y63920903D01*
X140058459Y63920903D02*
X140058459Y64111379D01*
X140058459Y64111379D02*
X140029888Y64187570D01*
X140029888Y64187570D02*
X140001317Y64225665D01*
X140001317Y64225665D02*
X139944174Y64263760D01*
X139944174Y64263760D02*
X139829888Y64263760D01*
X139829888Y64263760D02*
X139772745Y64225665D01*
X139772745Y64225665D02*
X139744174Y64187570D01*
X139744174Y64187570D02*
X139715602Y64111379D01*
D10*
X97369333Y39010420D02*
X97321714Y38962800D01*
X97321714Y38962800D02*
X97178857Y38915181D01*
X97178857Y38915181D02*
X97083619Y38915181D01*
X97083619Y38915181D02*
X96940762Y38962800D01*
X96940762Y38962800D02*
X96845524Y39058039D01*
X96845524Y39058039D02*
X96797905Y39153277D01*
X96797905Y39153277D02*
X96750286Y39343753D01*
X96750286Y39343753D02*
X96750286Y39486610D01*
X96750286Y39486610D02*
X96797905Y39677086D01*
X96797905Y39677086D02*
X96845524Y39772324D01*
X96845524Y39772324D02*
X96940762Y39867562D01*
X96940762Y39867562D02*
X97083619Y39915181D01*
X97083619Y39915181D02*
X97178857Y39915181D01*
X97178857Y39915181D02*
X97321714Y39867562D01*
X97321714Y39867562D02*
X97369333Y39819943D01*
X97845524Y38915181D02*
X98036000Y38915181D01*
X98036000Y38915181D02*
X98131238Y38962800D01*
X98131238Y38962800D02*
X98178857Y39010420D01*
X98178857Y39010420D02*
X98274095Y39153277D01*
X98274095Y39153277D02*
X98321714Y39343753D01*
X98321714Y39343753D02*
X98321714Y39724705D01*
X98321714Y39724705D02*
X98274095Y39819943D01*
X98274095Y39819943D02*
X98226476Y39867562D01*
X98226476Y39867562D02*
X98131238Y39915181D01*
X98131238Y39915181D02*
X97940762Y39915181D01*
X97940762Y39915181D02*
X97845524Y39867562D01*
X97845524Y39867562D02*
X97797905Y39819943D01*
X97797905Y39819943D02*
X97750286Y39724705D01*
X97750286Y39724705D02*
X97750286Y39486610D01*
X97750286Y39486610D02*
X97797905Y39391372D01*
X97797905Y39391372D02*
X97845524Y39343753D01*
X97845524Y39343753D02*
X97940762Y39296134D01*
X97940762Y39296134D02*
X98131238Y39296134D01*
X98131238Y39296134D02*
X98226476Y39343753D01*
X98226476Y39343753D02*
X98274095Y39391372D01*
X98274095Y39391372D02*
X98321714Y39486610D01*
X37203142Y40280420D02*
X37155523Y40232800D01*
X37155523Y40232800D02*
X37012666Y40185181D01*
X37012666Y40185181D02*
X36917428Y40185181D01*
X36917428Y40185181D02*
X36774571Y40232800D01*
X36774571Y40232800D02*
X36679333Y40328039D01*
X36679333Y40328039D02*
X36631714Y40423277D01*
X36631714Y40423277D02*
X36584095Y40613753D01*
X36584095Y40613753D02*
X36584095Y40756610D01*
X36584095Y40756610D02*
X36631714Y40947086D01*
X36631714Y40947086D02*
X36679333Y41042324D01*
X36679333Y41042324D02*
X36774571Y41137562D01*
X36774571Y41137562D02*
X36917428Y41185181D01*
X36917428Y41185181D02*
X37012666Y41185181D01*
X37012666Y41185181D02*
X37155523Y41137562D01*
X37155523Y41137562D02*
X37203142Y41089943D01*
X38155523Y40185181D02*
X37584095Y40185181D01*
X37869809Y40185181D02*
X37869809Y41185181D01*
X37869809Y41185181D02*
X37774571Y41042324D01*
X37774571Y41042324D02*
X37679333Y40947086D01*
X37679333Y40947086D02*
X37584095Y40899467D01*
X39107904Y40185181D02*
X38536476Y40185181D01*
X38822190Y40185181D02*
X38822190Y41185181D01*
X38822190Y41185181D02*
X38726952Y41042324D01*
X38726952Y41042324D02*
X38631714Y40947086D01*
X38631714Y40947086D02*
X38536476Y40899467D01*
X38473142Y59330420D02*
X38425523Y59282800D01*
X38425523Y59282800D02*
X38282666Y59235181D01*
X38282666Y59235181D02*
X38187428Y59235181D01*
X38187428Y59235181D02*
X38044571Y59282800D01*
X38044571Y59282800D02*
X37949333Y59378039D01*
X37949333Y59378039D02*
X37901714Y59473277D01*
X37901714Y59473277D02*
X37854095Y59663753D01*
X37854095Y59663753D02*
X37854095Y59806610D01*
X37854095Y59806610D02*
X37901714Y59997086D01*
X37901714Y59997086D02*
X37949333Y60092324D01*
X37949333Y60092324D02*
X38044571Y60187562D01*
X38044571Y60187562D02*
X38187428Y60235181D01*
X38187428Y60235181D02*
X38282666Y60235181D01*
X38282666Y60235181D02*
X38425523Y60187562D01*
X38425523Y60187562D02*
X38473142Y60139943D01*
X39425523Y59235181D02*
X38854095Y59235181D01*
X39139809Y59235181D02*
X39139809Y60235181D01*
X39139809Y60235181D02*
X39044571Y60092324D01*
X39044571Y60092324D02*
X38949333Y59997086D01*
X38949333Y59997086D02*
X38854095Y59949467D01*
X39758857Y60235181D02*
X40425523Y60235181D01*
X40425523Y60235181D02*
X39996952Y59235181D01*
X124039333Y19960420D02*
X123991714Y19912800D01*
X123991714Y19912800D02*
X123848857Y19865181D01*
X123848857Y19865181D02*
X123753619Y19865181D01*
X123753619Y19865181D02*
X123610762Y19912800D01*
X123610762Y19912800D02*
X123515524Y20008039D01*
X123515524Y20008039D02*
X123467905Y20103277D01*
X123467905Y20103277D02*
X123420286Y20293753D01*
X123420286Y20293753D02*
X123420286Y20436610D01*
X123420286Y20436610D02*
X123467905Y20627086D01*
X123467905Y20627086D02*
X123515524Y20722324D01*
X123515524Y20722324D02*
X123610762Y20817562D01*
X123610762Y20817562D02*
X123753619Y20865181D01*
X123753619Y20865181D02*
X123848857Y20865181D01*
X123848857Y20865181D02*
X123991714Y20817562D01*
X123991714Y20817562D02*
X124039333Y20769943D01*
X124372667Y20865181D02*
X125039333Y20865181D01*
X125039333Y20865181D02*
X124610762Y19865181D01*
X17557905Y62140181D02*
X17557905Y61330658D01*
X17557905Y61330658D02*
X17605524Y61235420D01*
X17605524Y61235420D02*
X17653143Y61187800D01*
X17653143Y61187800D02*
X17748381Y61140181D01*
X17748381Y61140181D02*
X17938857Y61140181D01*
X17938857Y61140181D02*
X18034095Y61187800D01*
X18034095Y61187800D02*
X18081714Y61235420D01*
X18081714Y61235420D02*
X18129333Y61330658D01*
X18129333Y61330658D02*
X18129333Y62140181D01*
X19129333Y61140181D02*
X18557905Y61140181D01*
X18843619Y61140181D02*
X18843619Y62140181D01*
X18843619Y62140181D02*
X18748381Y61997324D01*
X18748381Y61997324D02*
X18653143Y61902086D01*
X18653143Y61902086D02*
X18557905Y61854467D01*
X19986476Y62140181D02*
X19796000Y62140181D01*
X19796000Y62140181D02*
X19700762Y62092562D01*
X19700762Y62092562D02*
X19653143Y62044943D01*
X19653143Y62044943D02*
X19557905Y61902086D01*
X19557905Y61902086D02*
X19510286Y61711610D01*
X19510286Y61711610D02*
X19510286Y61330658D01*
X19510286Y61330658D02*
X19557905Y61235420D01*
X19557905Y61235420D02*
X19605524Y61187800D01*
X19605524Y61187800D02*
X19700762Y61140181D01*
X19700762Y61140181D02*
X19891238Y61140181D01*
X19891238Y61140181D02*
X19986476Y61187800D01*
X19986476Y61187800D02*
X20034095Y61235420D01*
X20034095Y61235420D02*
X20081714Y61330658D01*
X20081714Y61330658D02*
X20081714Y61568753D01*
X20081714Y61568753D02*
X20034095Y61663991D01*
X20034095Y61663991D02*
X19986476Y61711610D01*
X19986476Y61711610D02*
X19891238Y61759229D01*
X19891238Y61759229D02*
X19700762Y61759229D01*
X19700762Y61759229D02*
X19605524Y61711610D01*
X19605524Y61711610D02*
X19557905Y61663991D01*
X19557905Y61663991D02*
X19510286Y61568753D01*
X23154095Y55790181D02*
X23820761Y55790181D01*
X23820761Y55790181D02*
X23392190Y54790181D01*
X24630285Y55456848D02*
X24630285Y54790181D01*
X24392190Y55837800D02*
X24154095Y55123515D01*
X24154095Y55123515D02*
X24773142Y55123515D01*
X25154095Y54790181D02*
X25154095Y55790181D01*
X25154095Y55313991D02*
X25725523Y55313991D01*
X25725523Y54790181D02*
X25725523Y55790181D01*
X26773142Y54885420D02*
X26725523Y54837800D01*
X26725523Y54837800D02*
X26582666Y54790181D01*
X26582666Y54790181D02*
X26487428Y54790181D01*
X26487428Y54790181D02*
X26344571Y54837800D01*
X26344571Y54837800D02*
X26249333Y54933039D01*
X26249333Y54933039D02*
X26201714Y55028277D01*
X26201714Y55028277D02*
X26154095Y55218753D01*
X26154095Y55218753D02*
X26154095Y55361610D01*
X26154095Y55361610D02*
X26201714Y55552086D01*
X26201714Y55552086D02*
X26249333Y55647324D01*
X26249333Y55647324D02*
X26344571Y55742562D01*
X26344571Y55742562D02*
X26487428Y55790181D01*
X26487428Y55790181D02*
X26582666Y55790181D01*
X26582666Y55790181D02*
X26725523Y55742562D01*
X26725523Y55742562D02*
X26773142Y55694943D01*
X27725523Y54790181D02*
X27154095Y54790181D01*
X27439809Y54790181D02*
X27439809Y55790181D01*
X27439809Y55790181D02*
X27344571Y55647324D01*
X27344571Y55647324D02*
X27249333Y55552086D01*
X27249333Y55552086D02*
X27154095Y55504467D01*
X28058857Y55790181D02*
X28725523Y55790181D01*
X28725523Y55790181D02*
X28296952Y54790181D01*
X29535047Y55456848D02*
X29535047Y54790181D01*
X29296952Y55837800D02*
X29058857Y55123515D01*
X29058857Y55123515D02*
X29677904Y55123515D01*
X13073142Y58060420D02*
X13025523Y58012800D01*
X13025523Y58012800D02*
X12882666Y57965181D01*
X12882666Y57965181D02*
X12787428Y57965181D01*
X12787428Y57965181D02*
X12644571Y58012800D01*
X12644571Y58012800D02*
X12549333Y58108039D01*
X12549333Y58108039D02*
X12501714Y58203277D01*
X12501714Y58203277D02*
X12454095Y58393753D01*
X12454095Y58393753D02*
X12454095Y58536610D01*
X12454095Y58536610D02*
X12501714Y58727086D01*
X12501714Y58727086D02*
X12549333Y58822324D01*
X12549333Y58822324D02*
X12644571Y58917562D01*
X12644571Y58917562D02*
X12787428Y58965181D01*
X12787428Y58965181D02*
X12882666Y58965181D01*
X12882666Y58965181D02*
X13025523Y58917562D01*
X13025523Y58917562D02*
X13073142Y58869943D01*
X14025523Y57965181D02*
X13454095Y57965181D01*
X13739809Y57965181D02*
X13739809Y58965181D01*
X13739809Y58965181D02*
X13644571Y58822324D01*
X13644571Y58822324D02*
X13549333Y58727086D01*
X13549333Y58727086D02*
X13454095Y58679467D01*
X14882666Y58965181D02*
X14692190Y58965181D01*
X14692190Y58965181D02*
X14596952Y58917562D01*
X14596952Y58917562D02*
X14549333Y58869943D01*
X14549333Y58869943D02*
X14454095Y58727086D01*
X14454095Y58727086D02*
X14406476Y58536610D01*
X14406476Y58536610D02*
X14406476Y58155658D01*
X14406476Y58155658D02*
X14454095Y58060420D01*
X14454095Y58060420D02*
X14501714Y58012800D01*
X14501714Y58012800D02*
X14596952Y57965181D01*
X14596952Y57965181D02*
X14787428Y57965181D01*
X14787428Y57965181D02*
X14882666Y58012800D01*
X14882666Y58012800D02*
X14930285Y58060420D01*
X14930285Y58060420D02*
X14977904Y58155658D01*
X14977904Y58155658D02*
X14977904Y58393753D01*
X14977904Y58393753D02*
X14930285Y58488991D01*
X14930285Y58488991D02*
X14882666Y58536610D01*
X14882666Y58536610D02*
X14787428Y58584229D01*
X14787428Y58584229D02*
X14596952Y58584229D01*
X14596952Y58584229D02*
X14501714Y58536610D01*
X14501714Y58536610D02*
X14454095Y58488991D01*
X14454095Y58488991D02*
X14406476Y58393753D01*
X147534333Y23160820D02*
X147486714Y23113200D01*
X147486714Y23113200D02*
X147343857Y23065581D01*
X147343857Y23065581D02*
X147248619Y23065581D01*
X147248619Y23065581D02*
X147105762Y23113200D01*
X147105762Y23113200D02*
X147010524Y23208439D01*
X147010524Y23208439D02*
X146962905Y23303677D01*
X146962905Y23303677D02*
X146915286Y23494153D01*
X146915286Y23494153D02*
X146915286Y23637010D01*
X146915286Y23637010D02*
X146962905Y23827486D01*
X146962905Y23827486D02*
X147010524Y23922724D01*
X147010524Y23922724D02*
X147105762Y24017962D01*
X147105762Y24017962D02*
X147248619Y24065581D01*
X147248619Y24065581D02*
X147343857Y24065581D01*
X147343857Y24065581D02*
X147486714Y24017962D01*
X147486714Y24017962D02*
X147534333Y23970343D01*
X148391476Y24065581D02*
X148201000Y24065581D01*
X148201000Y24065581D02*
X148105762Y24017962D01*
X148105762Y24017962D02*
X148058143Y23970343D01*
X148058143Y23970343D02*
X147962905Y23827486D01*
X147962905Y23827486D02*
X147915286Y23637010D01*
X147915286Y23637010D02*
X147915286Y23256058D01*
X147915286Y23256058D02*
X147962905Y23160820D01*
X147962905Y23160820D02*
X148010524Y23113200D01*
X148010524Y23113200D02*
X148105762Y23065581D01*
X148105762Y23065581D02*
X148296238Y23065581D01*
X148296238Y23065581D02*
X148391476Y23113200D01*
X148391476Y23113200D02*
X148439095Y23160820D01*
X148439095Y23160820D02*
X148486714Y23256058D01*
X148486714Y23256058D02*
X148486714Y23494153D01*
X148486714Y23494153D02*
X148439095Y23589391D01*
X148439095Y23589391D02*
X148391476Y23637010D01*
X148391476Y23637010D02*
X148296238Y23684629D01*
X148296238Y23684629D02*
X148105762Y23684629D01*
X148105762Y23684629D02*
X148010524Y23637010D01*
X148010524Y23637010D02*
X147962905Y23589391D01*
X147962905Y23589391D02*
X147915286Y23494153D01*
X157059333Y54885420D02*
X157011714Y54837800D01*
X157011714Y54837800D02*
X156868857Y54790181D01*
X156868857Y54790181D02*
X156773619Y54790181D01*
X156773619Y54790181D02*
X156630762Y54837800D01*
X156630762Y54837800D02*
X156535524Y54933039D01*
X156535524Y54933039D02*
X156487905Y55028277D01*
X156487905Y55028277D02*
X156440286Y55218753D01*
X156440286Y55218753D02*
X156440286Y55361610D01*
X156440286Y55361610D02*
X156487905Y55552086D01*
X156487905Y55552086D02*
X156535524Y55647324D01*
X156535524Y55647324D02*
X156630762Y55742562D01*
X156630762Y55742562D02*
X156773619Y55790181D01*
X156773619Y55790181D02*
X156868857Y55790181D01*
X156868857Y55790181D02*
X157011714Y55742562D01*
X157011714Y55742562D02*
X157059333Y55694943D01*
X157630762Y55361610D02*
X157535524Y55409229D01*
X157535524Y55409229D02*
X157487905Y55456848D01*
X157487905Y55456848D02*
X157440286Y55552086D01*
X157440286Y55552086D02*
X157440286Y55599705D01*
X157440286Y55599705D02*
X157487905Y55694943D01*
X157487905Y55694943D02*
X157535524Y55742562D01*
X157535524Y55742562D02*
X157630762Y55790181D01*
X157630762Y55790181D02*
X157821238Y55790181D01*
X157821238Y55790181D02*
X157916476Y55742562D01*
X157916476Y55742562D02*
X157964095Y55694943D01*
X157964095Y55694943D02*
X158011714Y55599705D01*
X158011714Y55599705D02*
X158011714Y55552086D01*
X158011714Y55552086D02*
X157964095Y55456848D01*
X157964095Y55456848D02*
X157916476Y55409229D01*
X157916476Y55409229D02*
X157821238Y55361610D01*
X157821238Y55361610D02*
X157630762Y55361610D01*
X157630762Y55361610D02*
X157535524Y55313991D01*
X157535524Y55313991D02*
X157487905Y55266372D01*
X157487905Y55266372D02*
X157440286Y55171134D01*
X157440286Y55171134D02*
X157440286Y54980658D01*
X157440286Y54980658D02*
X157487905Y54885420D01*
X157487905Y54885420D02*
X157535524Y54837800D01*
X157535524Y54837800D02*
X157630762Y54790181D01*
X157630762Y54790181D02*
X157821238Y54790181D01*
X157821238Y54790181D02*
X157916476Y54837800D01*
X157916476Y54837800D02*
X157964095Y54885420D01*
X157964095Y54885420D02*
X158011714Y54980658D01*
X158011714Y54980658D02*
X158011714Y55171134D01*
X158011714Y55171134D02*
X157964095Y55266372D01*
X157964095Y55266372D02*
X157916476Y55313991D01*
X157916476Y55313991D02*
X157821238Y55361610D01*
X80264095Y30390181D02*
X80264095Y29580658D01*
X80264095Y29580658D02*
X80311714Y29485420D01*
X80311714Y29485420D02*
X80359333Y29437800D01*
X80359333Y29437800D02*
X80454571Y29390181D01*
X80454571Y29390181D02*
X80645047Y29390181D01*
X80645047Y29390181D02*
X80740285Y29437800D01*
X80740285Y29437800D02*
X80787904Y29485420D01*
X80787904Y29485420D02*
X80835523Y29580658D01*
X80835523Y29580658D02*
X80835523Y30390181D01*
X81740285Y30056848D02*
X81740285Y29390181D01*
X81502190Y30437800D02*
X81264095Y29723515D01*
X81264095Y29723515D02*
X81883142Y29723515D01*
X85384095Y24040181D02*
X86050761Y24040181D01*
X86050761Y24040181D02*
X85622190Y23040181D01*
X86860285Y23706848D02*
X86860285Y23040181D01*
X86622190Y24087800D02*
X86384095Y23373515D01*
X86384095Y23373515D02*
X87003142Y23373515D01*
X87384095Y23040181D02*
X87384095Y24040181D01*
X87384095Y23563991D02*
X87955523Y23563991D01*
X87955523Y23040181D02*
X87955523Y24040181D01*
X89003142Y23135420D02*
X88955523Y23087800D01*
X88955523Y23087800D02*
X88812666Y23040181D01*
X88812666Y23040181D02*
X88717428Y23040181D01*
X88717428Y23040181D02*
X88574571Y23087800D01*
X88574571Y23087800D02*
X88479333Y23183039D01*
X88479333Y23183039D02*
X88431714Y23278277D01*
X88431714Y23278277D02*
X88384095Y23468753D01*
X88384095Y23468753D02*
X88384095Y23611610D01*
X88384095Y23611610D02*
X88431714Y23802086D01*
X88431714Y23802086D02*
X88479333Y23897324D01*
X88479333Y23897324D02*
X88574571Y23992562D01*
X88574571Y23992562D02*
X88717428Y24040181D01*
X88717428Y24040181D02*
X88812666Y24040181D01*
X88812666Y24040181D02*
X88955523Y23992562D01*
X88955523Y23992562D02*
X89003142Y23944943D01*
X89955523Y23040181D02*
X89384095Y23040181D01*
X89669809Y23040181D02*
X89669809Y24040181D01*
X89669809Y24040181D02*
X89574571Y23897324D01*
X89574571Y23897324D02*
X89479333Y23802086D01*
X89479333Y23802086D02*
X89384095Y23754467D01*
X90288857Y24040181D02*
X90907904Y24040181D01*
X90907904Y24040181D02*
X90574571Y23659229D01*
X90574571Y23659229D02*
X90717428Y23659229D01*
X90717428Y23659229D02*
X90812666Y23611610D01*
X90812666Y23611610D02*
X90860285Y23563991D01*
X90860285Y23563991D02*
X90907904Y23468753D01*
X90907904Y23468753D02*
X90907904Y23230658D01*
X90907904Y23230658D02*
X90860285Y23135420D01*
X90860285Y23135420D02*
X90812666Y23087800D01*
X90812666Y23087800D02*
X90717428Y23040181D01*
X90717428Y23040181D02*
X90431714Y23040181D01*
X90431714Y23040181D02*
X90336476Y23087800D01*
X90336476Y23087800D02*
X90288857Y23135420D01*
X91479333Y23611610D02*
X91384095Y23659229D01*
X91384095Y23659229D02*
X91336476Y23706848D01*
X91336476Y23706848D02*
X91288857Y23802086D01*
X91288857Y23802086D02*
X91288857Y23849705D01*
X91288857Y23849705D02*
X91336476Y23944943D01*
X91336476Y23944943D02*
X91384095Y23992562D01*
X91384095Y23992562D02*
X91479333Y24040181D01*
X91479333Y24040181D02*
X91669809Y24040181D01*
X91669809Y24040181D02*
X91765047Y23992562D01*
X91765047Y23992562D02*
X91812666Y23944943D01*
X91812666Y23944943D02*
X91860285Y23849705D01*
X91860285Y23849705D02*
X91860285Y23802086D01*
X91860285Y23802086D02*
X91812666Y23706848D01*
X91812666Y23706848D02*
X91765047Y23659229D01*
X91765047Y23659229D02*
X91669809Y23611610D01*
X91669809Y23611610D02*
X91479333Y23611610D01*
X91479333Y23611610D02*
X91384095Y23563991D01*
X91384095Y23563991D02*
X91336476Y23516372D01*
X91336476Y23516372D02*
X91288857Y23421134D01*
X91288857Y23421134D02*
X91288857Y23230658D01*
X91288857Y23230658D02*
X91336476Y23135420D01*
X91336476Y23135420D02*
X91384095Y23087800D01*
X91384095Y23087800D02*
X91479333Y23040181D01*
X91479333Y23040181D02*
X91669809Y23040181D01*
X91669809Y23040181D02*
X91765047Y23087800D01*
X91765047Y23087800D02*
X91812666Y23135420D01*
X91812666Y23135420D02*
X91860285Y23230658D01*
X91860285Y23230658D02*
X91860285Y23421134D01*
X91860285Y23421134D02*
X91812666Y23516372D01*
X91812666Y23516372D02*
X91765047Y23563991D01*
X91765047Y23563991D02*
X91669809Y23611610D01*
X100703142Y20595420D02*
X100655523Y20547800D01*
X100655523Y20547800D02*
X100512666Y20500181D01*
X100512666Y20500181D02*
X100417428Y20500181D01*
X100417428Y20500181D02*
X100274571Y20547800D01*
X100274571Y20547800D02*
X100179333Y20643039D01*
X100179333Y20643039D02*
X100131714Y20738277D01*
X100131714Y20738277D02*
X100084095Y20928753D01*
X100084095Y20928753D02*
X100084095Y21071610D01*
X100084095Y21071610D02*
X100131714Y21262086D01*
X100131714Y21262086D02*
X100179333Y21357324D01*
X100179333Y21357324D02*
X100274571Y21452562D01*
X100274571Y21452562D02*
X100417428Y21500181D01*
X100417428Y21500181D02*
X100512666Y21500181D01*
X100512666Y21500181D02*
X100655523Y21452562D01*
X100655523Y21452562D02*
X100703142Y21404943D01*
X101655523Y20500181D02*
X101084095Y20500181D01*
X101369809Y20500181D02*
X101369809Y21500181D01*
X101369809Y21500181D02*
X101274571Y21357324D01*
X101274571Y21357324D02*
X101179333Y21262086D01*
X101179333Y21262086D02*
X101084095Y21214467D01*
X102036476Y21404943D02*
X102084095Y21452562D01*
X102084095Y21452562D02*
X102179333Y21500181D01*
X102179333Y21500181D02*
X102417428Y21500181D01*
X102417428Y21500181D02*
X102512666Y21452562D01*
X102512666Y21452562D02*
X102560285Y21404943D01*
X102560285Y21404943D02*
X102607904Y21309705D01*
X102607904Y21309705D02*
X102607904Y21214467D01*
X102607904Y21214467D02*
X102560285Y21071610D01*
X102560285Y21071610D02*
X101988857Y20500181D01*
X101988857Y20500181D02*
X102607904Y20500181D01*
X146924333Y64315181D02*
X146591000Y64791372D01*
X146352905Y64315181D02*
X146352905Y65315181D01*
X146352905Y65315181D02*
X146733857Y65315181D01*
X146733857Y65315181D02*
X146829095Y65267562D01*
X146829095Y65267562D02*
X146876714Y65219943D01*
X146876714Y65219943D02*
X146924333Y65124705D01*
X146924333Y65124705D02*
X146924333Y64981848D01*
X146924333Y64981848D02*
X146876714Y64886610D01*
X146876714Y64886610D02*
X146829095Y64838991D01*
X146829095Y64838991D02*
X146733857Y64791372D01*
X146733857Y64791372D02*
X146352905Y64791372D01*
X147781476Y65315181D02*
X147591000Y65315181D01*
X147591000Y65315181D02*
X147495762Y65267562D01*
X147495762Y65267562D02*
X147448143Y65219943D01*
X147448143Y65219943D02*
X147352905Y65077086D01*
X147352905Y65077086D02*
X147305286Y64886610D01*
X147305286Y64886610D02*
X147305286Y64505658D01*
X147305286Y64505658D02*
X147352905Y64410420D01*
X147352905Y64410420D02*
X147400524Y64362800D01*
X147400524Y64362800D02*
X147495762Y64315181D01*
X147495762Y64315181D02*
X147686238Y64315181D01*
X147686238Y64315181D02*
X147781476Y64362800D01*
X147781476Y64362800D02*
X147829095Y64410420D01*
X147829095Y64410420D02*
X147876714Y64505658D01*
X147876714Y64505658D02*
X147876714Y64743753D01*
X147876714Y64743753D02*
X147829095Y64838991D01*
X147829095Y64838991D02*
X147781476Y64886610D01*
X147781476Y64886610D02*
X147686238Y64934229D01*
X147686238Y64934229D02*
X147495762Y64934229D01*
X147495762Y64934229D02*
X147400524Y64886610D01*
X147400524Y64886610D02*
X147352905Y64838991D01*
X147352905Y64838991D02*
X147305286Y64743753D01*
X165473142Y64241265D02*
X165139809Y64717456D01*
X164901714Y64241265D02*
X164901714Y65241265D01*
X164901714Y65241265D02*
X165282666Y65241265D01*
X165282666Y65241265D02*
X165377904Y65193646D01*
X165377904Y65193646D02*
X165425523Y65146027D01*
X165425523Y65146027D02*
X165473142Y65050789D01*
X165473142Y65050789D02*
X165473142Y64907932D01*
X165473142Y64907932D02*
X165425523Y64812694D01*
X165425523Y64812694D02*
X165377904Y64765075D01*
X165377904Y64765075D02*
X165282666Y64717456D01*
X165282666Y64717456D02*
X164901714Y64717456D01*
X165854095Y65146027D02*
X165901714Y65193646D01*
X165901714Y65193646D02*
X165996952Y65241265D01*
X165996952Y65241265D02*
X166235047Y65241265D01*
X166235047Y65241265D02*
X166330285Y65193646D01*
X166330285Y65193646D02*
X166377904Y65146027D01*
X166377904Y65146027D02*
X166425523Y65050789D01*
X166425523Y65050789D02*
X166425523Y64955551D01*
X166425523Y64955551D02*
X166377904Y64812694D01*
X166377904Y64812694D02*
X165806476Y64241265D01*
X165806476Y64241265D02*
X166425523Y64241265D01*
X167044571Y65241265D02*
X167139809Y65241265D01*
X167139809Y65241265D02*
X167235047Y65193646D01*
X167235047Y65193646D02*
X167282666Y65146027D01*
X167282666Y65146027D02*
X167330285Y65050789D01*
X167330285Y65050789D02*
X167377904Y64860313D01*
X167377904Y64860313D02*
X167377904Y64622218D01*
X167377904Y64622218D02*
X167330285Y64431742D01*
X167330285Y64431742D02*
X167282666Y64336504D01*
X167282666Y64336504D02*
X167235047Y64288884D01*
X167235047Y64288884D02*
X167139809Y64241265D01*
X167139809Y64241265D02*
X167044571Y64241265D01*
X167044571Y64241265D02*
X166949333Y64288884D01*
X166949333Y64288884D02*
X166901714Y64336504D01*
X166901714Y64336504D02*
X166854095Y64431742D01*
X166854095Y64431742D02*
X166806476Y64622218D01*
X166806476Y64622218D02*
X166806476Y64860313D01*
X166806476Y64860313D02*
X166854095Y65050789D01*
X166854095Y65050789D02*
X166901714Y65146027D01*
X166901714Y65146027D02*
X166949333Y65193646D01*
X166949333Y65193646D02*
X167044571Y65241265D01*
X117689333Y44630181D02*
X117356000Y45106372D01*
X117117905Y44630181D02*
X117117905Y45630181D01*
X117117905Y45630181D02*
X117498857Y45630181D01*
X117498857Y45630181D02*
X117594095Y45582562D01*
X117594095Y45582562D02*
X117641714Y45534943D01*
X117641714Y45534943D02*
X117689333Y45439705D01*
X117689333Y45439705D02*
X117689333Y45296848D01*
X117689333Y45296848D02*
X117641714Y45201610D01*
X117641714Y45201610D02*
X117594095Y45153991D01*
X117594095Y45153991D02*
X117498857Y45106372D01*
X117498857Y45106372D02*
X117117905Y45106372D01*
X118546476Y45296848D02*
X118546476Y44630181D01*
X118308381Y45677800D02*
X118070286Y44963515D01*
X118070286Y44963515D02*
X118689333Y44963515D01*
X11684095Y46900181D02*
X11684095Y46090658D01*
X11684095Y46090658D02*
X11731714Y45995420D01*
X11731714Y45995420D02*
X11779333Y45947800D01*
X11779333Y45947800D02*
X11874571Y45900181D01*
X11874571Y45900181D02*
X12065047Y45900181D01*
X12065047Y45900181D02*
X12160285Y45947800D01*
X12160285Y45947800D02*
X12207904Y45995420D01*
X12207904Y45995420D02*
X12255523Y46090658D01*
X12255523Y46090658D02*
X12255523Y46900181D01*
X12636476Y46900181D02*
X13255523Y46900181D01*
X13255523Y46900181D02*
X12922190Y46519229D01*
X12922190Y46519229D02*
X13065047Y46519229D01*
X13065047Y46519229D02*
X13160285Y46471610D01*
X13160285Y46471610D02*
X13207904Y46423991D01*
X13207904Y46423991D02*
X13255523Y46328753D01*
X13255523Y46328753D02*
X13255523Y46090658D01*
X13255523Y46090658D02*
X13207904Y45995420D01*
X13207904Y45995420D02*
X13160285Y45947800D01*
X13160285Y45947800D02*
X13065047Y45900181D01*
X13065047Y45900181D02*
X12779333Y45900181D01*
X12779333Y45900181D02*
X12684095Y45947800D01*
X12684095Y45947800D02*
X12636476Y45995420D01*
X19344095Y40550181D02*
X20010761Y40550181D01*
X20010761Y40550181D02*
X19582190Y39550181D01*
X20820285Y40216848D02*
X20820285Y39550181D01*
X20582190Y40597800D02*
X20344095Y39883515D01*
X20344095Y39883515D02*
X20963142Y39883515D01*
X21344095Y39550181D02*
X21344095Y40550181D01*
X21344095Y40073991D02*
X21915523Y40073991D01*
X21915523Y39550181D02*
X21915523Y40550181D01*
X22963142Y39645420D02*
X22915523Y39597800D01*
X22915523Y39597800D02*
X22772666Y39550181D01*
X22772666Y39550181D02*
X22677428Y39550181D01*
X22677428Y39550181D02*
X22534571Y39597800D01*
X22534571Y39597800D02*
X22439333Y39693039D01*
X22439333Y39693039D02*
X22391714Y39788277D01*
X22391714Y39788277D02*
X22344095Y39978753D01*
X22344095Y39978753D02*
X22344095Y40121610D01*
X22344095Y40121610D02*
X22391714Y40312086D01*
X22391714Y40312086D02*
X22439333Y40407324D01*
X22439333Y40407324D02*
X22534571Y40502562D01*
X22534571Y40502562D02*
X22677428Y40550181D01*
X22677428Y40550181D02*
X22772666Y40550181D01*
X22772666Y40550181D02*
X22915523Y40502562D01*
X22915523Y40502562D02*
X22963142Y40454943D01*
X23867904Y40550181D02*
X23391714Y40550181D01*
X23391714Y40550181D02*
X23344095Y40073991D01*
X23344095Y40073991D02*
X23391714Y40121610D01*
X23391714Y40121610D02*
X23486952Y40169229D01*
X23486952Y40169229D02*
X23725047Y40169229D01*
X23725047Y40169229D02*
X23820285Y40121610D01*
X23820285Y40121610D02*
X23867904Y40073991D01*
X23867904Y40073991D02*
X23915523Y39978753D01*
X23915523Y39978753D02*
X23915523Y39740658D01*
X23915523Y39740658D02*
X23867904Y39645420D01*
X23867904Y39645420D02*
X23820285Y39597800D01*
X23820285Y39597800D02*
X23725047Y39550181D01*
X23725047Y39550181D02*
X23486952Y39550181D01*
X23486952Y39550181D02*
X23391714Y39597800D01*
X23391714Y39597800D02*
X23344095Y39645420D01*
X24248857Y40550181D02*
X24915523Y40550181D01*
X24915523Y40550181D02*
X24486952Y39550181D01*
X25725047Y40216848D02*
X25725047Y39550181D01*
X25486952Y40597800D02*
X25248857Y39883515D01*
X25248857Y39883515D02*
X25867904Y39883515D01*
X119753142Y64950181D02*
X119419809Y65426372D01*
X119181714Y64950181D02*
X119181714Y65950181D01*
X119181714Y65950181D02*
X119562666Y65950181D01*
X119562666Y65950181D02*
X119657904Y65902562D01*
X119657904Y65902562D02*
X119705523Y65854943D01*
X119705523Y65854943D02*
X119753142Y65759705D01*
X119753142Y65759705D02*
X119753142Y65616848D01*
X119753142Y65616848D02*
X119705523Y65521610D01*
X119705523Y65521610D02*
X119657904Y65473991D01*
X119657904Y65473991D02*
X119562666Y65426372D01*
X119562666Y65426372D02*
X119181714Y65426372D01*
X120134095Y65854943D02*
X120181714Y65902562D01*
X120181714Y65902562D02*
X120276952Y65950181D01*
X120276952Y65950181D02*
X120515047Y65950181D01*
X120515047Y65950181D02*
X120610285Y65902562D01*
X120610285Y65902562D02*
X120657904Y65854943D01*
X120657904Y65854943D02*
X120705523Y65759705D01*
X120705523Y65759705D02*
X120705523Y65664467D01*
X120705523Y65664467D02*
X120657904Y65521610D01*
X120657904Y65521610D02*
X120086476Y64950181D01*
X120086476Y64950181D02*
X120705523Y64950181D01*
X121562666Y65616848D02*
X121562666Y64950181D01*
X121324571Y65997800D02*
X121086476Y65283515D01*
X121086476Y65283515D02*
X121705523Y65283515D01*
X137898471Y58063142D02*
X137898471Y57253619D01*
X137898471Y57253619D02*
X137946090Y57158381D01*
X137946090Y57158381D02*
X137993709Y57110761D01*
X137993709Y57110761D02*
X138088947Y57063142D01*
X138088947Y57063142D02*
X138279423Y57063142D01*
X138279423Y57063142D02*
X138374661Y57110761D01*
X138374661Y57110761D02*
X138422280Y57158381D01*
X138422280Y57158381D02*
X138469899Y57253619D01*
X138469899Y57253619D02*
X138469899Y58063142D01*
X139469899Y57063142D02*
X138898471Y57063142D01*
X139184185Y57063142D02*
X139184185Y58063142D01*
X139184185Y58063142D02*
X139088947Y57920285D01*
X139088947Y57920285D02*
X138993709Y57825047D01*
X138993709Y57825047D02*
X138898471Y57777428D01*
X140374661Y58063142D02*
X139898471Y58063142D01*
X139898471Y58063142D02*
X139850852Y57586952D01*
X139850852Y57586952D02*
X139898471Y57634571D01*
X139898471Y57634571D02*
X139993709Y57682190D01*
X139993709Y57682190D02*
X140231804Y57682190D01*
X140231804Y57682190D02*
X140327042Y57634571D01*
X140327042Y57634571D02*
X140374661Y57586952D01*
X140374661Y57586952D02*
X140422280Y57491714D01*
X140422280Y57491714D02*
X140422280Y57253619D01*
X140422280Y57253619D02*
X140374661Y57158381D01*
X140374661Y57158381D02*
X140327042Y57110761D01*
X140327042Y57110761D02*
X140231804Y57063142D01*
X140231804Y57063142D02*
X139993709Y57063142D01*
X139993709Y57063142D02*
X139898471Y57110761D01*
X139898471Y57110761D02*
X139850852Y57158381D01*
X143010286Y51980181D02*
X143676952Y51980181D01*
X143676952Y51980181D02*
X143248381Y50980181D01*
X144486476Y51646848D02*
X144486476Y50980181D01*
X144248381Y52027800D02*
X144010286Y51313515D01*
X144010286Y51313515D02*
X144629333Y51313515D01*
X145010286Y50980181D02*
X145010286Y51980181D01*
X145010286Y51503991D02*
X145581714Y51503991D01*
X145581714Y50980181D02*
X145581714Y51980181D01*
X146629333Y51075420D02*
X146581714Y51027800D01*
X146581714Y51027800D02*
X146438857Y50980181D01*
X146438857Y50980181D02*
X146343619Y50980181D01*
X146343619Y50980181D02*
X146200762Y51027800D01*
X146200762Y51027800D02*
X146105524Y51123039D01*
X146105524Y51123039D02*
X146057905Y51218277D01*
X146057905Y51218277D02*
X146010286Y51408753D01*
X146010286Y51408753D02*
X146010286Y51551610D01*
X146010286Y51551610D02*
X146057905Y51742086D01*
X146057905Y51742086D02*
X146105524Y51837324D01*
X146105524Y51837324D02*
X146200762Y51932562D01*
X146200762Y51932562D02*
X146343619Y51980181D01*
X146343619Y51980181D02*
X146438857Y51980181D01*
X146438857Y51980181D02*
X146581714Y51932562D01*
X146581714Y51932562D02*
X146629333Y51884943D01*
X147248381Y51980181D02*
X147343619Y51980181D01*
X147343619Y51980181D02*
X147438857Y51932562D01*
X147438857Y51932562D02*
X147486476Y51884943D01*
X147486476Y51884943D02*
X147534095Y51789705D01*
X147534095Y51789705D02*
X147581714Y51599229D01*
X147581714Y51599229D02*
X147581714Y51361134D01*
X147581714Y51361134D02*
X147534095Y51170658D01*
X147534095Y51170658D02*
X147486476Y51075420D01*
X147486476Y51075420D02*
X147438857Y51027800D01*
X147438857Y51027800D02*
X147343619Y50980181D01*
X147343619Y50980181D02*
X147248381Y50980181D01*
X147248381Y50980181D02*
X147153143Y51027800D01*
X147153143Y51027800D02*
X147105524Y51075420D01*
X147105524Y51075420D02*
X147057905Y51170658D01*
X147057905Y51170658D02*
X147010286Y51361134D01*
X147010286Y51361134D02*
X147010286Y51599229D01*
X147010286Y51599229D02*
X147057905Y51789705D01*
X147057905Y51789705D02*
X147105524Y51884943D01*
X147105524Y51884943D02*
X147153143Y51932562D01*
X147153143Y51932562D02*
X147248381Y51980181D01*
X148200762Y51980181D02*
X148296000Y51980181D01*
X148296000Y51980181D02*
X148391238Y51932562D01*
X148391238Y51932562D02*
X148438857Y51884943D01*
X148438857Y51884943D02*
X148486476Y51789705D01*
X148486476Y51789705D02*
X148534095Y51599229D01*
X148534095Y51599229D02*
X148534095Y51361134D01*
X148534095Y51361134D02*
X148486476Y51170658D01*
X148486476Y51170658D02*
X148438857Y51075420D01*
X148438857Y51075420D02*
X148391238Y51027800D01*
X148391238Y51027800D02*
X148296000Y50980181D01*
X148296000Y50980181D02*
X148200762Y50980181D01*
X148200762Y50980181D02*
X148105524Y51027800D01*
X148105524Y51027800D02*
X148057905Y51075420D01*
X148057905Y51075420D02*
X148010286Y51170658D01*
X148010286Y51170658D02*
X147962667Y51361134D01*
X147962667Y51361134D02*
X147962667Y51599229D01*
X147962667Y51599229D02*
X148010286Y51789705D01*
X148010286Y51789705D02*
X148057905Y51884943D01*
X148057905Y51884943D02*
X148105524Y51932562D01*
X148105524Y51932562D02*
X148200762Y51980181D01*
X133723142Y54250420D02*
X133675523Y54202800D01*
X133675523Y54202800D02*
X133532666Y54155181D01*
X133532666Y54155181D02*
X133437428Y54155181D01*
X133437428Y54155181D02*
X133294571Y54202800D01*
X133294571Y54202800D02*
X133199333Y54298039D01*
X133199333Y54298039D02*
X133151714Y54393277D01*
X133151714Y54393277D02*
X133104095Y54583753D01*
X133104095Y54583753D02*
X133104095Y54726610D01*
X133104095Y54726610D02*
X133151714Y54917086D01*
X133151714Y54917086D02*
X133199333Y55012324D01*
X133199333Y55012324D02*
X133294571Y55107562D01*
X133294571Y55107562D02*
X133437428Y55155181D01*
X133437428Y55155181D02*
X133532666Y55155181D01*
X133532666Y55155181D02*
X133675523Y55107562D01*
X133675523Y55107562D02*
X133723142Y55059943D01*
X134675523Y54155181D02*
X134104095Y54155181D01*
X134389809Y54155181D02*
X134389809Y55155181D01*
X134389809Y55155181D02*
X134294571Y55012324D01*
X134294571Y55012324D02*
X134199333Y54917086D01*
X134199333Y54917086D02*
X134104095Y54869467D01*
X135580285Y55155181D02*
X135104095Y55155181D01*
X135104095Y55155181D02*
X135056476Y54678991D01*
X135056476Y54678991D02*
X135104095Y54726610D01*
X135104095Y54726610D02*
X135199333Y54774229D01*
X135199333Y54774229D02*
X135437428Y54774229D01*
X135437428Y54774229D02*
X135532666Y54726610D01*
X135532666Y54726610D02*
X135580285Y54678991D01*
X135580285Y54678991D02*
X135627904Y54583753D01*
X135627904Y54583753D02*
X135627904Y54345658D01*
X135627904Y54345658D02*
X135580285Y54250420D01*
X135580285Y54250420D02*
X135532666Y54202800D01*
X135532666Y54202800D02*
X135437428Y54155181D01*
X135437428Y54155181D02*
X135199333Y54155181D01*
X135199333Y54155181D02*
X135104095Y54202800D01*
X135104095Y54202800D02*
X135056476Y54250420D01*
D12*
X131460242Y64578387D02*
X131460242Y64006959D01*
X131460242Y64006959D02*
X131431671Y63892673D01*
X131431671Y63892673D02*
X131374528Y63816482D01*
X131374528Y63816482D02*
X131288814Y63778387D01*
X131288814Y63778387D02*
X131231671Y63778387D01*
X131745957Y63778387D02*
X131745957Y64578387D01*
X131745957Y64578387D02*
X131974528Y64578387D01*
X131974528Y64578387D02*
X132031671Y64540292D01*
X132031671Y64540292D02*
X132060242Y64502197D01*
X132060242Y64502197D02*
X132088814Y64426006D01*
X132088814Y64426006D02*
X132088814Y64311721D01*
X132088814Y64311721D02*
X132060242Y64235530D01*
X132060242Y64235530D02*
X132031671Y64197435D01*
X132031671Y64197435D02*
X131974528Y64159340D01*
X131974528Y64159340D02*
X131745957Y64159340D01*
X132317385Y64502197D02*
X132345957Y64540292D01*
X132345957Y64540292D02*
X132403100Y64578387D01*
X132403100Y64578387D02*
X132545957Y64578387D01*
X132545957Y64578387D02*
X132603100Y64540292D01*
X132603100Y64540292D02*
X132631671Y64502197D01*
X132631671Y64502197D02*
X132660242Y64426006D01*
X132660242Y64426006D02*
X132660242Y64349816D01*
X132660242Y64349816D02*
X132631671Y64235530D01*
X132631671Y64235530D02*
X132288814Y63778387D01*
X132288814Y63778387D02*
X132660242Y63778387D01*
X133203100Y64578387D02*
X132917386Y64578387D01*
X132917386Y64578387D02*
X132888814Y64197435D01*
X132888814Y64197435D02*
X132917386Y64235530D01*
X132917386Y64235530D02*
X132974529Y64273625D01*
X132974529Y64273625D02*
X133117386Y64273625D01*
X133117386Y64273625D02*
X133174529Y64235530D01*
X133174529Y64235530D02*
X133203100Y64197435D01*
X133203100Y64197435D02*
X133231671Y64121244D01*
X133231671Y64121244D02*
X133231671Y63930768D01*
X133231671Y63930768D02*
X133203100Y63854578D01*
X133203100Y63854578D02*
X133174529Y63816482D01*
X133174529Y63816482D02*
X133117386Y63778387D01*
X133117386Y63778387D02*
X132974529Y63778387D01*
X132974529Y63778387D02*
X132917386Y63816482D01*
X132917386Y63816482D02*
X132888814Y63854578D01*
D10*
X124642666Y44995181D02*
X124642666Y44280896D01*
X124642666Y44280896D02*
X124595047Y44138039D01*
X124595047Y44138039D02*
X124499809Y44042800D01*
X124499809Y44042800D02*
X124356952Y43995181D01*
X124356952Y43995181D02*
X124261714Y43995181D01*
X125118857Y43995181D02*
X125118857Y44995181D01*
X125118857Y44995181D02*
X125499809Y44995181D01*
X125499809Y44995181D02*
X125595047Y44947562D01*
X125595047Y44947562D02*
X125642666Y44899943D01*
X125642666Y44899943D02*
X125690285Y44804705D01*
X125690285Y44804705D02*
X125690285Y44661848D01*
X125690285Y44661848D02*
X125642666Y44566610D01*
X125642666Y44566610D02*
X125595047Y44518991D01*
X125595047Y44518991D02*
X125499809Y44471372D01*
X125499809Y44471372D02*
X125118857Y44471372D01*
X126071238Y44899943D02*
X126118857Y44947562D01*
X126118857Y44947562D02*
X126214095Y44995181D01*
X126214095Y44995181D02*
X126452190Y44995181D01*
X126452190Y44995181D02*
X126547428Y44947562D01*
X126547428Y44947562D02*
X126595047Y44899943D01*
X126595047Y44899943D02*
X126642666Y44804705D01*
X126642666Y44804705D02*
X126642666Y44709467D01*
X126642666Y44709467D02*
X126595047Y44566610D01*
X126595047Y44566610D02*
X126023619Y43995181D01*
X126023619Y43995181D02*
X126642666Y43995181D01*
X110863142Y54925420D02*
X110815523Y54877800D01*
X110815523Y54877800D02*
X110672666Y54830181D01*
X110672666Y54830181D02*
X110577428Y54830181D01*
X110577428Y54830181D02*
X110434571Y54877800D01*
X110434571Y54877800D02*
X110339333Y54973039D01*
X110339333Y54973039D02*
X110291714Y55068277D01*
X110291714Y55068277D02*
X110244095Y55258753D01*
X110244095Y55258753D02*
X110244095Y55401610D01*
X110244095Y55401610D02*
X110291714Y55592086D01*
X110291714Y55592086D02*
X110339333Y55687324D01*
X110339333Y55687324D02*
X110434571Y55782562D01*
X110434571Y55782562D02*
X110577428Y55830181D01*
X110577428Y55830181D02*
X110672666Y55830181D01*
X110672666Y55830181D02*
X110815523Y55782562D01*
X110815523Y55782562D02*
X110863142Y55734943D01*
X111815523Y54830181D02*
X111244095Y54830181D01*
X111529809Y54830181D02*
X111529809Y55830181D01*
X111529809Y55830181D02*
X111434571Y55687324D01*
X111434571Y55687324D02*
X111339333Y55592086D01*
X111339333Y55592086D02*
X111244095Y55544467D01*
X112386952Y55401610D02*
X112291714Y55449229D01*
X112291714Y55449229D02*
X112244095Y55496848D01*
X112244095Y55496848D02*
X112196476Y55592086D01*
X112196476Y55592086D02*
X112196476Y55639705D01*
X112196476Y55639705D02*
X112244095Y55734943D01*
X112244095Y55734943D02*
X112291714Y55782562D01*
X112291714Y55782562D02*
X112386952Y55830181D01*
X112386952Y55830181D02*
X112577428Y55830181D01*
X112577428Y55830181D02*
X112672666Y55782562D01*
X112672666Y55782562D02*
X112720285Y55734943D01*
X112720285Y55734943D02*
X112767904Y55639705D01*
X112767904Y55639705D02*
X112767904Y55592086D01*
X112767904Y55592086D02*
X112720285Y55496848D01*
X112720285Y55496848D02*
X112672666Y55449229D01*
X112672666Y55449229D02*
X112577428Y55401610D01*
X112577428Y55401610D02*
X112386952Y55401610D01*
X112386952Y55401610D02*
X112291714Y55353991D01*
X112291714Y55353991D02*
X112244095Y55306372D01*
X112244095Y55306372D02*
X112196476Y55211134D01*
X112196476Y55211134D02*
X112196476Y55020658D01*
X112196476Y55020658D02*
X112244095Y54925420D01*
X112244095Y54925420D02*
X112291714Y54877800D01*
X112291714Y54877800D02*
X112386952Y54830181D01*
X112386952Y54830181D02*
X112577428Y54830181D01*
X112577428Y54830181D02*
X112672666Y54877800D01*
X112672666Y54877800D02*
X112720285Y54925420D01*
X112720285Y54925420D02*
X112767904Y55020658D01*
X112767904Y55020658D02*
X112767904Y55211134D01*
X112767904Y55211134D02*
X112720285Y55306372D01*
X112720285Y55306372D02*
X112672666Y55353991D01*
X112672666Y55353991D02*
X112577428Y55401610D01*
X18034095Y31660181D02*
X18034095Y30850658D01*
X18034095Y30850658D02*
X18081714Y30755420D01*
X18081714Y30755420D02*
X18129333Y30707800D01*
X18129333Y30707800D02*
X18224571Y30660181D01*
X18224571Y30660181D02*
X18415047Y30660181D01*
X18415047Y30660181D02*
X18510285Y30707800D01*
X18510285Y30707800D02*
X18557904Y30755420D01*
X18557904Y30755420D02*
X18605523Y30850658D01*
X18605523Y30850658D02*
X18605523Y31660181D01*
X19034095Y31564943D02*
X19081714Y31612562D01*
X19081714Y31612562D02*
X19176952Y31660181D01*
X19176952Y31660181D02*
X19415047Y31660181D01*
X19415047Y31660181D02*
X19510285Y31612562D01*
X19510285Y31612562D02*
X19557904Y31564943D01*
X19557904Y31564943D02*
X19605523Y31469705D01*
X19605523Y31469705D02*
X19605523Y31374467D01*
X19605523Y31374467D02*
X19557904Y31231610D01*
X19557904Y31231610D02*
X18986476Y30660181D01*
X18986476Y30660181D02*
X19605523Y30660181D01*
X25694095Y25310181D02*
X26360761Y25310181D01*
X26360761Y25310181D02*
X25932190Y24310181D01*
X27170285Y24976848D02*
X27170285Y24310181D01*
X26932190Y25357800D02*
X26694095Y24643515D01*
X26694095Y24643515D02*
X27313142Y24643515D01*
X27694095Y24310181D02*
X27694095Y25310181D01*
X27694095Y24833991D02*
X28265523Y24833991D01*
X28265523Y24310181D02*
X28265523Y25310181D01*
X29313142Y24405420D02*
X29265523Y24357800D01*
X29265523Y24357800D02*
X29122666Y24310181D01*
X29122666Y24310181D02*
X29027428Y24310181D01*
X29027428Y24310181D02*
X28884571Y24357800D01*
X28884571Y24357800D02*
X28789333Y24453039D01*
X28789333Y24453039D02*
X28741714Y24548277D01*
X28741714Y24548277D02*
X28694095Y24738753D01*
X28694095Y24738753D02*
X28694095Y24881610D01*
X28694095Y24881610D02*
X28741714Y25072086D01*
X28741714Y25072086D02*
X28789333Y25167324D01*
X28789333Y25167324D02*
X28884571Y25262562D01*
X28884571Y25262562D02*
X29027428Y25310181D01*
X29027428Y25310181D02*
X29122666Y25310181D01*
X29122666Y25310181D02*
X29265523Y25262562D01*
X29265523Y25262562D02*
X29313142Y25214943D01*
X30217904Y25310181D02*
X29741714Y25310181D01*
X29741714Y25310181D02*
X29694095Y24833991D01*
X29694095Y24833991D02*
X29741714Y24881610D01*
X29741714Y24881610D02*
X29836952Y24929229D01*
X29836952Y24929229D02*
X30075047Y24929229D01*
X30075047Y24929229D02*
X30170285Y24881610D01*
X30170285Y24881610D02*
X30217904Y24833991D01*
X30217904Y24833991D02*
X30265523Y24738753D01*
X30265523Y24738753D02*
X30265523Y24500658D01*
X30265523Y24500658D02*
X30217904Y24405420D01*
X30217904Y24405420D02*
X30170285Y24357800D01*
X30170285Y24357800D02*
X30075047Y24310181D01*
X30075047Y24310181D02*
X29836952Y24310181D01*
X29836952Y24310181D02*
X29741714Y24357800D01*
X29741714Y24357800D02*
X29694095Y24405420D01*
X30598857Y25310181D02*
X31265523Y25310181D01*
X31265523Y25310181D02*
X30836952Y24310181D01*
X32075047Y24976848D02*
X32075047Y24310181D01*
X31836952Y25357800D02*
X31598857Y24643515D01*
X31598857Y24643515D02*
X32217904Y24643515D01*
X74549095Y44360181D02*
X74549095Y43550658D01*
X74549095Y43550658D02*
X74596714Y43455420D01*
X74596714Y43455420D02*
X74644333Y43407800D01*
X74644333Y43407800D02*
X74739571Y43360181D01*
X74739571Y43360181D02*
X74930047Y43360181D01*
X74930047Y43360181D02*
X75025285Y43407800D01*
X75025285Y43407800D02*
X75072904Y43455420D01*
X75072904Y43455420D02*
X75120523Y43550658D01*
X75120523Y43550658D02*
X75120523Y44360181D01*
X76072904Y44360181D02*
X75596714Y44360181D01*
X75596714Y44360181D02*
X75549095Y43883991D01*
X75549095Y43883991D02*
X75596714Y43931610D01*
X75596714Y43931610D02*
X75691952Y43979229D01*
X75691952Y43979229D02*
X75930047Y43979229D01*
X75930047Y43979229D02*
X76025285Y43931610D01*
X76025285Y43931610D02*
X76072904Y43883991D01*
X76072904Y43883991D02*
X76120523Y43788753D01*
X76120523Y43788753D02*
X76120523Y43550658D01*
X76120523Y43550658D02*
X76072904Y43455420D01*
X76072904Y43455420D02*
X76025285Y43407800D01*
X76025285Y43407800D02*
X75930047Y43360181D01*
X75930047Y43360181D02*
X75691952Y43360181D01*
X75691952Y43360181D02*
X75596714Y43407800D01*
X75596714Y43407800D02*
X75549095Y43455420D01*
X79669095Y38010181D02*
X80335761Y38010181D01*
X80335761Y38010181D02*
X79907190Y37010181D01*
X81145285Y37676848D02*
X81145285Y37010181D01*
X80907190Y38057800D02*
X80669095Y37343515D01*
X80669095Y37343515D02*
X81288142Y37343515D01*
X81669095Y37010181D02*
X81669095Y38010181D01*
X81669095Y37533991D02*
X82240523Y37533991D01*
X82240523Y37010181D02*
X82240523Y38010181D01*
X83288142Y37105420D02*
X83240523Y37057800D01*
X83240523Y37057800D02*
X83097666Y37010181D01*
X83097666Y37010181D02*
X83002428Y37010181D01*
X83002428Y37010181D02*
X82859571Y37057800D01*
X82859571Y37057800D02*
X82764333Y37153039D01*
X82764333Y37153039D02*
X82716714Y37248277D01*
X82716714Y37248277D02*
X82669095Y37438753D01*
X82669095Y37438753D02*
X82669095Y37581610D01*
X82669095Y37581610D02*
X82716714Y37772086D01*
X82716714Y37772086D02*
X82764333Y37867324D01*
X82764333Y37867324D02*
X82859571Y37962562D01*
X82859571Y37962562D02*
X83002428Y38010181D01*
X83002428Y38010181D02*
X83097666Y38010181D01*
X83097666Y38010181D02*
X83240523Y37962562D01*
X83240523Y37962562D02*
X83288142Y37914943D01*
X84240523Y37010181D02*
X83669095Y37010181D01*
X83954809Y37010181D02*
X83954809Y38010181D01*
X83954809Y38010181D02*
X83859571Y37867324D01*
X83859571Y37867324D02*
X83764333Y37772086D01*
X83764333Y37772086D02*
X83669095Y37724467D01*
X84573857Y38010181D02*
X85192904Y38010181D01*
X85192904Y38010181D02*
X84859571Y37629229D01*
X84859571Y37629229D02*
X85002428Y37629229D01*
X85002428Y37629229D02*
X85097666Y37581610D01*
X85097666Y37581610D02*
X85145285Y37533991D01*
X85145285Y37533991D02*
X85192904Y37438753D01*
X85192904Y37438753D02*
X85192904Y37200658D01*
X85192904Y37200658D02*
X85145285Y37105420D01*
X85145285Y37105420D02*
X85097666Y37057800D01*
X85097666Y37057800D02*
X85002428Y37010181D01*
X85002428Y37010181D02*
X84716714Y37010181D01*
X84716714Y37010181D02*
X84621476Y37057800D01*
X84621476Y37057800D02*
X84573857Y37105420D01*
X85764333Y37581610D02*
X85669095Y37629229D01*
X85669095Y37629229D02*
X85621476Y37676848D01*
X85621476Y37676848D02*
X85573857Y37772086D01*
X85573857Y37772086D02*
X85573857Y37819705D01*
X85573857Y37819705D02*
X85621476Y37914943D01*
X85621476Y37914943D02*
X85669095Y37962562D01*
X85669095Y37962562D02*
X85764333Y38010181D01*
X85764333Y38010181D02*
X85954809Y38010181D01*
X85954809Y38010181D02*
X86050047Y37962562D01*
X86050047Y37962562D02*
X86097666Y37914943D01*
X86097666Y37914943D02*
X86145285Y37819705D01*
X86145285Y37819705D02*
X86145285Y37772086D01*
X86145285Y37772086D02*
X86097666Y37676848D01*
X86097666Y37676848D02*
X86050047Y37629229D01*
X86050047Y37629229D02*
X85954809Y37581610D01*
X85954809Y37581610D02*
X85764333Y37581610D01*
X85764333Y37581610D02*
X85669095Y37533991D01*
X85669095Y37533991D02*
X85621476Y37486372D01*
X85621476Y37486372D02*
X85573857Y37391134D01*
X85573857Y37391134D02*
X85573857Y37200658D01*
X85573857Y37200658D02*
X85621476Y37105420D01*
X85621476Y37105420D02*
X85669095Y37057800D01*
X85669095Y37057800D02*
X85764333Y37010181D01*
X85764333Y37010181D02*
X85954809Y37010181D01*
X85954809Y37010181D02*
X86050047Y37057800D01*
X86050047Y37057800D02*
X86097666Y37105420D01*
X86097666Y37105420D02*
X86145285Y37200658D01*
X86145285Y37200658D02*
X86145285Y37391134D01*
X86145285Y37391134D02*
X86097666Y37486372D01*
X86097666Y37486372D02*
X86050047Y37533991D01*
X86050047Y37533991D02*
X85954809Y37581610D01*
D12*
X6246000Y41645000D02*
X6246000Y38405000D01*
X6311000Y41645000D02*
X6246000Y41645000D01*
X6311000Y38405000D02*
X6246000Y38405000D01*
X8486000Y41645000D02*
X8421000Y41645000D01*
X8486000Y41645000D02*
X8486000Y38405000D01*
X8486000Y38405000D02*
X8421000Y38405000D01*
X143256000Y61945000D02*
X143256000Y61325000D01*
X144176000Y62865000D02*
G75*
G02*
X142336000Y62865000I-920000J0D01*
G01*
X142336000Y62865000D02*
G75*
G02*
X144176000Y62865000I920000J0D01*
G01*
X147701000Y27590000D02*
X147701000Y28210000D01*
X148621000Y26670000D02*
G75*
G02*
X146781000Y26670000I-920000J0D01*
G01*
X146781000Y26670000D02*
G75*
G02*
X148621000Y26670000I920000J0D01*
G01*
X171831000Y23845000D02*
X171831000Y23225000D01*
X172751000Y24765000D02*
G75*
G02*
X170911000Y24765000I-920000J0D01*
G01*
X170911000Y24765000D02*
G75*
G02*
X172751000Y24765000I920000J0D01*
G01*
X159646000Y56575000D02*
X159646000Y46295000D01*
X159646000Y46295000D02*
X177666000Y46295000D01*
X159706000Y54085000D02*
X159706000Y52435000D01*
X159706000Y50435000D02*
X159706000Y48785000D01*
X159706000Y48785000D02*
X177606000Y48785000D01*
X177606000Y54085000D02*
X159706000Y54085000D01*
X177606000Y48785000D02*
X177606000Y54085000D01*
X177666000Y56575000D02*
X159646000Y56575000D01*
X177666000Y46295000D02*
X177666000Y56575000D01*
X159706000Y52435000D02*
G75*
G02*
X159706000Y50435000I0J-1000000D01*
G01*
X69111000Y40375000D02*
X69111000Y37135000D01*
X69176000Y40375000D02*
X69111000Y40375000D01*
X69176000Y37135000D02*
X69111000Y37135000D01*
X71351000Y40375000D02*
X71286000Y40375000D01*
X71351000Y40375000D02*
X71351000Y37135000D01*
X71351000Y37135000D02*
X71286000Y37135000D01*
X68206000Y63560000D02*
X68206000Y45660000D01*
X68206000Y45660000D02*
X109086000Y45660000D01*
X68266000Y61070000D02*
X68266000Y55610000D01*
X68266000Y53610000D02*
X68266000Y48150000D01*
X68266000Y48150000D02*
X109026000Y48150000D01*
X109026000Y61070000D02*
X68266000Y61070000D01*
X109026000Y48150000D02*
X109026000Y61070000D01*
X109086000Y63560000D02*
X68206000Y63560000D01*
X109086000Y45660000D02*
X109086000Y63560000D01*
X68266000Y55610000D02*
G75*
G02*
X68266000Y53610000I0J-1000000D01*
G01*
X59086000Y63500000D02*
X59706000Y63500000D01*
X59086000Y63500000D02*
G75*
G02*
X57246000Y63500000I-920000J0D01*
G01*
X57246000Y63500000D02*
G75*
G02*
X59086000Y63500000I920000J0D01*
G01*
X43076000Y26405000D02*
X43076000Y23165000D01*
X43141000Y26405000D02*
X43076000Y26405000D01*
X43141000Y23165000D02*
X43076000Y23165000D01*
X45316000Y26405000D02*
X45251000Y26405000D01*
X45316000Y26405000D02*
X45316000Y23165000D01*
X45316000Y23165000D02*
X45251000Y23165000D01*
X173736000Y61245000D02*
X173736000Y61865000D01*
X174656000Y60325000D02*
G75*
G02*
X172816000Y60325000I-920000J0D01*
G01*
X172816000Y60325000D02*
G75*
G02*
X174656000Y60325000I920000J0D01*
G01*
X99956000Y42605000D02*
X99956000Y32325000D01*
X99956000Y32325000D02*
X125596000Y32325000D01*
X100016000Y40115000D02*
X100016000Y38465000D01*
X100016000Y36465000D02*
X100016000Y34815000D01*
X100016000Y34815000D02*
X125536000Y34815000D01*
X125536000Y40115000D02*
X100016000Y40115000D01*
X125536000Y34815000D02*
X125536000Y40115000D01*
X125596000Y42605000D02*
X99956000Y42605000D01*
X125596000Y32325000D02*
X125596000Y42605000D01*
X100016000Y38465000D02*
G75*
G02*
X100016000Y36465000I0J-1000000D01*
G01*
X41536000Y61655000D02*
X41536000Y51375000D01*
X41536000Y51375000D02*
X62096000Y51375000D01*
X41596000Y59165000D02*
X41596000Y57515000D01*
X41596000Y55515000D02*
X41596000Y53865000D01*
X41596000Y53865000D02*
X62036000Y53865000D01*
X62036000Y59165000D02*
X41596000Y59165000D01*
X62036000Y53865000D02*
X62036000Y59165000D01*
X62096000Y61655000D02*
X41536000Y61655000D01*
X62096000Y51375000D02*
X62096000Y61655000D01*
X41596000Y57515000D02*
G75*
G02*
X41596000Y55515000I0J-1000000D01*
G01*
X131766000Y61655000D02*
X131766000Y58995000D01*
X136906000Y61655000D02*
X131766000Y61655000D01*
X136906000Y61655000D02*
X136906000Y58995000D01*
X136906000Y58995000D02*
X131766000Y58995000D01*
X138176000Y61655000D02*
X139506000Y61655000D01*
X139506000Y61655000D02*
X139506000Y60325000D01*
X3845759Y32319000D02*
X4475759Y32319000D01*
X4160759Y32634000D02*
X4160759Y32004000D01*
X7346000Y33710000D02*
X7346000Y27250000D01*
X7386000Y33710000D02*
X7386000Y27250000D01*
X7426000Y33710000D02*
X7426000Y27250000D01*
X7466000Y33708000D02*
X7466000Y27252000D01*
X7506000Y33707000D02*
X7506000Y27253000D01*
X7546000Y33704000D02*
X7546000Y27256000D01*
X7586000Y33702000D02*
X7586000Y31520000D01*
X7586000Y29440000D02*
X7586000Y27258000D01*
X7626000Y33698000D02*
X7626000Y31520000D01*
X7626000Y29440000D02*
X7626000Y27262000D01*
X7666000Y33695000D02*
X7666000Y31520000D01*
X7666000Y29440000D02*
X7666000Y27265000D01*
X7706000Y33691000D02*
X7706000Y31520000D01*
X7706000Y29440000D02*
X7706000Y27269000D01*
X7746000Y33686000D02*
X7746000Y31520000D01*
X7746000Y29440000D02*
X7746000Y27274000D01*
X7786000Y33681000D02*
X7786000Y31520000D01*
X7786000Y29440000D02*
X7786000Y27279000D01*
X7826000Y33675000D02*
X7826000Y31520000D01*
X7826000Y29440000D02*
X7826000Y27285000D01*
X7866000Y33669000D02*
X7866000Y31520000D01*
X7866000Y29440000D02*
X7866000Y27291000D01*
X7906000Y33662000D02*
X7906000Y31520000D01*
X7906000Y29440000D02*
X7906000Y27298000D01*
X7946000Y33655000D02*
X7946000Y31520000D01*
X7946000Y29440000D02*
X7946000Y27305000D01*
X7986000Y33647000D02*
X7986000Y31520000D01*
X7986000Y29440000D02*
X7986000Y27313000D01*
X8026000Y33639000D02*
X8026000Y31520000D01*
X8026000Y29440000D02*
X8026000Y27321000D01*
X8067000Y33630000D02*
X8067000Y31520000D01*
X8067000Y29440000D02*
X8067000Y27330000D01*
X8107000Y33621000D02*
X8107000Y31520000D01*
X8107000Y29440000D02*
X8107000Y27339000D01*
X8147000Y33611000D02*
X8147000Y31520000D01*
X8147000Y29440000D02*
X8147000Y27349000D01*
X8187000Y33601000D02*
X8187000Y31520000D01*
X8187000Y29440000D02*
X8187000Y27359000D01*
X8227000Y33590000D02*
X8227000Y31520000D01*
X8227000Y29440000D02*
X8227000Y27370000D01*
X8267000Y33578000D02*
X8267000Y31520000D01*
X8267000Y29440000D02*
X8267000Y27382000D01*
X8307000Y33566000D02*
X8307000Y31520000D01*
X8307000Y29440000D02*
X8307000Y27394000D01*
X8347000Y33554000D02*
X8347000Y31520000D01*
X8347000Y29440000D02*
X8347000Y27406000D01*
X8387000Y33541000D02*
X8387000Y31520000D01*
X8387000Y29440000D02*
X8387000Y27419000D01*
X8427000Y33527000D02*
X8427000Y31520000D01*
X8427000Y29440000D02*
X8427000Y27433000D01*
X8467000Y33513000D02*
X8467000Y31520000D01*
X8467000Y29440000D02*
X8467000Y27447000D01*
X8507000Y33498000D02*
X8507000Y31520000D01*
X8507000Y29440000D02*
X8507000Y27462000D01*
X8547000Y33482000D02*
X8547000Y31520000D01*
X8547000Y29440000D02*
X8547000Y27478000D01*
X8587000Y33466000D02*
X8587000Y31520000D01*
X8587000Y29440000D02*
X8587000Y27494000D01*
X8627000Y33450000D02*
X8627000Y31520000D01*
X8627000Y29440000D02*
X8627000Y27510000D01*
X8667000Y33432000D02*
X8667000Y31520000D01*
X8667000Y29440000D02*
X8667000Y27528000D01*
X8707000Y33414000D02*
X8707000Y31520000D01*
X8707000Y29440000D02*
X8707000Y27546000D01*
X8747000Y33396000D02*
X8747000Y31520000D01*
X8747000Y29440000D02*
X8747000Y27564000D01*
X8787000Y33376000D02*
X8787000Y31520000D01*
X8787000Y29440000D02*
X8787000Y27584000D01*
X8827000Y33356000D02*
X8827000Y31520000D01*
X8827000Y29440000D02*
X8827000Y27604000D01*
X8867000Y33336000D02*
X8867000Y31520000D01*
X8867000Y29440000D02*
X8867000Y27624000D01*
X8907000Y33314000D02*
X8907000Y31520000D01*
X8907000Y29440000D02*
X8907000Y27646000D01*
X8947000Y33292000D02*
X8947000Y31520000D01*
X8947000Y29440000D02*
X8947000Y27668000D01*
X8987000Y33270000D02*
X8987000Y31520000D01*
X8987000Y29440000D02*
X8987000Y27690000D01*
X9027000Y33246000D02*
X9027000Y31520000D01*
X9027000Y29440000D02*
X9027000Y27714000D01*
X9067000Y33222000D02*
X9067000Y31520000D01*
X9067000Y29440000D02*
X9067000Y27738000D01*
X9107000Y33196000D02*
X9107000Y31520000D01*
X9107000Y29440000D02*
X9107000Y27764000D01*
X9147000Y33170000D02*
X9147000Y31520000D01*
X9147000Y29440000D02*
X9147000Y27790000D01*
X9187000Y33144000D02*
X9187000Y31520000D01*
X9187000Y29440000D02*
X9187000Y27816000D01*
X9227000Y33116000D02*
X9227000Y31520000D01*
X9227000Y29440000D02*
X9227000Y27844000D01*
X9267000Y33087000D02*
X9267000Y31520000D01*
X9267000Y29440000D02*
X9267000Y27873000D01*
X9307000Y33058000D02*
X9307000Y31520000D01*
X9307000Y29440000D02*
X9307000Y27902000D01*
X9347000Y33028000D02*
X9347000Y31520000D01*
X9347000Y29440000D02*
X9347000Y27932000D01*
X9387000Y32996000D02*
X9387000Y31520000D01*
X9387000Y29440000D02*
X9387000Y27964000D01*
X9427000Y32964000D02*
X9427000Y31520000D01*
X9427000Y29440000D02*
X9427000Y27996000D01*
X9467000Y32930000D02*
X9467000Y31520000D01*
X9467000Y29440000D02*
X9467000Y28030000D01*
X9507000Y32896000D02*
X9507000Y31520000D01*
X9507000Y29440000D02*
X9507000Y28064000D01*
X9547000Y32860000D02*
X9547000Y31520000D01*
X9547000Y29440000D02*
X9547000Y28100000D01*
X9587000Y32823000D02*
X9587000Y31520000D01*
X9587000Y29440000D02*
X9587000Y28137000D01*
X9627000Y32785000D02*
X9627000Y31520000D01*
X9627000Y29440000D02*
X9627000Y28175000D01*
X9667000Y32745000D02*
X9667000Y28215000D01*
X9707000Y32704000D02*
X9707000Y28256000D01*
X9747000Y32662000D02*
X9747000Y28298000D01*
X9787000Y32617000D02*
X9787000Y28343000D01*
X9827000Y32572000D02*
X9827000Y28388000D01*
X9867000Y32524000D02*
X9867000Y28436000D01*
X9907000Y32475000D02*
X9907000Y28485000D01*
X9947000Y32424000D02*
X9947000Y28536000D01*
X9987000Y32370000D02*
X9987000Y28590000D01*
X10027000Y32314000D02*
X10027000Y28646000D01*
X10067000Y32256000D02*
X10067000Y28704000D01*
X10107000Y32194000D02*
X10107000Y28766000D01*
X10147000Y32130000D02*
X10147000Y28830000D01*
X10187000Y32061000D02*
X10187000Y28899000D01*
X10227000Y31989000D02*
X10227000Y28971000D01*
X10267000Y31912000D02*
X10267000Y29048000D01*
X10307000Y31830000D02*
X10307000Y29130000D01*
X10347000Y31742000D02*
X10347000Y29218000D01*
X10387000Y31645000D02*
X10387000Y29315000D01*
X10427000Y31539000D02*
X10427000Y29421000D01*
X10467000Y31420000D02*
X10467000Y29540000D01*
X10507000Y31282000D02*
X10507000Y29678000D01*
X10547000Y31113000D02*
X10547000Y29847000D01*
X10587000Y30882000D02*
X10587000Y30078000D01*
X10616000Y30480000D02*
G75*
G02*
X4076000Y30480000I-3270000J0D01*
G01*
X4076000Y30480000D02*
G75*
G02*
X10616000Y30480000I3270000J0D01*
G01*
X173386000Y43815000D02*
X174006000Y43815000D01*
X173386000Y43815000D02*
G75*
G02*
X171546000Y43815000I-920000J0D01*
G01*
X171546000Y43815000D02*
G75*
G02*
X173386000Y43815000I920000J0D01*
G01*
X150756000Y26095000D02*
X150756000Y15815000D01*
X150756000Y15815000D02*
X168776000Y15815000D01*
X150816000Y23605000D02*
X150816000Y21955000D01*
X150816000Y19955000D02*
X150816000Y18305000D01*
X150816000Y18305000D02*
X168716000Y18305000D01*
X168716000Y23605000D02*
X150816000Y23605000D01*
X168716000Y18305000D02*
X168716000Y23605000D01*
X168776000Y26095000D02*
X150756000Y26095000D01*
X168776000Y15815000D02*
X168776000Y26095000D01*
X150816000Y21955000D02*
G75*
G02*
X150816000Y19955000I0J-1000000D01*
G01*
X130706000Y38470000D02*
X130706000Y35230000D01*
X130771000Y38470000D02*
X130706000Y38470000D01*
X130771000Y35230000D02*
X130706000Y35230000D01*
X132946000Y38470000D02*
X132881000Y38470000D01*
X132946000Y38470000D02*
X132946000Y35230000D01*
X132946000Y35230000D02*
X132881000Y35230000D01*
X103766000Y26730000D02*
X103766000Y16450000D01*
X103766000Y16450000D02*
X121786000Y16450000D01*
X103826000Y24240000D02*
X103826000Y22590000D01*
X103826000Y20590000D02*
X103826000Y18940000D01*
X103826000Y18940000D02*
X121726000Y18940000D01*
X121726000Y24240000D02*
X103826000Y24240000D01*
X121726000Y18940000D02*
X121726000Y24240000D01*
X121786000Y26730000D02*
X103766000Y26730000D01*
X121786000Y16450000D02*
X121786000Y26730000D01*
X103826000Y22590000D02*
G75*
G02*
X103826000Y20590000I0J-1000000D01*
G01*
X40266000Y45145000D02*
X40266000Y34865000D01*
X40266000Y34865000D02*
X65906000Y34865000D01*
X40326000Y42655000D02*
X40326000Y41005000D01*
X40326000Y39005000D02*
X40326000Y37355000D01*
X40326000Y37355000D02*
X65846000Y37355000D01*
X65846000Y42655000D02*
X40326000Y42655000D01*
X65846000Y37355000D02*
X65846000Y42655000D01*
X65906000Y45145000D02*
X40266000Y45145000D01*
X65906000Y34865000D02*
X65906000Y45145000D01*
X40326000Y41005000D02*
G75*
G02*
X40326000Y39005000I0J-1000000D01*
G01*
X128016000Y61880000D02*
X128016000Y62500000D01*
X128936000Y60960000D02*
G75*
G02*
X127096000Y60960000I-920000J0D01*
G01*
X127096000Y60960000D02*
G75*
G02*
X128936000Y60960000I920000J0D01*
G01*
X116586000Y61880000D02*
X116586000Y62500000D01*
X117506000Y60960000D02*
G75*
G02*
X115666000Y60960000I-920000J0D01*
G01*
X115666000Y60960000D02*
G75*
G02*
X117506000Y60960000I920000J0D01*
G01*
X46616000Y29905000D02*
X46616000Y19625000D01*
X46616000Y19625000D02*
X72256000Y19625000D01*
X46676000Y27415000D02*
X46676000Y25765000D01*
X46676000Y23765000D02*
X46676000Y22115000D01*
X46676000Y22115000D02*
X72196000Y22115000D01*
X72196000Y27415000D02*
X46676000Y27415000D01*
X72196000Y22115000D02*
X72196000Y27415000D01*
X72256000Y29905000D02*
X46616000Y29905000D01*
X72256000Y19625000D02*
X72256000Y29905000D01*
X46676000Y25765000D02*
G75*
G02*
X46676000Y23765000I0J-1000000D01*
G01*
X176149000Y34290000D02*
X176149000Y36830000D01*
X176657000Y37338000D02*
X177165000Y37338000D01*
X177165000Y33782000D02*
X176657000Y33782000D01*
X177673000Y36830000D02*
X177673000Y34290000D01*
X178111000Y34360000D02*
X178411000Y34660000D01*
X178111000Y34360000D02*
X178411000Y34060000D01*
X178411000Y34060000D02*
X178411000Y34660000D01*
X176149000Y36830000D02*
G75*
G02*
X176657000Y37338000I508000J0D01*
G01*
X176657000Y33782000D02*
G75*
G02*
X176149000Y34290000I1J508001D01*
G01*
X177165000Y37338000D02*
G75*
G02*
X177673000Y36830000I0J-508000D01*
G01*
X177673000Y34290000D02*
G75*
G02*
X177165000Y33782000I-508001J1D01*
G01*
X153566000Y38470000D02*
X153566000Y35230000D01*
X153631000Y38470000D02*
X153566000Y38470000D01*
X153631000Y35230000D02*
X153566000Y35230000D01*
X155806000Y38470000D02*
X155741000Y38470000D01*
X155806000Y38470000D02*
X155806000Y35230000D01*
X155806000Y35230000D02*
X155741000Y35230000D01*
X150876000Y61945000D02*
X150876000Y61325000D01*
X151796000Y62865000D02*
G75*
G02*
X149956000Y62865000I-920000J0D01*
G01*
X149956000Y62865000D02*
G75*
G02*
X151796000Y62865000I920000J0D01*
G01*
X12596000Y26405000D02*
X12596000Y23165000D01*
X12661000Y26405000D02*
X12596000Y26405000D01*
X12661000Y23165000D02*
X12596000Y23165000D01*
X14836000Y26405000D02*
X14771000Y26405000D01*
X14836000Y26405000D02*
X14836000Y23165000D01*
X14836000Y23165000D02*
X14771000Y23165000D01*
X126626000Y26095000D02*
X126626000Y15815000D01*
X126626000Y15815000D02*
X144646000Y15815000D01*
X126686000Y23605000D02*
X126686000Y21955000D01*
X126686000Y19955000D02*
X126686000Y18305000D01*
X126686000Y18305000D02*
X144586000Y18305000D01*
X144586000Y23605000D02*
X126686000Y23605000D01*
X144586000Y18305000D02*
X144586000Y23605000D01*
X144646000Y26095000D02*
X126626000Y26095000D01*
X144646000Y15815000D02*
X144646000Y26095000D01*
X126686000Y21955000D02*
G75*
G02*
X126686000Y19955000I0J-1000000D01*
G01*
X124206000Y61880000D02*
X124206000Y62500000D01*
X125126000Y60960000D02*
G75*
G02*
X123286000Y60960000I-920000J0D01*
G01*
X123286000Y60960000D02*
G75*
G02*
X125126000Y60960000I920000J0D01*
G01*
X134246000Y42605000D02*
X134246000Y32325000D01*
X134246000Y32325000D02*
X152266000Y32325000D01*
X134306000Y40115000D02*
X134306000Y38465000D01*
X134306000Y36465000D02*
X134306000Y34815000D01*
X134306000Y34815000D02*
X152206000Y34815000D01*
X152206000Y40115000D02*
X134306000Y40115000D01*
X152206000Y34815000D02*
X152206000Y40115000D01*
X152266000Y42605000D02*
X134246000Y42605000D01*
X152266000Y32325000D02*
X152266000Y42605000D01*
X134306000Y38465000D02*
G75*
G02*
X134306000Y36465000I0J-1000000D01*
G01*
X64031000Y58917000D02*
X64031000Y55677000D01*
X64096000Y58917000D02*
X64031000Y58917000D01*
X64096000Y55677000D02*
X64031000Y55677000D01*
X66271000Y58917000D02*
X66206000Y58917000D01*
X66271000Y58917000D02*
X66271000Y55677000D01*
X66271000Y55677000D02*
X66206000Y55677000D01*
X113926000Y57845000D02*
X113926000Y47565000D01*
X113926000Y47565000D02*
X131946000Y47565000D01*
X113986000Y55355000D02*
X113986000Y53705000D01*
X113986000Y51705000D02*
X113986000Y50055000D01*
X113986000Y50055000D02*
X131886000Y50055000D01*
X131886000Y55355000D02*
X113986000Y55355000D01*
X131886000Y50055000D02*
X131886000Y55355000D01*
X131946000Y57845000D02*
X113926000Y57845000D01*
X131946000Y47565000D02*
X131946000Y57845000D01*
X113986000Y53705000D02*
G75*
G02*
X113986000Y51705000I0J-1000000D01*
G01*
X74826000Y25770000D02*
X74826000Y22530000D01*
X74891000Y25770000D02*
X74826000Y25770000D01*
X74891000Y22530000D02*
X74826000Y22530000D01*
X77066000Y25770000D02*
X77001000Y25770000D01*
X77066000Y25770000D02*
X77066000Y22530000D01*
X77066000Y22530000D02*
X77001000Y22530000D01*
X114396000Y29210000D02*
X113776000Y29210000D01*
X116236000Y29210000D02*
G75*
G02*
X114396000Y29210000I-920000J0D01*
G01*
X114396000Y29210000D02*
G75*
G02*
X116236000Y29210000I920000J0D01*
G01*
X157106000Y41335000D02*
X157106000Y31055000D01*
X157106000Y31055000D02*
X175126000Y31055000D01*
X157166000Y38845000D02*
X157166000Y37195000D01*
X157166000Y35195000D02*
X157166000Y33545000D01*
X157166000Y33545000D02*
X175066000Y33545000D01*
X175066000Y38845000D02*
X157166000Y38845000D01*
X175066000Y33545000D02*
X175066000Y38845000D01*
X175126000Y41335000D02*
X157106000Y41335000D01*
X175126000Y31055000D02*
X175126000Y41335000D01*
X157166000Y37195000D02*
G75*
G02*
X157166000Y35195000I0J-1000000D01*
G01*
X120746000Y29210000D02*
X120126000Y29210000D01*
X122586000Y29210000D02*
G75*
G02*
X120746000Y29210000I-920000J0D01*
G01*
X120746000Y29210000D02*
G75*
G02*
X122586000Y29210000I920000J0D01*
G01*
X136169400Y63449200D02*
X136169400Y64820799D01*
X136677401Y65328800D02*
X137159999Y65328799D01*
X137134600Y62941200D02*
X136677400Y62941200D01*
X137642599Y64846199D02*
X137642600Y63449200D01*
X136169400Y64820799D02*
G75*
G02*
X136677401Y65328800I508001J0D01*
G01*
X136677400Y62941200D02*
G75*
G02*
X136169400Y63449200I0J508000D01*
G01*
X137159999Y65328799D02*
G75*
G02*
X137642599Y64846199I1J-482599D01*
G01*
X137642600Y63449200D02*
G75*
G02*
X137134600Y62941200I-508000J0D01*
G01*
X96416000Y37835000D02*
X96416000Y34595000D01*
X96481000Y37835000D02*
X96416000Y37835000D01*
X96481000Y34595000D02*
X96416000Y34595000D01*
X98656000Y37835000D02*
X98591000Y37835000D01*
X98656000Y37835000D02*
X98656000Y34595000D01*
X98656000Y34595000D02*
X98591000Y34595000D01*
X36726000Y39105000D02*
X36726000Y35865000D01*
X36791000Y39105000D02*
X36726000Y39105000D01*
X36791000Y35865000D02*
X36726000Y35865000D01*
X38966000Y39105000D02*
X38901000Y39105000D01*
X38966000Y39105000D02*
X38966000Y35865000D01*
X38966000Y35865000D02*
X38901000Y35865000D01*
X37996000Y58155000D02*
X37996000Y54915000D01*
X38061000Y58155000D02*
X37996000Y58155000D01*
X38061000Y54915000D02*
X37996000Y54915000D01*
X40236000Y58155000D02*
X40171000Y58155000D01*
X40236000Y58155000D02*
X40236000Y54915000D01*
X40236000Y54915000D02*
X40171000Y54915000D01*
X123086000Y25135000D02*
X123086000Y21895000D01*
X123151000Y25135000D02*
X123086000Y25135000D01*
X123151000Y21895000D02*
X123086000Y21895000D01*
X125326000Y25135000D02*
X125261000Y25135000D01*
X125326000Y25135000D02*
X125326000Y21895000D01*
X125326000Y21895000D02*
X125261000Y21895000D01*
X16136000Y60385000D02*
X16136000Y50105000D01*
X16136000Y50105000D02*
X36696000Y50105000D01*
X16196000Y57895000D02*
X16196000Y56245000D01*
X16196000Y54245000D02*
X16196000Y52595000D01*
X16196000Y52595000D02*
X36636000Y52595000D01*
X36636000Y57895000D02*
X16196000Y57895000D01*
X36636000Y52595000D02*
X36636000Y57895000D01*
X36696000Y60385000D02*
X16136000Y60385000D01*
X36696000Y50105000D02*
X36696000Y60385000D01*
X16196000Y56245000D02*
G75*
G02*
X16196000Y54245000I0J-1000000D01*
G01*
X12596000Y56885000D02*
X12596000Y53645000D01*
X12661000Y56885000D02*
X12596000Y56885000D01*
X12661000Y53645000D02*
X12596000Y53645000D01*
X14836000Y56885000D02*
X14771000Y56885000D01*
X14836000Y56885000D02*
X14836000Y53645000D01*
X14836000Y53645000D02*
X14771000Y53645000D01*
X146581000Y21985400D02*
X146581000Y18745400D01*
X146646000Y21985400D02*
X146581000Y21985400D01*
X146646000Y18745400D02*
X146581000Y18745400D01*
X148821000Y21985400D02*
X148756000Y21985400D01*
X148821000Y21985400D02*
X148821000Y18745400D01*
X148821000Y18745400D02*
X148756000Y18745400D01*
X156106000Y53710000D02*
X156106000Y50470000D01*
X156171000Y53710000D02*
X156106000Y53710000D01*
X156171000Y50470000D02*
X156106000Y50470000D01*
X158346000Y53710000D02*
X158281000Y53710000D01*
X158346000Y53710000D02*
X158346000Y50470000D01*
X158346000Y50470000D02*
X158281000Y50470000D01*
X78366000Y28635000D02*
X78366000Y18355000D01*
X78366000Y18355000D02*
X98926000Y18355000D01*
X78426000Y26145000D02*
X78426000Y24495000D01*
X78426000Y22495000D02*
X78426000Y20845000D01*
X78426000Y20845000D02*
X98866000Y20845000D01*
X98866000Y26145000D02*
X78426000Y26145000D01*
X98866000Y20845000D02*
X98866000Y26145000D01*
X98926000Y28635000D02*
X78366000Y28635000D01*
X98926000Y18355000D02*
X98926000Y28635000D01*
X78426000Y24495000D02*
G75*
G02*
X78426000Y22495000I0J-1000000D01*
G01*
X100226000Y25770000D02*
X100226000Y22530000D01*
X100291000Y25770000D02*
X100226000Y25770000D01*
X100291000Y22530000D02*
X100226000Y22530000D01*
X102466000Y25770000D02*
X102401000Y25770000D01*
X102466000Y25770000D02*
X102466000Y22530000D01*
X102466000Y22530000D02*
X102401000Y22530000D01*
X147066000Y61945000D02*
X147066000Y61325000D01*
X147986000Y62865000D02*
G75*
G02*
X146146000Y62865000I-920000J0D01*
G01*
X146146000Y62865000D02*
G75*
G02*
X147986000Y62865000I920000J0D01*
G01*
X166116000Y61245000D02*
X166116000Y61865000D01*
X167036000Y60325000D02*
G75*
G02*
X165196000Y60325000I-920000J0D01*
G01*
X165196000Y60325000D02*
G75*
G02*
X167036000Y60325000I920000J0D01*
G01*
X113696000Y45085000D02*
X114316000Y45085000D01*
X113696000Y45085000D02*
G75*
G02*
X111856000Y45085000I-920000J0D01*
G01*
X111856000Y45085000D02*
G75*
G02*
X113696000Y45085000I920000J0D01*
G01*
X9786000Y45145000D02*
X9786000Y34865000D01*
X9786000Y34865000D02*
X35426000Y34865000D01*
X9846000Y42655000D02*
X9846000Y41005000D01*
X9846000Y39005000D02*
X9846000Y37355000D01*
X9846000Y37355000D02*
X35366000Y37355000D01*
X35366000Y42655000D02*
X9846000Y42655000D01*
X35366000Y37355000D02*
X35366000Y42655000D01*
X35426000Y45145000D02*
X9786000Y45145000D01*
X35426000Y34865000D02*
X35426000Y45145000D01*
X9846000Y41005000D02*
G75*
G02*
X9846000Y39005000I0J-1000000D01*
G01*
X120396000Y61880000D02*
X120396000Y62500000D01*
X121316000Y60960000D02*
G75*
G02*
X119476000Y60960000I-920000J0D01*
G01*
X119476000Y60960000D02*
G75*
G02*
X121316000Y60960000I920000J0D01*
G01*
X136786000Y56575000D02*
X136786000Y46295000D01*
X136786000Y46295000D02*
X154806000Y46295000D01*
X136846000Y54085000D02*
X136846000Y52435000D01*
X136846000Y50435000D02*
X136846000Y48785000D01*
X136846000Y48785000D02*
X154746000Y48785000D01*
X154746000Y54085000D02*
X136846000Y54085000D01*
X154746000Y48785000D02*
X154746000Y54085000D01*
X154806000Y56575000D02*
X136786000Y56575000D01*
X154806000Y46295000D02*
X154806000Y56575000D01*
X136846000Y52435000D02*
G75*
G02*
X136846000Y50435000I0J-1000000D01*
G01*
X133246000Y53075000D02*
X133246000Y49835000D01*
X133311000Y53075000D02*
X133246000Y53075000D01*
X133311000Y49835000D02*
X133246000Y49835000D01*
X135486000Y53075000D02*
X135421000Y53075000D01*
X135486000Y53075000D02*
X135486000Y49835000D01*
X135486000Y49835000D02*
X135421000Y49835000D01*
X133629400Y63449200D02*
X133629400Y64820799D01*
X134137401Y65328800D02*
X134619999Y65328799D01*
X134594600Y62941200D02*
X134137400Y62941200D01*
X135102599Y64846199D02*
X135102600Y63449200D01*
X133629400Y64820799D02*
G75*
G02*
X134137401Y65328800I508001J0D01*
G01*
X134137400Y62941200D02*
G75*
G02*
X133629400Y63449200I0J508000D01*
G01*
X134619999Y65328799D02*
G75*
G02*
X135102599Y64846199I1J-482599D01*
G01*
X135102600Y63449200D02*
G75*
G02*
X134594600Y62941200I-508000J0D01*
G01*
X127321000Y43180000D02*
X127321000Y45780000D01*
X129981000Y45780000D02*
X127321000Y45780000D01*
X129981000Y43180000D02*
X127321000Y43180000D01*
X129981000Y43180000D02*
X129981000Y45780000D01*
X129981000Y41910000D02*
X129981000Y40580000D01*
X129981000Y40580000D02*
X128651000Y40580000D01*
X110386000Y53710000D02*
X110386000Y50470000D01*
X110451000Y53710000D02*
X110386000Y53710000D01*
X110451000Y50470000D02*
X110386000Y50470000D01*
X112626000Y53710000D02*
X112561000Y53710000D01*
X112626000Y53710000D02*
X112626000Y50470000D01*
X112626000Y50470000D02*
X112561000Y50470000D01*
X16136000Y29905000D02*
X16136000Y19625000D01*
X16136000Y19625000D02*
X41776000Y19625000D01*
X16196000Y27415000D02*
X16196000Y25765000D01*
X16196000Y23765000D02*
X16196000Y22115000D01*
X16196000Y22115000D02*
X41716000Y22115000D01*
X41716000Y27415000D02*
X16196000Y27415000D01*
X41716000Y22115000D02*
X41716000Y27415000D01*
X41776000Y29905000D02*
X16136000Y29905000D01*
X41776000Y19625000D02*
X41776000Y29905000D01*
X16196000Y25765000D02*
G75*
G02*
X16196000Y23765000I0J-1000000D01*
G01*
X72651000Y42605000D02*
X72651000Y32325000D01*
X72651000Y32325000D02*
X93211000Y32325000D01*
X72711000Y40115000D02*
X72711000Y38465000D01*
X72711000Y36465000D02*
X72711000Y34815000D01*
X72711000Y34815000D02*
X93151000Y34815000D01*
X93151000Y40115000D02*
X72711000Y40115000D01*
X93151000Y34815000D02*
X93151000Y40115000D01*
X93211000Y42605000D02*
X72651000Y42605000D01*
X93211000Y32325000D02*
X93211000Y42605000D01*
X72711000Y38465000D02*
G75*
G02*
X72711000Y36465000I0J-1000000D01*
G01*
M02*
