M48
; DRILL file {KiCad 8.0.9} date 2025-04-29T14:58:17+0900
; FORMAT={-:-/ absolute / metric / decimal}
; #@! TF.CreationDate,2025-04-29T14:58:17+09:00
; #@! TF.GenerationSoftware,Kicad,Pcbnew,8.0.9
; #@! TF.FileFunction,Plated,1,2,PTH
FMAT,2
METRIC
; #@! TA.AperFunction,Plated,PTH,ViaDrill
T1C0.300
; #@! TA.AperFunction,Plated,PTH,ComponentDrill
T2C0.700
; #@! TA.AperFunction,Plated,PTH,ComponentDrill
T3C0.800
; #@! TA.AperFunction,Plated,PTH,ComponentDrill
T4C1.000
%
G90
G05
T1
X18.703Y42.003
X20.701Y41.91
X23.236Y41.705
X26.031Y41.325
X28.191Y40.945
X30.226Y56.297
X30.861Y40.565
X35.306Y61.595
X35.306Y54.065
X35.82Y40.185
X37.211Y19.05
X37.846Y65.405
X39.116Y18.415
X40.386Y17.145
X40.455Y30.411
X41.656Y26.67
X41.656Y15.875
X42.926Y13.438
X43.952Y16.149
X44.814Y16.595
X45.466Y13.335
X48.006Y13.335
X49.276Y57.84
X50.546Y13.335
X51.181Y49.275
X53.721Y48.585
X54.061Y62.865
X54.768Y62.242
X56.261Y12.7
X57.238Y49.455
X57.531Y15.24
X58.801Y22.86
X58.801Y12.7
X58.816Y48.245
X60.706Y55.411
X61.624Y47.82
X62.126Y27.42
X62.201Y62.005
X62.611Y62.954
X63.246Y47.44
X63.881Y54.61
X64.943Y47.901
X65.386Y17.945
X65.786Y65.405
X67.056Y26.67
X67.261Y44.272
X67.261Y40.005
X68.714Y50.684
X68.972Y43.497
X69.596Y31.115
X69.897Y50.104
X70.866Y56.044
X70.866Y17.145
X71.985Y34.139
X72.136Y57.073
X73.745Y17.145
X74.041Y31.115
X74.676Y28.575
X75.311Y16.525
X75.946Y45.72
X76.263Y13.652
X76.581Y49.41
X77.851Y49.41
X80.391Y57.073
X85.471Y39.912
X86.106Y12.7
X86.741Y38.227
X87.376Y13.97
X89.916Y13.002
X90.551Y57.073
X91.821Y37.264
X91.821Y31.115
X92.466Y12.949
X93.726Y32.385
X94.361Y36.084
X94.744Y35.23
X95.124Y34.29
X96.694Y31.195
X97.536Y22.9
X98.823Y55.47
X99.441Y56.323
X99.441Y41.91
X100.076Y27.813
X101.346Y14.945
X101.689Y45.219
X103.886Y54.61
X103.886Y44.115
X105.364Y36.548
X106.426Y57.073
X107.061Y39.215
X109.846Y38.452
X110.236Y65.405
X110.871Y23.495
X111.415Y29.615
X111.506Y56.515
X112.776Y26.975
X113.411Y14.945
X113.411Y11.82
X113.704Y57.09
X115.316Y22.62
X116.739Y36.822
X118.246Y38.455
X119.126Y26.975
X120.396Y22.62
X124.206Y36.859
X124.206Y14.945
X125.265Y28.999
X127.061Y30.566
X127.235Y37.954
X127.381Y28.3
X129.227Y28.3
X129.341Y32.295
X130.556Y52.248
X130.563Y29.876
X130.627Y43.109
X132.186Y28.3
X132.461Y53.805
X132.499Y12.322
X132.777Y26.364
X133.827Y31.019
X134.351Y12.702
X134.366Y47.625
X134.366Y19.185
X135.336Y21.105
X136.185Y19.019
X138.534Y19.955
X138.811Y13.082
X139.636Y28.226
X140.081Y18.415
X141.736Y56.57
X143.256Y14.945
X143.875Y56.722
X145.796Y24.765
X146.376Y31.615
X146.943Y14.945
X146.99Y16.645
X146.99Y12.96
X149.626Y24.247
X150.876Y36.83
X150.876Y30.48
X151.602Y14.242
X152.146Y39.495
X154.33Y52.785
X154.686Y30.48
X155.956Y57.325
X157.226Y47.625
X159.264Y34.16
X163.576Y14.242
X166.009Y36.08
X166.533Y52.821
X167.386Y20.32
X167.776Y34.16
X168.656Y22.11
X169.926Y48.895
X169.926Y16.51
X170.61Y18.366
X171.092Y33.838
X174.316Y36.562
X175.606Y38.524
T2
X58.166Y63.5
X60.706Y63.5
X112.776Y45.085
X112.776Y29.21
X115.316Y45.085
X115.316Y29.21
X116.586Y63.5
X116.586Y60.96
X119.126Y29.21
X120.396Y63.5
X120.396Y60.96
X121.666Y29.21
X124.206Y63.5
X124.206Y60.96
X128.016Y63.5
X128.016Y60.96
X143.256Y62.865
X143.256Y60.325
X147.066Y62.865
X147.066Y60.325
X147.701Y29.21
X147.701Y26.67
X150.876Y62.865
X150.876Y60.325
X166.116Y62.865
X166.116Y60.325
X171.831Y24.765
X171.831Y22.225
X172.466Y43.815
X173.736Y62.865
X173.736Y60.325
X175.006Y43.815
T3
X6.096Y30.48
X7.366Y41.275
X7.366Y38.775
X8.596Y30.48
X11.176Y43.815
X11.176Y36.195
X13.716Y56.515
X13.716Y54.015
X13.716Y43.815
X13.716Y36.195
X13.716Y26.035
X13.716Y23.535
X16.256Y43.815
X16.256Y36.195
X17.526Y59.055
X17.526Y51.435
X17.526Y28.575
X17.526Y20.955
X18.796Y43.815
X18.796Y36.195
X20.066Y59.055
X20.066Y51.435
X20.066Y28.575
X20.066Y20.955
X21.336Y43.815
X21.336Y36.195
X22.606Y59.055
X22.606Y51.435
X22.606Y28.575
X22.606Y20.955
X23.876Y43.815
X23.876Y36.195
X25.146Y59.055
X25.146Y51.435
X25.146Y28.575
X25.146Y20.955
X26.416Y43.815
X26.416Y36.195
X27.686Y59.055
X27.686Y51.435
X27.686Y28.575
X27.686Y20.955
X28.956Y43.815
X28.956Y36.195
X30.226Y59.055
X30.226Y51.435
X30.226Y28.575
X30.226Y20.955
X31.496Y43.815
X31.496Y36.195
X32.766Y59.055
X32.766Y51.435
X32.766Y28.575
X32.766Y20.955
X34.036Y43.815
X34.036Y36.195
X35.306Y59.055
X35.306Y51.435
X35.306Y28.575
X35.306Y20.955
X37.846Y38.735
X37.846Y36.235
X37.846Y28.575
X37.846Y20.955
X39.116Y57.785
X39.116Y55.285
X40.386Y28.575
X40.386Y20.955
X41.656Y43.815
X41.656Y36.195
X42.926Y60.325
X42.926Y52.705
X44.196Y43.815
X44.196Y36.195
X44.196Y26.035
X44.196Y23.535
X45.466Y60.325
X45.466Y52.705
X46.736Y43.815
X46.736Y36.195
X48.006Y60.325
X48.006Y52.705
X48.006Y28.575
X48.006Y20.955
X49.276Y43.815
X49.276Y36.195
X50.546Y60.325
X50.546Y52.705
X50.546Y28.575
X50.546Y20.955
X51.816Y43.815
X51.816Y36.195
X53.086Y60.325
X53.086Y52.705
X53.086Y28.575
X53.086Y20.955
X54.356Y43.815
X54.356Y36.195
X55.626Y60.325
X55.626Y52.705
X55.626Y28.575
X55.626Y20.955
X56.896Y43.815
X56.896Y36.195
X58.166Y60.325
X58.166Y52.705
X58.166Y28.575
X58.166Y20.955
X59.436Y43.815
X59.436Y36.195
X60.706Y60.325
X60.706Y52.705
X60.706Y28.575
X60.706Y20.955
X61.976Y43.815
X61.976Y36.195
X63.246Y28.575
X63.246Y20.955
X64.516Y43.815
X64.516Y36.195
X65.151Y58.547
X65.151Y56.047
X65.786Y28.575
X65.786Y20.955
X68.326Y28.575
X68.326Y20.955
X69.596Y62.23
X69.596Y46.99
X70.231Y40.005
X70.231Y37.505
X70.866Y28.575
X70.866Y20.955
X72.136Y62.23
X72.136Y46.99
X74.041Y41.275
X74.041Y33.655
X74.676Y62.23
X74.676Y46.99
X75.946Y25.4
X75.946Y22.9
X76.581Y41.275
X76.581Y33.655
X77.216Y62.23
X77.216Y46.99
X79.121Y41.275
X79.121Y33.655
X79.756Y62.23
X79.756Y46.99
X79.756Y27.305
X79.756Y19.685
X81.661Y41.275
X81.661Y33.655
X82.296Y62.23
X82.296Y46.99
X82.296Y27.305
X82.296Y19.685
X84.201Y41.275
X84.201Y33.655
X84.836Y62.23
X84.836Y46.99
X84.836Y27.305
X84.836Y19.685
X86.741Y41.275
X86.741Y33.655
X87.376Y62.23
X87.376Y46.99
X87.376Y27.305
X87.376Y19.685
X89.281Y41.275
X89.281Y33.655
X89.916Y62.23
X89.916Y46.99
X89.916Y27.305
X89.916Y19.685
X91.821Y41.275
X91.821Y33.655
X92.456Y62.23
X92.456Y46.99
X92.456Y27.305
X92.456Y19.685
X94.996Y62.23
X94.996Y46.99
X94.996Y27.305
X94.996Y19.685
X97.536Y62.23
X97.536Y46.99
X97.536Y37.465
X97.536Y34.965
X97.536Y27.305
X97.536Y19.685
X100.076Y62.23
X100.076Y46.99
X101.346Y41.275
X101.346Y33.655
X101.346Y25.4
X101.346Y22.9
X102.616Y62.23
X102.616Y46.99
X103.886Y41.275
X103.886Y33.655
X105.156Y62.23
X105.156Y46.99
X105.156Y25.4
X105.156Y17.78
X106.426Y41.275
X106.426Y33.655
X107.696Y62.23
X107.696Y46.99
X107.696Y25.4
X107.696Y17.78
X108.966Y41.275
X108.966Y33.655
X110.236Y25.4
X110.236Y17.78
X111.506Y53.34
X111.506Y50.84
X111.506Y41.275
X111.506Y33.655
X112.776Y25.4
X112.776Y17.78
X114.046Y41.275
X114.046Y33.655
X115.316Y56.515
X115.316Y48.895
X115.316Y25.4
X115.316Y17.78
X116.586Y41.275
X116.586Y33.655
X117.856Y56.515
X117.856Y48.895
X117.856Y25.4
X117.856Y17.78
X119.126Y41.275
X119.126Y33.655
X120.396Y56.515
X120.396Y48.895
X120.396Y25.4
X120.396Y17.78
X121.666Y41.275
X121.666Y33.655
X122.936Y56.515
X122.936Y48.895
X124.206Y41.275
X124.206Y33.655
X124.206Y24.765
X124.206Y22.265
X125.476Y56.515
X125.476Y48.895
X128.016Y56.515
X128.016Y48.895
X128.016Y24.765
X128.016Y17.145
X130.556Y56.515
X130.556Y48.895
X130.556Y24.765
X130.556Y17.145
X131.826Y38.1
X131.826Y35.6
X133.096Y24.765
X133.096Y17.145
X134.366Y52.705
X134.366Y50.205
X135.636Y41.275
X135.636Y33.655
X135.636Y24.765
X135.636Y17.145
X138.176Y55.245
X138.176Y47.625
X138.176Y41.275
X138.176Y33.655
X138.176Y24.765
X138.176Y17.145
X140.716Y55.245
X140.716Y47.625
X140.716Y41.275
X140.716Y33.655
X140.716Y24.765
X140.716Y17.145
X143.256Y55.245
X143.256Y47.625
X143.256Y41.275
X143.256Y33.655
X143.256Y24.765
X143.256Y17.145
X145.796Y55.245
X145.796Y47.625
X145.796Y41.275
X145.796Y33.655
X147.701Y21.615
X147.701Y19.115
X148.336Y55.245
X148.336Y47.625
X148.336Y41.275
X148.336Y33.655
X150.876Y55.245
X150.876Y47.625
X150.876Y41.275
X150.876Y33.655
X152.146Y24.765
X152.146Y17.145
X153.416Y55.245
X153.416Y47.625
X154.686Y38.1
X154.686Y35.6
X154.686Y24.765
X154.686Y17.145
X157.226Y53.34
X157.226Y50.84
X157.226Y24.765
X157.226Y17.145
X158.496Y40.005
X158.496Y32.385
X159.766Y24.765
X159.766Y17.145
X161.036Y55.245
X161.036Y47.625
X161.036Y40.005
X161.036Y32.385
X162.306Y24.765
X162.306Y17.145
X163.576Y55.245
X163.576Y47.625
X163.576Y40.005
X163.576Y32.385
X164.846Y24.765
X164.846Y17.145
X166.116Y55.245
X166.116Y47.625
X166.116Y40.005
X166.116Y32.385
X167.386Y24.765
X167.386Y17.145
X168.656Y55.245
X168.656Y47.625
X168.656Y40.005
X168.656Y32.385
X171.196Y55.245
X171.196Y47.625
X171.196Y40.005
X171.196Y32.385
X173.736Y55.245
X173.736Y47.625
X173.736Y40.005
X173.736Y32.385
X176.276Y55.245
X176.276Y47.625
T4
X128.651Y44.45
X128.651Y41.91
X133.096Y60.325
X135.636Y60.325
X138.176Y60.325
M30
